<?xml version="1.0" encoding="UTF-8"?>
<svg width="50px" height="50px" viewBox="0 0 50 50" version="1.1" xmlns="http://www.w3.org/2000/svg" xmlns:xlink="http://www.w3.org/1999/xlink">
    <!-- Generator: Sketch 52.5 (67469) - http://www.bohemiancoding.com/sketch -->
    <title>Artboard</title>
    <desc>Created with Sketch.</desc>
    <g id="Artboard" stroke="none" stroke-width="1" fill="none" fill-rule="evenodd">
        <g id="icon" transform="translate(0.000000, 8.000000)">
            <path d="M0,0 L0,3.09090909 L29.6875,3.09090909 L29.6875,26.2727273 L20.0683594,26.2727273 C19.3725594,23.6164773 16.9555672,21.6363636 14.0625,21.6363636 C11.1694344,21.6363636 8.75244219,23.6164773 8.05664062,26.2727273 L6.25,26.2727273 L6.25,18.5454545 L3.125,18.5454545 L3.125,29.3636364 L8.05664062,29.3636364 C8.75244219,32.0198864 11.1694344,34 14.0625,34 C16.9555672,34 19.3725594,32.0198864 20.0683594,29.3636364 L33.0566406,29.3636364 C33.7524422,32.0198864 36.1694344,34 39.0625,34 C41.9555672,34 44.3725594,32.0198864 45.0683594,29.3636364 L50,29.3636364 L50,16.7585227 L49.9023438,16.5170455 L46.7773438,7.24431818 L46.4355469,6.18181818 L32.8125,6.18181818 L32.8125,0 L0,0 Z M32.8125,9.27272727 L44.1894531,9.27272727 L46.875,17.1931818 L46.875,26.2727273 L45.0683594,26.2727273 C44.3725594,23.6164773 41.9555672,21.6363636 39.0625,21.6363636 C36.1694344,21.6363636 33.7524422,23.6164773 33.0566406,26.2727273 L32.8125,26.2727273 L32.8125,9.27272727 Z M14.0625,24.7272727 C15.8081063,24.7272727 17.1875,26.0916201 17.1875,27.8181818 C17.1875,29.5447451 15.8081063,30.9090909 14.0625,30.9090909 C12.3168953,30.9090909 10.9375,29.5447451 10.9375,27.8181818 C10.9375,26.0916201 12.3168953,24.7272727 14.0625,24.7272727 Z M39.0625,24.7272727 C40.8081063,24.7272727 42.1875,26.0916201 42.1875,27.8181818 C42.1875,29.5447451 40.8081063,30.9090909 39.0625,30.9090909 C37.3168953,30.9090909 35.9375,29.5447451 35.9375,27.8181818 C35.9375,26.0916201 37.3168953,24.7272727 39.0625,24.7272727 Z" id="Shape" fill="#000000" fill-rule="nonzero"></path>
            <polygon id="Path" fill="#FFA511" points="1.5625 6.18181818 1.5625 9.27272727 15.625 9.27272727 15.625 6.18181818"></polygon>
            <polygon id="Path" fill="#FFA511" points="3.125 12.3636364 3.125 15.4545455 12.5 15.4545455 12.5 12.3636364"></polygon>
        </g>
    </g>
</svg>