<svg width="50" height="50" xmlns="http://www.w3.org/2000/svg"><g fill="none" fill-rule="evenodd"><path d="M18.656 5c-3.242 0-5.906 2.631-5.906 5.833 0 3.202 2.664 5.834 5.906 5.834 3.242 0 5.906-2.632 5.906-5.834C24.562 7.631 21.898 5 18.656 5zm0 3.333c1.418 0 2.531 1.1 2.531 2.5s-1.113 2.5-2.53 2.5c-1.419 0-2.532-1.1-2.532-2.5s1.113-2.5 2.531-2.5zm1.244 31.72V45h4.19l-4.19-4.948z" fill="#000" fill-rule="nonzero"/><path d="M16 8.5h10.713" stroke="#000" stroke-width="3" stroke-linejoin="round"/><path fill="#FFA511" d="M24.5 28.271V35H38V21.667h-9.842L30.38 25h4.245v6.667h-3.846l-3.026-4.54z"/><path d="M18.44 45.017V18.89c4.04 2.601 6.619 5.531 7.737 8.791" stroke="#000" stroke-width="3" stroke-linejoin="round"/></g></svg>