<svg width="50" height="50" xmlns="http://www.w3.org/2000/svg"><g fill="none" fill-rule="evenodd"><path d="M26.5 7c-3.299 0-6 2.701-6 6 0 2.22 1.242 4.166 3.047 5.203A7.1 7.1 0 0 0 23.5 19c0 4.125 3.375 7.5 7.5 7.5s7.5-3.375 7.5-7.5c0-3.674-2.69-6.78-6.188-7.406C31.68 8.963 29.319 7 26.5 7zm0 3c1.219 0 2.244.709 2.719 1.734-1.963.487-3.627 1.77-4.64 3.47-.645-.54-1.079-1.29-1.079-2.204 0-1.676 1.324-3 3-3zm4.5 4.5c2.502 0 4.5 1.998 4.5 4.5s-1.998 4.5-4.5 4.5a4.479 4.479 0 0 1-4.5-4.5c0-2.502 1.998-4.5 4.5-4.5z" fill="#FFA511"/><path d="M18.203 25c-4.793 0-11.156 2.625-11.156 2.625l1.125 2.813S14.617 28 18.203 28c1.453 0 3.932.89 5.953 1.922a26.764 26.764 0 0 1 2.578 1.5c.334.223.616.422.797.562.088.07.153.153.188.188l.234.328a1.13 1.13 0 0 1-.14 1.031 1.14 1.14 0 0 1-1.266.422H26.5l-6.516-3.14-1.265 2.718 6.656 3.188h.047l.094.047a4.12 4.12 0 0 0 4.734-1.5c.598-.85.773-1.846.656-2.813l7.219-1.219c.797-.134 1.53.364 1.781 1.125.27.809-.111 1.63-.89 1.97-2.198.966-5.73 2.413-8.907 3.608a99.383 99.383 0 0 1-4.265 1.5c-.58.188-1.084.329-1.453.422-.37.094-.668.141-.516.141.094 0-.51-.135-1.219-.516-.709-.38-1.6-.937-2.484-1.5-.885-.562-1.799-1.13-2.672-1.593-.873-.463-1.658-.891-2.719-.891-2.455 0-4.64.938-4.64.938l1.171 2.765s1.834-.703 3.47-.703c-.042 0 .597.135 1.312.516.715.38 1.6.937 2.484 1.5.885.562 1.77 1.13 2.625 1.593.856.463 1.606.891 2.672.891.51 0 .803-.111 1.266-.234.463-.123 1.025-.27 1.64-.47 1.23-.398 2.742-.937 4.36-1.546 3.228-1.213 6.808-2.648 9.093-3.656 2.168-.955 3.282-3.475 2.532-5.719-.715-2.145-2.924-3.463-5.157-3.094l-8.203 1.36c-.006-.006-.035.005-.047 0-.047-.036-.093-.106-.14-.141l-.422-.328v.047c-.129-.094-.223-.182-.375-.282a30.702 30.702 0 0 0-2.906-1.687C23.283 26.113 20.664 25 18.203 25z" fill="#000" fill-rule="nonzero"/></g></svg>