<?xml version="1.0" encoding="UTF-8"?>
<svg width="50px" height="50px" viewBox="0 0 50 50" version="1.1" xmlns="http://www.w3.org/2000/svg" xmlns:xlink="http://www.w3.org/1999/xlink">
    <!-- Generator: Sketch 52.5 (67469) - http://www.bohemiancoding.com/sketch -->
    <title>Artboard</title>
    <desc>Created with Sketch.</desc>
    <g id="Artboard" stroke="none" stroke-width="1" fill="none" fill-rule="evenodd">
        <g id="icon" transform="translate(3.000000, 7.000000)">
            <path d="M22.5,0 C16.7167965,0 12,4.7167965 12,10.5 C12,14.109375 13.8457035,17.3085945 16.634766,19.1953125 C11.2734375,21.4863285 7.5,26.8125 7.5,33 L10.5,33 C10.5,27.708984 13.9042965,23.244141 18.6386715,21.6386715 L22.125,25.125 L19.5,33 L22.5,36 L25.5,33 L22.875,25.125 L26.3613285,21.6386715 C31.0957035,23.244141 34.5,27.708984 34.5,33 L37.5,33 C37.5,26.8125 33.7265625,21.4863285 28.365234,19.1953125 C31.1542965,17.3085945 33,14.109375 33,10.5 C33,4.7167965 28.2832035,0 22.5,0 Z M22.5,3 C26.660157,3 30,6.3398445 30,10.5 C30,14.660157 26.660157,18 22.5,18 C18.3398445,18 15,14.660157 15,10.5 C15,6.3398445 18.3398445,3 22.5,3 Z" id="Shape" fill="#000000" fill-rule="nonzero"></path>
            <path d="M34.5,4.6054695 L34.5,7.6582035 C37.207032,8.1796875 39,10.119141 39,12.75 C39,15.380859 37.207032,17.3203125 34.5,17.8417965 L34.5,21.140625 C38.6953125,21.878907 42,25.634766 42,30 L45,30 C45,25.4707035 42.328125,21.4335945 38.5136715,19.400391 C40.6699215,17.9355465 42,15.5742195 42,12.75 C42,8.443359 38.9238285,5.208984 34.5,4.6054695 Z" id="Path" fill="#FFA511"></path>
            <path d="M10.5,4.6171875 C6.134766,5.2324215 3,8.519532 3,12.75 C3,15.5742195 4.3300785,17.9355465 6.4863285,19.400391 C2.671875,21.4335945 0,25.4707035 0,30 L3,30 C3,25.634766 6.3046875,21.878907 10.5,21.140625 L10.5,17.8417965 C7.7929695,17.3203125 6,15.380859 6,12.75 C6,10.166016 7.828125,8.203125 10.5,7.6640625 L10.5,4.6171875 Z" id="Path" fill="#FFA511"></path>
        </g>
    </g>
</svg>