<svg width="50" height="50" xmlns="http://www.w3.org/2000/svg"><g fill="none" fill-rule="evenodd"><path d="M25.5 5A19.463 19.463 0 0 0 6 24.5C6 35.299 14.701 44 25.5 44S45 35.299 45 24.5c0-2.098-.281-4.19-1.031-6.14l-2.438 2.39A15.18 15.18 0 0 1 42 24.5 16.45 16.45 0 0 1 25.5 41 16.45 16.45 0 0 1 9 24.5 16.45 16.45 0 0 1 25.5 8c4.5 0 8.543 1.793 11.39 4.64L39 10.532C35.549 7.081 30.75 5 25.5 5z" fill="#000" fill-rule="nonzero"/><path fill="#FFA511" d="M42.422 11.422 25.5 28.344l-6.422-6.422-2.156 2.156 7.5 7.5L25.5 32.61l1.078-1.03 18-18z"/></g></svg>