<svg width="50" height="50" xmlns="http://www.w3.org/2000/svg"><g fill="none" fill-rule="evenodd"><path d="M25.5 7C19.717 7 15 11.717 15 17.5c0 3.61 1.846 6.809 4.635 8.695C14.273 28.486 10.5 33.812 10.5 40h3c0-5.291 3.404-9.756 8.139-11.361l3.486 3.486L22.5 40l3 3 3-3-2.625-7.875 3.486-3.486A11.983 11.983 0 0 1 37.5 40h3c0-6.188-3.773-11.514-9.135-13.805C34.155 24.31 36 21.11 36 17.5 36 11.717 31.283 7 25.5 7zm0 3c4.16 0 7.5 3.34 7.5 7.5S29.66 25 25.5 25 18 21.66 18 17.5s3.34-7.5 7.5-7.5z" fill="#000" fill-rule="nonzero"/><path d="M37.5 11.605v3.053c2.707.522 4.5 2.461 4.5 5.092 0 2.63-1.793 4.57-4.5 5.092v3.299c4.195.738 7.5 4.494 7.5 8.859h3c0-4.53-2.672-8.566-6.486-10.6C43.67 24.936 45 22.574 45 19.75c0-4.307-3.076-7.541-7.5-8.145zM13.5 11.617C9.135 12.232 6 15.52 6 19.75c0 2.824 1.33 5.186 3.486 6.65C5.672 28.434 3 32.47 3 37h3c0-4.365 3.305-8.121 7.5-8.86v-3.298C10.793 24.32 9 22.38 9 19.75c0-2.584 1.828-4.547 4.5-5.086v-3.047z" fill="#FFA511"/></g></svg>