<svg width="50" height="50" xmlns="http://www.w3.org/2000/svg"><g fill="none" fill-rule="evenodd"><path d="M0 8v3.09h29.688v23.183h-9.62c-.695-2.657-3.112-4.637-6.006-4.637-2.893 0-5.31 1.98-6.005 4.637H6.25v-7.728H3.125v10.819h4.932C8.752 40.02 11.169 42 14.062 42c2.894 0 5.31-1.98 6.006-4.636h12.989C33.752 40.02 36.169 42 39.062 42c2.894 0 5.31-1.98 6.006-4.636H50V24.759l-.098-.242-3.125-9.273-.341-1.062H32.813V8H0zm32.813 9.273h11.376l2.686 7.92v9.08h-1.807c-.695-2.657-3.112-4.637-6.005-4.637-2.894 0-5.31 1.98-6.006 4.637h-.245v-17zm-18.75 15.454c1.745 0 3.124 1.365 3.124 3.091 0 1.727-1.379 3.091-3.125 3.091-1.745 0-3.124-1.364-3.124-3.09 0-1.727 1.379-3.092 3.124-3.092zm25 0c1.745 0 3.124 1.365 3.124 3.091 0 1.727-1.379 3.091-3.124 3.091-1.746 0-3.126-1.364-3.126-3.09 0-1.727 1.38-3.092 3.126-3.092z" fill="#000" fill-rule="nonzero"/><path fill="#FFA511" d="M1.563 14.182v3.09h14.062v-3.09zM3.125 20.364v3.09H12.5v-3.09z"/></g></svg>