<svg width="216" height="94" xmlns="http://www.w3.org/2000/svg" xmlns:xlink="http://www.w3.org/1999/xlink"><defs><path d="M69.916.82H51.519c-10.224 0-27.54 25.164-27.54 25.164s-11.171 1.871-18.48 6.246c-7.313 4.384-4.39 21.913-4.39 21.913h11.323c0-7.266 5.894-13.139 13.156-13.139 7.26 0 13.143 5.873 13.143 13.139h31.233v-3.564h-.048V.82" id="b"/><path d="M36.446 19.741H.193S13.246.381 20.506.381h15.945l-.005 19.36" id="d"/><path d="M16.696.434C7.527.434.098 7.871.098 17.028c0 9.162 7.429 16.599 16.598 16.599 9.156 0 16.586-7.437 16.586-16.599C33.289 7.874 25.852.434 16.696.434" id="f"/><linearGradient x1="50%" y1="0%" x2="50%" y2="100%" id="a"><stop stop-color="#010201" offset="0%"/><stop offset="100%"/></linearGradient><linearGradient x1="50%" y1="0%" x2="50%" y2="100%" id="h"><stop stop-color="#0A0B09" offset="0%"/><stop offset="100%"/></linearGradient></defs><g fill="none" fill-rule="evenodd"><path d="M144.559 18.816v49.763h.012v3.573h-43.892c-50.981 0-90.866.008-90.866.008l.053-15.21H2.281V1.595l142.194-.039.084 17.26z" stroke="#000" stroke-width="3" fill="#FFF"/><path d="M57.479 22.818c2.227 0 3.984.686 5.27 2.056 1.287 1.371 1.93 3.36 1.93 5.968 0 2.569-.681 4.601-2.045 6.097-1.363 1.495-3.283 2.243-5.76 2.243-1.056 0-2.011-.144-2.866-.432a9.075 9.075 0 0 1-2.463-1.294l2.132-2.876c.557.346 1.056.59 1.498.734.441.144.93.215 1.468.215.788 0 1.44-.254 1.959-.762.518-.508.826-1.337.922-2.487h-5.271V29.46h5.242c-.077-1.073-.322-1.84-.735-2.3-.412-.46-.984-.69-1.713-.69a4.85 4.85 0 0 0-1.512.23c-.47.153-.965.402-1.484.747l-2.16-2.79c1.536-1.226 3.399-1.84 5.588-1.84zm21.76.518-.662 3.738h-3.888v11.59h-5.127v-11.59h-4.32v-3.738h13.997zm13.408 10.612c0 .556.072.968.216 1.236.144.269.399.47.763.604l-1.036 3.308c-.98-.077-1.781-.278-2.405-.604-.624-.326-1.128-.844-1.513-1.553-.979 1.495-2.525 2.243-4.637 2.243-1.517 0-2.731-.446-3.643-1.337-.912-.892-1.368-2.047-1.368-3.466 0-1.687.624-2.981 1.872-3.882 1.248-.901 3.053-1.352 5.415-1.352h1.325v-.518c0-.824-.173-1.385-.519-1.682-.345-.297-.97-.446-1.872-.446-.48 0-1.08.072-1.8.216-.72.144-1.455.34-2.204.59l-1.123-3.308c.922-.383 1.91-.676 2.967-.877a15.758 15.758 0 0 1 2.938-.302c2.304 0 3.984.456 5.04 1.366 1.056.91 1.584 2.306 1.584 4.185v5.579zm-7.056 1.639c.422 0 .81-.11 1.166-.33.355-.221.648-.523.879-.907v-2.473h-.864c-.922 0-1.604.168-2.045.503-.442.336-.663.84-.663 1.51 0 .518.134.93.403 1.237.27.307.644.46 1.124.46zm31.121-12.251-3.456 7.132L117 38.664h-5.156l-2.563-6.413h-1.18v6.413h-4.408v-6.413h-1.18l-2.564 6.413h-5.127l3.716-8.196-3.428-7.132h4.781l2.535 5.953h1.267v-5.953h4.407v5.953h1.267l2.593-5.953h4.752z" fill="#1B1B1B"/><g transform="translate(27 22)"><rect fill="#1B1B1B" width="18" height="18" rx=".9"/><path fill="#FFA511" d="M6.3 0h5.4v5.85H9.9v1.8H8.1v1.8H6.3z"/></g><path d="m20.05.05.867 19.383H0S5.911 6.412 20.05.05z" transform="matrix(-1 0 0 1 166 0)" fill="url(#a)"/><g transform="matrix(-1 0 0 1 216 18)"><mask id="c" fill="#fff"><use xlink:href="#b"/></mask><path d="M69.916.82H51.519c-10.224 0-27.54 25.164-27.54 25.164s-11.171 1.871-18.48 6.246c-7.313 4.384-4.39 21.913-4.39 21.913h11.323c0-7.266 5.894-13.139 13.156-13.139 7.26 0 13.143 5.873 13.143 13.139h31.233v-3.564h-.048V.82" fill="#FFA511" mask="url(#c)"/><path fill="#E9EBFF" mask="url(#c)" d="M-.686 44.526h6.053v-9.832H-.686z"/></g><path fill="#FF3939" d="M16.3 60h-5v7h5z"/><g transform="matrix(-1 0 0 1 186 22)"><mask id="e" fill="#fff"><use xlink:href="#d"/></mask><path d="M36.446 19.741H.193S13.246.381 20.506.381h15.945l-.005 19.36" fill="#E9EBFF" mask="url(#e)"/></g><path fill="#0A0B09" d="M176.444 73.679h-34.408v-4.438h34.408z"/><path fill="#0A0B09" d="M144.575 73.079H9.057v-3.838h135.518zM144.575 57.248H2.281v-2.407h142.294z"/><g transform="matrix(-1 0 0 1 59 60)"><mask id="g" fill="#fff"><use xlink:href="#f"/></mask><path d="M16.696.434C7.527.434.098 7.871.098 17.028c0 9.162 7.429 16.599 16.598 16.599 9.156 0 16.586-7.437 16.586-16.599C33.289 7.874 25.852.434 16.696.434" fill="#0A0B09" mask="url(#g)"/></g><path d="M42.501 87C47.761 87 52 82.742 52 77.485 52 72.245 47.75 68 42.501 68 37.261 68 33 72.246 33 77.485 33 82.724 37.253 87 42.501 87" fill="#FFF"/><path d="M42.5 80.5c1.661 0 3-1.345 3-3.005a2.997 2.997 0 0 0-3-2.995 3 3 0 1 0 0 6" fill="#010101"/><g transform="matrix(-1 0 0 1 206 58)" fill="url(#h)"><path d="M16.659.564C7.498.564.073 8 .073 17.157c0 9.163 7.425 16.598 16.586 16.598 9.154 0 16.589-7.435 16.589-16.598 0-9.151-7.435-16.593-16.589-16.593"/></g><g><path d="M189.5 85c5.24 0 9.5-4.259 9.5-9.515 0-5.238-4.26-9.485-9.5-9.485-5.23 0-9.5 4.247-9.5 9.485 0 5.242 4.27 9.515 9.5 9.515" fill="#FFF"/><path d="M189.5 78.5a3 3 0 1 0 0-6c-1.652 0-3 1.341-3 2.995a3.008 3.008 0 0 0 3 3.005" fill="#010101"/></g></g></svg>