<?xml version="1.0" encoding="UTF-8"?>
<svg width="216px" height="94px" viewBox="0 0 216 94" version="1.1" xmlns="http://www.w3.org/2000/svg" xmlns:xlink="http://www.w3.org/1999/xlink">
    <!-- Generator: Sketch 52.5 (67469) - http://www.bohemiancoding.com/sketch -->
    <title>Group Copy</title>
    <desc>Created with Sketch.</desc>
    <defs>
        <linearGradient x1="50%" y1="0%" x2="50%" y2="100%" id="linearGradient-1">
            <stop stop-color="#010201" offset="0%"></stop>
            <stop stop-color="#000000" offset="100%"></stop>
        </linearGradient>
        <path d="M69.916,0.82 C60.989,0.82 54.092,0.82 51.519,0.82 C41.295,0.82 23.979,25.984 23.979,25.984 C23.979,25.984 12.808,27.855 5.499,32.23 C-1.814,36.614 1.109,54.143 1.109,54.143 L12.432,54.143 C12.432,46.877 18.326,41.004 25.588,41.004 C32.848,41.004 38.731,46.877 38.731,54.143 L69.964,54.143 L69.964,50.579 L69.916,50.579 L69.916,0.82" id="path-2"></path>
        <path d="M36.446,19.741 L0.193,19.741 C0.193,19.741 13.246,0.381 20.506,0.381 C27.766,0.381 36.451,0.381 36.451,0.381 L36.446,19.741" id="path-4"></path>
        <path d="M16.696,0.434 C7.527,0.434 0.098,7.871 0.098,17.028 C0.098,26.19 7.527,33.627 16.696,33.627 C25.852,33.627 33.282,26.19 33.282,17.028 C33.289,7.874 25.852,0.434 16.696,0.434" id="path-6"></path>
        <linearGradient x1="50%" y1="0%" x2="50%" y2="100%" id="linearGradient-8">
            <stop stop-color="#0A0B09" offset="0%"></stop>
            <stop stop-color="#000000" offset="100%"></stop>
        </linearGradient>
    </defs>
    <g id="website" stroke="none" stroke-width="1" fill="none" fill-rule="evenodd">
        <g id="Group-Copy" transform="translate(109.000000, 47.000000) scale(-1, 1) translate(-109.000000, -47.000000) translate(2.000000, 0.000000)">
            <g id="Group-325" transform="translate(71.000000, 1.000000)">
                <path d="M0.441,17.816 L0.441,67.579 L0.429,67.579 L0.429,71.152 L44.321,71.152 C95.302,71.152 135.187,71.16 135.187,71.16 L135.134,55.95 L142.719,55.95 L142.719,0.595 L0.525,0.556 L0.441,17.816 Z" id="Fill-323" stroke="#000000" stroke-width="3" fill="#FFFFFF"></path>
                <g id="Group-4" transform="translate(73.000000, 30.000000) scale(-1, 1) translate(-73.000000, -30.000000) translate(28.000000, 21.000000)">
                    <g id="Group-13">
                        <g>
                            <path d="M30.4787524,0.818181818 C32.7061504,0.818181818 34.4630802,1.50358797 35.7495946,2.87442083 C37.036109,4.2452537 37.6793565,6.23436945 37.6793565,8.84182777 C37.6793565,11.4109411 36.9977062,13.4431943 35.634385,14.9386483 C34.2710637,16.4341024 32.3509218,17.1818182 29.8739016,17.1818182 C28.8178077,17.1818182 27.8625371,17.0380267 27.0080612,16.7504394 C26.1535852,16.4628521 25.3327245,16.0314776 24.5454545,15.4563029 L26.6768334,12.5804442 C27.2336829,12.9255489 27.7329198,13.1699945 28.174559,13.3137881 C28.6161983,13.4575818 29.1058345,13.5294776 29.6434823,13.5294776 C30.4307523,13.5294776 31.0836005,13.2754459 31.6020466,12.767375 C32.1204927,12.2593041 32.4277154,11.4301064 32.523724,10.2797571 L27.2528817,10.2797571 L27.2528817,7.46141556 L32.4949215,7.46141556 C32.4181147,6.38775625 32.1732966,5.62086825 31.7604599,5.16072855 C31.3476232,4.70058885 30.776381,4.47052245 30.0467161,4.47052245 C29.5090683,4.47052245 29.0050311,4.54721125 28.5345892,4.70059115 C28.0641474,4.85397105 27.5697109,5.10320965 27.0512648,5.44831443 L24.8910835,2.65873143 C26.4272201,1.43169222 28.2897578,0.818181818 30.4787524,0.818181818 Z M52.2393294,1.3358364 L51.5768738,5.07445279 L47.6885475,5.07445279 L47.6885475,16.6641636 L42.5617174,16.6641636 L42.5617174,5.07445279 L38.2413549,5.07445279 L38.2413549,1.3358364 L52.2393294,1.3358364 Z M65.6472055,11.9477552 C65.6472055,12.5037574 65.7192108,12.9159597 65.8632236,13.1843745 C66.0072364,13.4527893 66.2616552,13.6540974 66.6264877,13.7883048 L65.5896007,17.0955424 C64.6103136,17.0188525 63.8086544,16.8175444 63.1845989,16.4916121 C62.5605434,16.1656798 62.0565062,15.6480304 61.672472,14.9386483 C60.693185,16.4341024 59.1474707,17.1818182 57.0352829,17.1818182 C55.5183481,17.1818182 54.3038583,16.7360645 53.3917772,15.8445439 C52.4796962,14.9530232 52.0236624,13.7978981 52.0236624,12.379134 C52.0236624,10.6919551 52.6477086,9.39783163 53.8958195,8.49672472 C55.1439305,7.5956178 56.9488639,7.1450711 59.3106739,7.1450711 L60.635585,7.1450711 L60.635585,6.62741652 C60.635585,5.80299955 60.4627723,5.2422127 60.1171415,4.94503914 C59.7715108,4.64786559 59.1474647,4.49928104 58.2449844,4.49928104 C57.7649418,4.49928104 57.1648974,4.57117679 56.4448334,4.71497044 C55.7247694,4.8587641 54.9903151,5.05527915 54.2414485,5.30452149 L53.1181543,1.99728391 C54.0398362,1.61383416 55.0287093,1.32145811 56.0848032,1.12014699 C57.1408971,0.918835868 58.1201695,0.818181818 59.0226497,0.818181818 C61.3268545,0.818181818 63.0069787,1.27352157 64.0630726,2.18421473 C65.1191665,3.09490789 65.6472055,4.48968544 65.6472055,6.36858923 L65.6472055,11.9477552 Z M58.5906134,13.5869947 C59.013051,13.5869947 59.4018797,13.4767546 59.7571113,13.256271 C60.1123429,13.0357874 60.4051645,12.7338252 60.635585,12.3503755 L60.635585,9.87713692 L59.7715125,9.87713692 C58.8498306,9.87713692 58.1681802,10.0448937 57.7265409,10.3804122 C57.2849017,10.7159307 57.0640854,11.219201 57.0640854,11.8902381 C57.0640854,12.4078952 57.1984953,12.8200975 57.4673192,13.1268573 C57.7361431,13.4336171 58.1105708,13.5869947 58.5906134,13.5869947 Z M89.7119758,1.3358364 L86.2556858,8.46796613 L90,16.6641636 L84.8443674,16.6641636 L82.2809523,10.2509986 L81.1000533,10.2509986 L81.1000533,16.6641636 L76.6932835,16.6641636 L76.6932835,10.2509986 L75.5123844,10.2509986 L72.9489694,16.6641636 L67.8221392,16.6641636 L71.5376509,8.46796613 L68.1101634,1.3358364 L72.8913645,1.3358364 L75.4259772,7.28886404 L76.6932835,7.28886404 L76.6932835,1.3358364 L81.1000533,1.3358364 L81.1000533,7.28886404 L82.3673596,7.28886404 L84.9595771,1.3358364 L89.7119758,1.3358364 Z" id="этаж" fill="#1B1B1B"></path>
                            <g id="Group">
                                <rect id="Rectangle" fill="#1B1B1B" x="0" y="0" width="18" height="18" rx="0.9"></rect>
                                <polygon id="Rectangle-Copy-3" fill="#FFA511" points="6.3 0 11.7 0 11.7 5.85 9.9 5.85 9.9 7.65 8.1 7.65 8.1 9.45 6.3 9.45"></polygon>
                            </g>
                        </g>
                    </g>
                </g>
            </g>
            <g id="Group-328" transform="translate(50.000000, 0.000000)" fill="url(#linearGradient-1)">
                <path d="M20.05,0.05 L20.917,19.433 L0,19.433 C0,19.433 5.911,6.412 20.05,0.05 Z" id="Fill-326"></path>
            </g>
            <g id="Group-331" transform="translate(0.000000, 18.000000)">
                <mask id="mask-3" fill="white">
                    <use xlink:href="#path-2"></use>
                </mask>
                <g id="Clip-330"></g>
                <path d="M69.916,0.82 C60.989,0.82 54.092,0.82 51.519,0.82 C41.295,0.82 23.979,25.984 23.979,25.984 C23.979,25.984 12.808,27.855 5.499,32.23 C-1.814,36.614 1.109,54.143 1.109,54.143 L12.432,54.143 C12.432,46.877 18.326,41.004 25.588,41.004 C32.848,41.004 38.731,46.877 38.731,54.143 L69.964,54.143 L69.964,50.579 L69.916,50.579 L69.916,0.82" id="Fill-329" fill="#FFA511" mask="url(#mask-3)"></path>
                <polygon id="Fill-332" fill="#E9EBFF" mask="url(#mask-3)" points="-0.686 44.526 5.367 44.526 5.367 34.694 -0.686 34.694"></polygon>
            </g>
            <rect id="Rectangle" fill="#FF3939" x="199.7" y="60" width="5" height="7"></rect>
            <g id="Group-335" transform="translate(30.000000, 22.000000)">
                <mask id="mask-5" fill="white">
                    <use xlink:href="#path-4"></use>
                </mask>
                <g id="Clip-334"></g>
                <path d="M36.446,19.741 L0.193,19.741 C0.193,19.741 13.246,0.381 20.506,0.381 C27.766,0.381 36.451,0.381 36.451,0.381 L36.446,19.741" id="Fill-333" fill="#E9EBFF" mask="url(#mask-5)"></path>
            </g>
            <polygon id="Fill-336" fill="#0A0B09" points="39.556 73.679 73.964 73.679 73.964 69.241 39.556 69.241"></polygon>
            <polygon id="Fill-337" fill="#0A0B09" points="71.425 73.079 206.943 73.079 206.943 69.241 71.425 69.241"></polygon>
            <polygon id="Fill-338" fill="#0A0B09" points="71.425 57.248 213.719 57.248 213.719 54.841 71.425 54.841"></polygon>
            <g id="Group-341" transform="translate(157.000000, 60.000000)">
                <mask id="mask-7" fill="white">
                    <use xlink:href="#path-6"></use>
                </mask>
                <g id="Clip-340"></g>
                <path d="M16.696,0.434 C7.527,0.434 0.098,7.871 0.098,17.028 C0.098,26.19 7.527,33.627 16.696,33.627 C25.852,33.627 33.282,26.19 33.282,17.028 C33.289,7.874 25.852,0.434 16.696,0.434" id="Fill-339" fill="#0A0B09" mask="url(#mask-7)"></path>
            </g>
            <g id="Group-344" transform="translate(164.000000, 68.000000)">
                <path d="M9.49869416,19 C4.23876289,19 0,14.7423042 0,9.48495283 C0,4.2459197 4.25051546,0 9.49869416,0 C14.7390378,0 19,4.2459197 19,9.48495283 C19,14.723986 14.7468729,19 9.49869416,19" id="Fill-342" fill="#FFFFFF"></path>
                <path d="M9.49958763,12.5 C7.8385567,12.5 6.5,11.1554645 6.5,9.49524826 C6.5,7.84081675 7.84226804,6.5 9.49958763,6.5 C11.154433,6.5 12.5,7.84081675 12.5,9.49524826 C12.5,11.1496798 11.1569072,12.5 9.49958763,12.5" id="Fill-342-Copy" fill="#010101"></path>
            </g>
            <g id="Group-347" transform="translate(10.000000, 58.000000)" fill="url(#linearGradient-8)">
                <path d="M16.659,0.564 C7.498,0.564 0.073,8 0.073,17.157 C0.073,26.32 7.498,33.755 16.659,33.755 C25.813,33.755 33.248,26.32 33.248,17.157 C33.248,8.006 25.813,0.564 16.659,0.564" id="Fill-345"></path>
            </g>
            <g id="Group-350" transform="translate(17.000000, 66.000000)">
                <path d="M9.5,19 C4.26010726,19 0,14.7409958 0,9.48495283 C0,4.24722815 4.26010726,0 9.5,0 C14.7307481,0 19,4.24722815 19,9.48495283 C19,14.7266029 14.7307481,19 9.5,19" id="Fill-348" fill="#FFFFFF"></path>
                <path d="M9.5,12.5 C7.84529703,12.5 6.5,11.1550513 6.5,9.49524826 C6.5,7.84122994 7.84529703,6.5 9.5,6.5 C11.1518152,6.5 12.5,7.84122994 12.5,9.49524826 C12.5,11.1505062 11.1518152,12.5 9.5,12.5" id="Fill-348-Copy" fill="#010101"></path>
            </g>
        </g>
    </g>
</svg>