<?xml version="1.0" encoding="UTF-8"?>
<svg width="320px" height="98px" viewBox="0 0 320 98" version="1.1" xmlns="http://www.w3.org/2000/svg" xmlns:xlink="http://www.w3.org/1999/xlink">
    <!-- Generator: Sketch 52.5 (67469) - http://www.bohemiancoding.com/sketch -->
    <title>Combined Shape</title>
    <desc>Created with Sketch.</desc>
    <g id="website" stroke="none" stroke-width="1" fill="none" fill-rule="evenodd">
        <g id="final_version" transform="translate(-1767.000000, -749.000000)" fill="#FFFFFF" stroke="#000000" stroke-width="3">
            <g id="Group-48" transform="translate(1606.000000, 751.000000)">
                <g id="Group-47" transform="translate(163.000000, 0.000000)">
                    <g id="Group-51">
                        <path d="M29.2315727,75.3647185 C23.9266862,81.7662864 17.1508159,87.1555624 8.90396176,91.5325464 C14.5405967,83.4020009 17.8204852,76.7585878 18.7436273,71.6023072 C7.5744433,65.4904459 0,53.629776 0,40 C0,20.117749 16.117749,4 36,4 C44.6267476,4 52.5447818,7.03436252 58.7450224,12.0940072 C62.6304391,4.89304144 70.243804,0 79,0 C86.9836953,0 94.0173132,4.06776503 98.1413519,10.2437933 C105.645539,3.85537635 115.372534,0 126,0 C136.185278,0 145.54346,3.54122187 152.910496,9.45961659 C159.603542,3.57121572 168.38472,0 178,0 C190.50283,0 201.595358,6.03821873 208.520519,15.3575896 C213.79873,11.3669251 220.372953,9 227.5,9 C229.976709,9 232.386658,9.28583491 234.698658,9.82631631 C239.834293,3.81260428 247.471906,0 256,0 C264.767235,0 272.593348,4.02942517 277.727438,10.3373752 C279.286277,10.1150321 280.879705,10 282.5,10 C301.001539,10 316,24.9984609 316,43.5 C316,62.0015391 301.001539,77 282.5,77 C278.141338,77 273.977096,76.16759 270.157574,74.65307 C265.117807,80.3836347 257.731227,84 249.5,84 C243.815849,84 238.534486,82.2754556 234.150589,79.3210431 C229.262774,83.4860702 222.924967,86 216,86 C206.120473,86 197.436015,80.8832986 192.452055,73.1553236 C187.99685,74.9887915 183.116515,76 178,76 C170.997556,76 164.437491,74.1059497 158.804168,70.8022124 C150.91667,80.0995235 139.1474,86 126,86 C114.937108,86 104.849988,81.8222289 97.2302587,74.9583079 C90.7628218,81.7599378 81.6265707,86 71.5,86 C61.2560345,86 52.0254827,81.66106 45.5458938,74.720729 C42.5057666,75.5546645 39.3048901,76 36,76 C33.6863945,76 31.4237638,75.7817512 29.2315727,75.3647185 Z" id="Combined-Shape"></path>
                    </g>
                </g>
            </g>
        </g>
    </g>
</svg>