<svg width="437" height="149" xmlns="http://www.w3.org/2000/svg"><path d="M42.994 130.91c-4.93 5.298-10.96 9.839-18.09 13.623 5.287-7.626 8.5-13.943 9.64-18.953-7.206-6.114-11.94-15.054-12.49-25.107C10.185 94.728 2 82.57 2 68.5c0-11.554 5.52-21.819 14.066-28.301A36.564 36.564 0 0 1 16 38C16 18.118 32.118 2 52 2a35.866 35.866 0 0 1 24.002 9.168A43.117 43.117 0 0 1 86 10c2.76 0 5.458.26 8.073.757A22.898 22.898 0 0 1 105 8c7.984 0 15.017 4.068 19.141 10.244A42.83 42.83 0 0 1 152 8a42.82 42.82 0 0 1 26.91 9.46A37.855 37.855 0 0 1 204 8c12.503 0 23.595 6.038 30.52 15.358A31.361 31.361 0 0 1 253.5 17c2.477 0 4.887.286 7.199.826C265.834 11.813 273.472 8 282 8a27.897 27.897 0 0 1 18.729 7.185C307.237 7.72 316.817 3 327.5 3c9.751 0 18.584 3.931 25 10.296C358.916 6.93 367.749 3 377.5 3c16.14 0 29.765 10.771 34.077 25.517 1.42-.338 2.9-.517 4.423-.517 10.493 0 19 8.507 19 19a18.955 18.955 0 0 1-6.455 14.27A35.34 35.34 0 0 1 433 78.5c0 18.944-14.839 34.423-33.527 35.446C393.728 125.815 381.57 134 367.5 134c-14.374 0-26.753-8.543-32.336-20.83a35.906 35.906 0 0 1-11.418.633C321.009 120.938 314.096 126 306 126a18.92 18.92 0 0 1-11.798-4.106C287.695 129.314 278.145 134 267.5 134c-11.365 0-21.483-5.34-27.98-13.65A18.942 18.942 0 0 1 226 126c-3.758 0-7.26-1.09-10.21-2.973-2.66.636-5.435.973-8.29.973a35.334 35.334 0 0 1-19.03-5.526C186.46 126.808 178.952 133 170 133c-6.097 0-11.523-2.872-15-7.337-3.477 4.465-8.903 7.337-15 7.337-4.932 0-9.426-1.88-12.803-4.961A35.335 35.335 0 0 1 107.5 134c-9.751 0-18.584-3.931-25-10.296C76.084 130.07 67.251 134 57.5 134a35.374 35.374 0 0 1-14.506-3.09z" fill="#FFF" stroke="#000" stroke-width="3" fill-rule="evenodd"/></svg>