<?xml version="1.0" encoding="UTF-8"?>
<svg width="437px" height="149px" viewBox="0 0 437 149" version="1.1" xmlns="http://www.w3.org/2000/svg" xmlns:xlink="http://www.w3.org/1999/xlink">
    <!-- Generator: Sketch 52.5 (67469) - http://www.bohemiancoding.com/sketch -->
    <title>Combined Shape</title>
    <desc>Created with Sketch.</desc>
    <g id="website" stroke="none" stroke-width="1" fill="none" fill-rule="evenodd">
        <g id="final_version" transform="translate(-3055.000000, -686.000000)" fill="#FFFFFF" stroke="#000000" stroke-width="3">
            <g id="Group-47-Copy" transform="translate(3057.000000, 688.000000)">
                <path d="M40.9944322,128.910856 C36.0636776,134.207999 30.0335208,138.748562 22.9039618,142.532546 C28.190517,134.906972 31.4039802,128.589542 32.5443512,123.580254 C25.3382326,117.465636 20.6044806,108.526144 20.0538766,98.4725581 C8.1853275,92.7282284 0,80.570007 0,66.5 C0,54.9459577 5.51969826,44.68111 14.0660239,38.1985278 C14.0222213,37.471293 14,36.7382415 14,36 C14,16.117749 30.117749,0 50,0 C59.2211687,0 67.6325923,3.46693118 74.0018971,9.16841996 C77.2101802,8.40445008 80.5578579,8 84,8 C86.7593042,8 89.4579055,8.25990013 92.0726592,8.75655571 C95.3231378,6.9982582 99.0449911,6 103,6 C110.983695,6 118.017313,10.067765 122.141352,16.2437933 C129.645539,9.85537635 139.372534,6 150,6 C160.185278,6 169.54346,9.54122187 176.910496,15.4596166 C183.603542,9.57121572 192.38472,6 202,6 C214.50283,6 225.595358,12.0382187 232.520519,21.3575896 C237.79873,17.3669251 244.372953,15 251.5,15 C253.976709,15 256.386658,15.2858349 258.698658,15.8263163 C263.834293,9.81260428 271.471906,6 280,6 C287.201223,6 293.767505,8.71850586 298.728577,13.1852485 C305.236623,5.71858771 314.817269,1 325.5,1 C335.251129,1 344.084009,4.93149054 350.5,11.2958311 C356.915991,4.93149054 365.748871,1 375.5,1 C391.640158,1 405.264574,11.7711734 409.577205,26.5174768 C410.996349,26.1791334 412.477255,26 414,26 C424.49341,26 433,34.5065898 433,45 C433,50.6854269 430.502829,55.7876082 426.545469,59.2695612 C429.383444,64.3720491 431,70.2472411 431,76.5 C431,95.444202 416.161156,110.922606 397.472558,111.946123 C391.728228,123.814672 379.570007,132 365.5,132 C351.125584,132 338.746573,123.456657 333.163654,111.170659 C330.695592,111.713738 328.131226,112 325.5,112 C324.231871,112 322.979273,111.933507 321.745501,111.803818 C319.009024,118.936574 312.095825,124 304,124 C299.542135,124 295.442844,122.464761 292.202004,119.894159 C285.695348,127.314851 276.144812,132 265.5,132 C254.134681,132 244.016785,126.659146 237.519202,118.350328 C234.074438,121.838393 229.289654,124 224,124 C220.242227,124 216.739246,122.909104 213.790473,121.026728 C211.130752,121.663041 208.354726,122 205.5,122 C198.498404,122 191.970227,119.973057 186.47025,116.473956 C184.458608,124.808484 176.952357,131 168,131 C161.90293,131 156.476621,128.128132 153,123.663322 C149.523379,128.128132 144.09707,131 138,131 C133.0677,131 128.574359,129.120591 125.197043,126.03884 C119.561099,129.804474 112.786946,132 105.5,132 C95.748871,132 86.9159908,128.068509 80.5,121.704169 C74.0840092,128.068509 65.251129,132 55.5,132 C50.332604,132 45.4230741,130.895944 40.9944322,128.910856 Z" id="Combined-Shape"></path>
            </g>
        </g>
    </g>
</svg>