<?xml version="1.0" encoding="UTF-8"?>
<svg width="294px" height="137px" viewBox="0 0 294 137" version="1.1" xmlns="http://www.w3.org/2000/svg" xmlns:xlink="http://www.w3.org/1999/xlink">
    <!-- Generator: Sketch 52.5 (67469) - http://www.bohemiancoding.com/sketch -->
    <title>home_jpg</title>
    <desc>Created with Sketch.</desc>
    <g id="website" stroke="none" stroke-width="1" fill="none" fill-rule="evenodd">
        <g id="home_jpg">
            <g id="Group-12">
                <path d="M1.5,135.5 L150.5,135.5 L150.5,25 C150.5,24.7238576 150.276142,24.5 150,24.5 L44.5,24.5 L44.5,1.5 L2,1.5 C1.72385763,1.5 1.5,1.72385763 1.5,2 L1.5,135.5 Z" id="Rectangle" stroke="#1B1B1B" stroke-width="3" fill="#FFFFFF"></path>
                <g id="Group-10" transform="translate(16.000000, 28.000000)">
                    <rect id="XMLID_2525_" fill="#1B1B1B" x="36.45" y="58.2989882" width="3.14285714" height="9.23355818"></rect>
                    <rect id="XMLID_2523_" fill="#FFFFFF" x="47.5285714" y="58.2989882" width="13.1428571" height="9.23355818"></rect>
                    <rect id="XMLID_2521_" fill="#1B1B1B" x="58.5678571" y="58.2989882" width="3.14285714" height="9.23355818"></rect>
                    <rect id="XMLID_2519_" fill="#1B1B1B" x="69.6464286" y="58.2989882" width="3.14285714" height="9.23355818"></rect>
                    <rect id="XMLID_2517_" fill="#1B1B1B" x="80.6857143" y="58.2989882" width="3.14285714" height="9.23355818"></rect>
                    <rect id="XMLID_2515_" fill="#1B1B1B" x="91.7642857" y="58.2989882" width="3.14285714" height="9.23355818"></rect>
                    <rect id="XMLID_2513_" fill="#1B1B1B" x="36.45" y="77.7091062" width="3.14285714" height="9.23355818"></rect>
                    <rect id="XMLID_2511_" fill="#1B1B1B" x="47.5285714" y="77.7091062" width="3.14285714" height="9.23355818"></rect>
                    <g id="Group-11" fill="#FFA511">
                        <rect id="XMLID_2525_-Copy" x="0.45" y="39.2989882" width="3.14285714" height="9.23355818"></rect>
                        <rect id="XMLID_2523_-Copy" x="11.5285714" y="39.2989882" width="3.14285714" height="9.23355818"></rect>
                        <rect id="XMLID_2513_-Copy" x="0.45" y="58.7091062" width="3.14285714" height="9.23355818"></rect>
                        <rect id="XMLID_2511_-Copy" x="11.5285714" y="58.7091062" width="3.14285714" height="9.23355818"></rect>
                        <rect id="XMLID_2525_-Copy-3" x="0.45" y="0.298988196" width="13.1428571" height="9.23355818"></rect>
                        <rect id="XMLID_2523_-Copy-3" x="11.5285714" y="0.298988196" width="3.14285714" height="9.23355818"></rect>
                        <rect id="XMLID_2513_-Copy-2" x="0.45" y="19.7091062" width="3.14285714" height="9.23355818"></rect>
                        <rect id="XMLID_2511_-Copy-2" x="11.5285714" y="19.7091062" width="3.14285714" height="9.23355818"></rect>
                        <rect id="XMLID_2525_-Copy-2" x="0.45" y="78.2989882" width="3.14285714" height="9.23355818"></rect>
                        <rect id="XMLID_2523_-Copy-2" x="11.5285714" y="78.2989882" width="3.14285714" height="9.23355818"></rect>
                    </g>
                    <rect id="XMLID_2509_" fill="#1B1B1B" x="58.5678571" y="77.7091062" width="3.14285714" height="9.23355818"></rect>
                    <rect id="XMLID_2507_" fill="#1B1B1B" x="69.6464286" y="77.7091062" width="3.14285714" height="9.23355818"></rect>
                    <rect id="XMLID_2525_-Copy-4" fill="#1B1B1B" x="36.45" y="19.2989882" width="3.14285714" height="9.23355818"></rect>
                    <rect id="XMLID_2523_-Copy-4" fill="#1B1B1B" x="47.5285714" y="19.2989882" width="3.14285714" height="9.23355818"></rect>
                    <rect id="XMLID_2521_-Copy" fill="#1B1B1B" x="58.5678571" y="19.2989882" width="3.14285714" height="9.23355818"></rect>
                    <rect id="XMLID_2519_-Copy" fill="#1B1B1B" x="69.6464286" y="19.2989882" width="3.14285714" height="9.23355818"></rect>
                    <rect id="XMLID_2513_-Copy-3" fill="#1B1B1B" x="36.45" y="38.7091062" width="3.14285714" height="9.23355818"></rect>
                    <rect id="XMLID_2511_-Copy-3" fill="#1B1B1B" x="47.5285714" y="38.7091062" width="3.14285714" height="9.23355818"></rect>
                    <rect id="XMLID_2509_-Copy" fill="#1B1B1B" x="58.5678571" y="38.7091062" width="3.14285714" height="9.23355818"></rect>
                    <rect id="XMLID_2507_-Copy" fill="#FFFFFF" x="69.6464286" y="38.7091062" width="12.1428571" height="9.23355818"></rect>
                    <rect id="XMLID_2505_" fill="#1B1B1B" x="80.6857143" y="77.7091062" width="3.14285714" height="9.23355818"></rect>
                    <rect id="XMLID_2503_" fill="#FFFFFF" x="91.7642857" y="77.7091062" width="13.1428571" height="9.23355818"></rect>
                    <rect id="XMLID_2517_-Copy" fill="#1B1B1B" x="103.685714" y="58.2989882" width="3.14285714" height="9.23355818"></rect>
                    <rect id="XMLID_2515_-Copy" fill="#1B1B1B" x="114.764286" y="58.2989882" width="3.14285714" height="9.23355818"></rect>
                    <rect id="XMLID_2505_-Copy" fill="#1B1B1B" x="103.685714" y="77.7091062" width="3.14285714" height="9.23355818"></rect>
                    <rect id="XMLID_2503_-Copy" fill="#1B1B1B" x="114.764286" y="77.7091062" width="3.14285714" height="9.23355818"></rect>
                    <rect id="XMLID_2517_-Copy-3" fill="#1B1B1B" x="80.6857143" y="19.2989882" width="3.14285714" height="9.23355818"></rect>
                    <rect id="XMLID_2515_-Copy-3" fill="#1B1B1B" x="91.7642857" y="19.2989882" width="3.14285714" height="9.23355818"></rect>
                    <rect id="XMLID_2505_-Copy-3" fill="#1B1B1B" x="80.6857143" y="38.7091062" width="3.14285714" height="9.23355818"></rect>
                    <rect id="XMLID_2503_-Copy-3" fill="#1B1B1B" x="91.7642857" y="38.7091062" width="3.14285714" height="9.23355818"></rect>
                    <rect id="XMLID_2517_-Copy-2" fill="#1B1B1B" x="103.685714" y="19.2989882" width="3.14285714" height="9.23355818"></rect>
                    <rect id="XMLID_2515_-Copy-2" fill="#1B1B1B" x="114.764286" y="19.2989882" width="3.14285714" height="9.23355818"></rect>
                    <rect id="XMLID_2505_-Copy-2" fill="#1B1B1B" x="103.685714" y="38.7091062" width="3.14285714" height="9.23355818"></rect>
                    <rect id="XMLID_2503_-Copy-2" fill="#1B1B1B" x="114.764286" y="38.7091062" width="3.14285714" height="9.23355818"></rect>
                </g>
            </g>
            <g id="icon" transform="translate(161.000000, 64.000000)">
                <path d="M59.2631579,42.7777778 L59.2631579,1.94444444 C59.2631579,0.865886389 58.3959714,0 57.3157895,0 L6.68421053,0 C5.611637,0 4.73684211,0.865886389 4.73684211,1.94444444 L4.73684211,42.7777778 L59.2631579,42.7777778 Z" id="Path" stroke="#000000" stroke-width="3" fill="#FFFFFF"></path>
                <path d="M14.4736842,58.3333333 C14.4736842,57.2547753 13.6064977,56.3888889 12.5263158,56.3888889 L6.68421053,56.3888889 C5.60403058,56.3888889 4.73684211,57.2547753 4.73684211,58.3333333 L4.73684211,68.0555556 C4.73684211,69.1341156 5.60403058,70 6.68421053,70 L12.5263158,70 C13.6064977,70 14.4736842,69.1341156 14.4736842,68.0555556 L14.4736842,58.3333333 Z" id="Path" fill="#0A0B09"></path>
                <path d="M59.2631579,58.3333333 C59.2631579,57.2547753 58.3959714,56.3888889 57.3157895,56.3888889 L51.4736842,56.3888889 C50.3935043,56.3888889 49.5263158,57.2547753 49.5263158,58.3333333 L49.5263158,68.0555556 C49.5263158,69.1341156 50.3935043,70 51.4736842,70 L57.3157895,70 C58.3959714,70 59.2631579,69.1341156 59.2631579,68.0555556 L59.2631579,58.3333333 Z" id="Path" fill="#0A0B09"></path>
                <path d="M61.2105263,42.7777778 C61.2105263,40.6282547 59.4685449,38.8888889 57.3157895,38.8888889 L6.68421053,38.8888889 C4.53145511,38.8888889 2.78947368,40.6282547 2.78947368,42.7777778 L2.78947368,58.3333333 C2.78947368,60.4828564 4.53145511,62.2222222 6.68421053,62.2222222 L57.3157895,62.2222222 C59.4685449,62.2222222 61.2105263,60.4828564 61.2105263,58.3333333 L61.2105263,42.7777778 Z" id="Path" stroke="#000000" stroke-width="3" fill="#FFA511"></path>
                <polygon id="Path" fill="#E9EBFF" transform="translate(9.631579, 51.611111) rotate(-315.000000) translate(-9.631579, -51.611111) " points="14.9405294 53.0253247 11.0457925 56.9142136 4.32262854 50.1968975 8.21736538 46.3080087"></polygon>
                <polygon id="Path" fill="#E9EBFF" transform="translate(54.368421, 51.611111) rotate(-45.000000) translate(-54.368421, -51.611111) " points="59.6773715 50.1968975 52.9542075 56.9142136 49.0594706 53.0253247 55.7826346 46.3080087"></polygon>
                <path d="M64,31.2222222 C64,32.3007822 63.1328135,33.1666667 62.0526316,33.1666667 L58.1578947,33.1666667 C57.0777148,33.1666667 56.2105263,32.3007822 56.2105263,31.2222222 L56.2105263,19.5555556 C56.2105263,18.4769975 57.0777148,17.6111111 58.1578947,17.6111111 L62.0526316,17.6111111 C63.1328135,17.6111111 64,18.4769975 64,19.5555556 L64,31.2222222 Z" id="Path" fill="#0A0B09"></path>
                <path d="M0,31.2222222 C0,32.3007822 0.874794895,33.1666667 1.94736842,33.1666667 L5.84210526,33.1666667 C6.91467879,33.1666667 7.78947368,32.3007822 7.78947368,31.2222222 L7.78947368,19.5555556 C7.78947368,18.4769975 6.91467879,17.6111111 5.84210526,17.6111111 L1.94736842,17.6111111 C0.874794895,17.6111111 0,18.4769975 0,19.5555556 L0,31.2222222 Z" id="Path" fill="#0A0B09"></path>
                <rect id="Rectangle" fill="#0A0B09" x="6" y="24" width="8" height="3"></rect>
                <rect id="Rectangle-Copy" fill="#0A0B09" x="51" y="24" width="8" height="3"></rect>
                <path d="M53.4210526,42.7777778 L10.5789474,42.7777778 L10.5789474,13.6111111 C10.5789474,11.4615881 12.3209288,9.72222222 14.4736842,9.72222222 L49.5263158,9.72222222 C51.6790712,9.72222222 53.4210526,11.4615881 53.4210526,13.6111111 L53.4210526,42.7777778 Z" id="Path" fill="#FFA511"></path>
                <path d="M49.5263158,15.5555556 C49.5263158,14.4769975 48.6591293,13.6111111 47.5789474,13.6111111 L16.4210526,13.6111111 C15.3484791,13.6111111 14.4736842,14.4769975 14.4736842,15.5555556 L14.4736842,31.1111111 C14.4736842,32.1896711 15.3484791,33.0555556 16.4210526,33.0555556 L47.5789474,33.0555556 C48.6591293,33.0555556 49.5263158,32.1896711 49.5263158,31.1111111 L49.5263158,15.5555556 Z" id="Path" fill="#E9EBFF"></path>
                <polygon id="Path" fill="#FFA511" points="16.4210526 38.8888889 47.5789474 38.8888889 47.5789474 58.3333333 16.4210526 58.3333333"></polygon>
                <polygon id="Path" fill="#000000" points="16.4210526 42.7777778 47.5789474 42.7777778 47.5789474 46.6666667 16.4210526 46.6666667"></polygon>
                <polygon id="Path" fill="#000000" points="16.4210526 50.5555556 47.5789474 50.5555556 47.5789474 54.4444444 16.4210526 54.4444444"></polygon>
            </g>
            <g id="icon-copy" transform="translate(233.000000, 70.000000)">
                <path d="M55.2631581,36.777778 L55.2631581,1.67171718 C55.2631581,0.744437393 54.4595876,0 53.4586468,0 L6.54135339,0 C5.54746286,0 4.73684211,0.744437393 4.73684211,1.67171718 L4.73684211,36.777778 L55.2631581,36.777778 Z" id="Path" stroke="#000000" stroke-width="3" fill="#FFFFFF"></path>
                <path d="M12.4736842,52.3333333 C12.4736842,51.2547753 11.6064977,50.3888889 10.5263158,50.3888889 L4.68421053,50.3888889 C3.60403058,50.3888889 2.73684211,51.2547753 2.73684211,52.3333333 L2.73684211,62.0555556 C2.73684211,63.1341156 3.60403058,64 4.68421053,64 L10.5263158,64 C11.6064977,64 12.4736842,63.1341156 12.4736842,62.0555556 L12.4736842,52.3333333 Z" id="Path" fill="#0A0B09"></path>
                <path d="M57.2631579,52.3333333 C57.2631579,51.2547753 56.3959714,50.3888889 55.3157895,50.3888889 L49.4736842,50.3888889 C48.3935043,50.3888889 47.5263158,51.2547753 47.5263158,52.3333333 L47.5263158,62.0555556 C47.5263158,63.1341156 48.3935043,64 49.4736842,64 L55.3157895,64 C56.3959714,64 57.2631579,63.1341156 57.2631579,62.0555556 L57.2631579,52.3333333 Z" id="Path" fill="#0A0B09"></path>
                <path d="M59.2105263,36.7777778 C59.2105263,34.6282547 57.4685449,32.8888889 55.3157895,32.8888889 L4.68421053,32.8888889 C2.53145511,32.8888889 0.789473684,34.6282547 0.789473684,36.7777778 L0.789473684,52.3333333 C0.789473684,54.4828564 2.53145511,56.2222222 4.68421053,56.2222222 L55.3157895,56.2222222 C57.4685449,56.2222222 59.2105263,54.4828564 59.2105263,52.3333333 L59.2105263,36.7777778 Z" id="Path" stroke="#000000" stroke-width="3" fill="#FFA511"></path>
                <path d="M60.0000003,26.9722226 C60.0000003,27.6347666 58.7988298,28.1666671 57.3026318,28.1666671 L51.9078948,28.1666671 C50.4116996,28.1666671 49.2105263,27.6347666 49.2105263,26.9722226 L49.2105263,19.8055556 C49.2105263,19.1430128 50.4116996,18.6111111 51.9078948,18.6111111 L57.3026318,18.6111111 C58.7988298,18.6111111 60.0000003,19.1430128 60.0000003,19.8055556 L60.0000003,26.9722226 Z" id="Path" fill="#0A0B09"></path>
                <path d="M0,26.9722226 C0,27.6347666 1.21170918,28.1666671 2.6973685,28.1666671 L8.0921055,28.1666671 C9.57776482,28.1666671 10.789474,27.6347666 10.789474,26.9722226 L10.789474,19.8055556 C10.789474,19.1430128 9.57776482,18.6111111 8.0921055,18.6111111 L2.6973685,18.6111111 C1.21170918,18.6111111 0,19.1430128 0,19.8055556 L0,26.9722226 Z" id="Path" fill="#0A0B09"></path>
                <path d="M56.4210526,36.7777778 L3.57894737,36.7777778 L10.5789474,10.6111111 C10.5789474,8.46158806 12.3209288,6.72222222 14.4736842,6.72222222 L45.5263158,6.72222222 C47.6790712,6.72222222 49.4210526,8.46158806 49.4210526,10.6111111 L56.4210526,36.7777778 Z" id="Path" fill="#FFA511"></path>
                <polygon id="Path" fill="#E9EBFF" transform="translate(7.631579, 42.611111) rotate(-315.000000) translate(-7.631579, -42.611111) " points="12.9405294 44.0253247 9.04579251 47.9142136 2.32262854 41.1968975 6.21736538 37.3080087"></polygon>
                <polygon id="Path" fill="#E9EBFF" transform="translate(52.368421, 42.611111) rotate(-45.000000) translate(-52.368421, -42.611111) " points="57.6773715 41.1968975 50.9542075 47.9142136 47.0594706 44.0253247 53.7826346 37.3080087"></polygon>
                <path d="M45.5263158,13.5555556 C45.5263158,12.4769975 44.6591293,11.6111111 43.5789474,11.6111111 L16.4210526,11.6111111 C15.3484791,11.6111111 14.4736842,12.4769975 14.4736842,13.5555556 L11.4736842,25.1111111 C11.4736842,26.1896711 12.3484791,27.0555556 13.4210526,27.0555556 L46.5789474,27.0555556 C47.6591293,27.0555556 48.5263158,26.1896711 48.5263158,25.1111111 L45.5263158,13.5555556 Z" id="Path" fill="#E9EBFF"></path>
                <polygon id="Path" fill="#FFA511" points="14.4210526 32.8888889 45.5789474 32.8888889 45.5789474 52.3333333 14.4210526 52.3333333"></polygon>
                <polygon id="Path" fill="#000000" points="14.4210526 40.7777778 45.5789474 40.7777778 45.5789474 44.6666667 14.4210526 44.6666667"></polygon>
            </g>
            <g id="Group-4" transform="translate(53.000000, 2.000000)">
                <g id="Group-13">
                    <g>
                        <path d="M30.4787524,0.818181818 C32.7061504,0.818181818 34.4630802,1.50358797 35.7495946,2.87442083 C37.036109,4.2452537 37.6793565,6.23436945 37.6793565,8.84182777 C37.6793565,11.4109411 36.9977062,13.4431943 35.634385,14.9386483 C34.2710637,16.4341024 32.3509218,17.1818182 29.8739016,17.1818182 C28.8178077,17.1818182 27.8625371,17.0380267 27.0080612,16.7504394 C26.1535852,16.4628521 25.3327245,16.0314776 24.5454545,15.4563029 L26.6768334,12.5804442 C27.2336829,12.9255489 27.7329198,13.1699945 28.174559,13.3137881 C28.6161983,13.4575818 29.1058345,13.5294776 29.6434823,13.5294776 C30.4307523,13.5294776 31.0836005,13.2754459 31.6020466,12.767375 C32.1204927,12.2593041 32.4277154,11.4301064 32.523724,10.2797571 L27.2528817,10.2797571 L27.2528817,7.46141556 L32.4949215,7.46141556 C32.4181147,6.38775625 32.1732966,5.62086825 31.7604599,5.16072855 C31.3476232,4.70058885 30.776381,4.47052245 30.0467161,4.47052245 C29.5090683,4.47052245 29.0050311,4.54721125 28.5345892,4.70059115 C28.0641474,4.85397105 27.5697109,5.10320965 27.0512648,5.44831443 L24.8910835,2.65873143 C26.4272201,1.43169222 28.2897578,0.818181818 30.4787524,0.818181818 Z M52.2393294,1.3358364 L51.5768738,5.07445279 L47.6885475,5.07445279 L47.6885475,16.6641636 L42.5617174,16.6641636 L42.5617174,5.07445279 L38.2413549,5.07445279 L38.2413549,1.3358364 L52.2393294,1.3358364 Z M65.6472055,11.9477552 C65.6472055,12.5037574 65.7192108,12.9159597 65.8632236,13.1843745 C66.0072364,13.4527893 66.2616552,13.6540974 66.6264877,13.7883048 L65.5896007,17.0955424 C64.6103136,17.0188525 63.8086544,16.8175444 63.1845989,16.4916121 C62.5605434,16.1656798 62.0565062,15.6480304 61.672472,14.9386483 C60.693185,16.4341024 59.1474707,17.1818182 57.0352829,17.1818182 C55.5183481,17.1818182 54.3038583,16.7360645 53.3917772,15.8445439 C52.4796962,14.9530232 52.0236624,13.7978981 52.0236624,12.379134 C52.0236624,10.6919551 52.6477086,9.39783163 53.8958195,8.49672472 C55.1439305,7.5956178 56.9488639,7.1450711 59.3106739,7.1450711 L60.635585,7.1450711 L60.635585,6.62741652 C60.635585,5.80299955 60.4627723,5.2422127 60.1171415,4.94503914 C59.7715108,4.64786559 59.1474647,4.49928104 58.2449844,4.49928104 C57.7649418,4.49928104 57.1648974,4.57117679 56.4448334,4.71497044 C55.7247694,4.8587641 54.9903151,5.05527915 54.2414485,5.30452149 L53.1181543,1.99728391 C54.0398362,1.61383416 55.0287093,1.32145811 56.0848032,1.12014699 C57.1408971,0.918835868 58.1201695,0.818181818 59.0226497,0.818181818 C61.3268545,0.818181818 63.0069787,1.27352157 64.0630726,2.18421473 C65.1191665,3.09490789 65.6472055,4.48968544 65.6472055,6.36858923 L65.6472055,11.9477552 Z M58.5906134,13.5869947 C59.013051,13.5869947 59.4018797,13.4767546 59.7571113,13.256271 C60.1123429,13.0357874 60.4051645,12.7338252 60.635585,12.3503755 L60.635585,9.87713692 L59.7715125,9.87713692 C58.8498306,9.87713692 58.1681802,10.0448937 57.7265409,10.3804122 C57.2849017,10.7159307 57.0640854,11.219201 57.0640854,11.8902381 C57.0640854,12.4078952 57.1984953,12.8200975 57.4673192,13.1268573 C57.7361431,13.4336171 58.1105708,13.5869947 58.5906134,13.5869947 Z M89.7119758,1.3358364 L86.2556858,8.46796613 L90,16.6641636 L84.8443674,16.6641636 L82.2809523,10.2509986 L81.1000533,10.2509986 L81.1000533,16.6641636 L76.6932835,16.6641636 L76.6932835,10.2509986 L75.5123844,10.2509986 L72.9489694,16.6641636 L67.8221392,16.6641636 L71.5376509,8.46796613 L68.1101634,1.3358364 L72.8913645,1.3358364 L75.4259772,7.28886404 L76.6932835,7.28886404 L76.6932835,1.3358364 L81.1000533,1.3358364 L81.1000533,7.28886404 L82.3673596,7.28886404 L84.9595771,1.3358364 L89.7119758,1.3358364 Z" id="этаж" fill="#1B1B1B"></path>
                        <g id="Group">
                            <rect id="Rectangle" fill="#1B1B1B" x="0" y="0" width="18" height="18" rx="0.9"></rect>
                            <polygon id="Rectangle-Copy-3" fill="#FFA511" points="6.3 0 11.7 0 11.7 5.85 9.9 5.85 9.9 7.65 8.1 7.65 8.1 9.45 6.3 9.45"></polygon>
                        </g>
                    </g>
                </g>
            </g>
        </g>
    </g>
</svg>