<?xml version="1.0" encoding="UTF-8"?>
<svg width="90px" height="91px" viewBox="0 0 90 91" version="1.1" xmlns="http://www.w3.org/2000/svg" xmlns:xlink="http://www.w3.org/1999/xlink">
    <!-- Generator: Sketch 52.5 (67469) - http://www.bohemiancoding.com/sketch -->
    <title>Group 65</title>
    <desc>Created with Sketch.</desc>
    <g id="website" stroke="none" stroke-width="1" fill="none" fill-rule="evenodd">
        <g id="final_version" transform="translate(-2387.000000, -814.000000)">
            <g id="Group-62" transform="translate(2305.000000, 814.000000)">
                <g id="Group-65" transform="translate(82.000000, 0.400000)">
                    <path d="M87.8428571,90.5281619 L54.8428571,90.5281619 C53.9785714,90.5281619 53.2714286,89.8209106 53.2714286,88.9564924 L53.2714286,9.98010118 C53.2714286,9.11568297 53.9785714,8.4084317 54.8428571,8.4084317 L87.8428571,8.4084317 C88.7071429,8.4084317 89.4142857,9.11568297 89.4142857,9.98010118 L89.4142857,88.9564924 C89.4142857,89.8209106 88.7071429,90.5281619 87.8428571,90.5281619 Z" id="XMLID_2743_" fill="#000000" fill-rule="nonzero"></path>
                    <path d="M54.8428571,90.5281619 L4.55714286,90.5281619 C3.69285714,90.5281619 2.98571429,89.8209106 2.98571429,88.9564924 L2.98571429,9.98010118 C2.98571429,9.11568297 3.69285714,8.4084317 4.55714286,8.4084317 L54.8428571,8.4084317 C55.7071429,8.4084317 56.4142857,9.11568297 56.4142857,9.98010118 L56.4142857,88.9564924 C56.4142857,89.8209106 55.7071429,90.5281619 54.8428571,90.5281619 Z" id="XMLID_2739_" fill="#000000" fill-rule="nonzero"></path>
                    <polygon id="XMLID_2743_-path" fill="#FFFFFF" fill-rule="nonzero" points="56.4142857 87.3848229 86.2714286 87.3848229 86.2714286 11.5517707 56.4142857 11.5517707"></polygon>
                    <polygon id="XMLID_2739_-path" fill="#FFFFFF" fill-rule="nonzero" points="6.12857143 87.3848229 53.2714286 87.3848229 53.2714286 11.5517707 6.12857143 11.5517707"></polygon>
                    <path d="M57.8285714,11.5517707 L1.57142857,11.5517707 C0.707142857,11.5517707 7.10542736e-15,10.8445194 7.10542736e-15,9.98010118 L7.10542736e-15,1.57166948 C7.10542736e-15,0.707251265 0.707142857,-4.13891144e-13 1.57142857,-4.13891144e-13 L57.8285714,-4.13891144e-13 C58.6928571,-4.13891144e-13 59.4,0.707251265 59.4,1.57166948 L59.4,9.98010118 C59.4,10.8445194 58.6928571,11.5517707 57.8285714,11.5517707 Z" id="XMLID_2735_" fill="#000000" fill-rule="nonzero"></path>
                    <polygon id="XMLID_2735_-path" fill="#FFFFFF" fill-rule="nonzero" points="3.14285714 8.4084317 56.2571429 8.4084317 56.2571429 3.14333895 3.14285714 3.14333895"></polygon>
                    <rect id="XMLID_2293_" fill="#FFA511" x="17.05" y="25.4610455" width="3.14285714" height="9.23355818"></rect>
                    <rect id="XMLID_2291_" fill="#000000" x="28.1285714" y="25.4610455" width="3.14285714" height="9.23355818"></rect>
                    <rect id="XMLID_2289_" fill="#FFA511" x="39.2071429" y="25.4610455" width="3.14285714" height="9.23355818"></rect>
                    <rect id="XMLID_2287_" fill="#000000" x="17.05" y="44.8711636" width="3.14285714" height="9.23355818"></rect>
                    <rect id="XMLID_2285_" fill="#FFA511" x="28.1285714" y="44.8711636" width="3.14285714" height="9.23355818"></rect>
                    <rect id="XMLID_2283_" fill="#000000" x="39.2071429" y="44.8711636" width="3.14285714" height="9.23355818"></rect>
                    <rect id="XMLID_2281_" fill="#000000" x="17.05" y="64.2419899" width="3.14285714" height="9.23355818"></rect>
                    <rect id="XMLID_2279_" fill="#000000" x="28.1285714" y="64.2419899" width="3.14285714" height="9.23355818"></rect>
                    <rect id="XMLID_2277_" fill="#FFA511" x="39.2071429" y="64.2419899" width="3.14285714" height="9.23355818"></rect>
                    <rect id="XMLID_2163_" fill="#000000" x="64.2321429" y="25.4610455" width="3.14285714" height="9.23355818"></rect>
                    <rect id="XMLID_2161_" fill="#FFA511" x="75.3107143" y="25.4610455" width="3.14285714" height="9.23355818"></rect>
                    <rect id="XMLID_2159_" fill="#FFA511" x="64.2321429" y="44.8711636" width="3.14285714" height="9.23355818"></rect>
                    <rect id="XMLID_2157_" fill="#000000" x="75.3107143" y="44.8711636" width="3.14285714" height="9.23355818"></rect>
                    <rect id="XMLID_2155_" fill="#000000" x="64.2321429" y="64.2419899" width="3.14285714" height="9.23355818"></rect>
                    <rect id="XMLID_2153_" fill="#FFA511" x="75.3107143" y="64.2419899" width="3.14285714" height="9.23355818"></rect>
                </g>
            </g>
        </g>
    </g>
</svg>