<?xml version="1.0" encoding="UTF-8"?>
<svg width="90px" height="101px" viewBox="0 0 90 101" version="1.1" xmlns="http://www.w3.org/2000/svg" xmlns:xlink="http://www.w3.org/1999/xlink">
    <!-- Generator: Sketch 52.5 (67469) - http://www.bohemiancoding.com/sketch -->
    <title>Group 65</title>
    <desc>Created with Sketch.</desc>
    <g id="website" stroke="none" stroke-width="1" fill="none" fill-rule="evenodd">
        <g id="final_version" transform="translate(-5538.000000, -812.000000)">
            <g id="Group-62" transform="translate(5447.000000, 812.000000)">
                <g id="Group-65" transform="translate(91.000000, 0.400000)">
                    <path d="M87.8428571,100.528162 L54.8428571,100.528162 C53.9785714,100.528162 53.2714286,99.8209106 53.2714286,98.9564924 L53.2714286,19.9801012 C53.2714286,19.115683 53.9785714,18.4084317 54.8428571,18.4084317 L87.8428571,18.4084317 C88.7071429,18.4084317 89.4142857,19.115683 89.4142857,19.9801012 L89.4142857,98.9564924 C89.4142857,99.8209106 88.7071429,100.528162 87.8428571,100.528162 Z" id="XMLID_2743_" fill="#000000" fill-rule="nonzero"></path>
                    <path d="M54.8428571,100.528162 L4.55714286,100.528162 C3.69285714,100.528162 2.98571429,99.8209106 2.98571429,98.9564924 L2.98571429,19.9801012 C2.98571429,19.115683 3.69285714,18.4084317 4.55714286,18.4084317 L54.8428571,18.4084317 C55.7071429,18.4084317 56.4142857,19.115683 56.4142857,19.9801012 L56.4142857,98.9564924 C56.4142857,99.8209106 55.7071429,100.528162 54.8428571,100.528162 Z" id="XMLID_2739_" fill="#000000" fill-rule="nonzero"></path>
                    <polygon id="XMLID_2743_-path" fill="#FFFFFF" fill-rule="nonzero" points="56.4142857 97.3848229 86.2714286 97.3848229 86.2714286 21.5517707 56.4142857 21.5517707"></polygon>
                    <polygon id="XMLID_2739_-path" fill="#FFFFFF" fill-rule="nonzero" points="6.12857143 97.3848229 53.2714286 97.3848229 53.2714286 21.5517707 6.12857143 21.5517707"></polygon>
                    <path d="M57.8285714,21.5517707 L1.57142857,21.5517707 C0.707142857,21.5517707 0,20.8445194 0,19.9801012 L0,11.5716695 C0,10.7072513 0.707142857,10 1.57142857,10 L29.7,1.77635684e-15 L57.8285714,10 C58.6928571,10 59.4,10.7072513 59.4,11.5716695 L59.4,19.9801012 C59.4,20.8445194 58.6928571,21.5517707 57.8285714,21.5517707 Z" id="XMLID_2735_" fill="#000000" fill-rule="nonzero"></path>
                    <polygon id="XMLID_2735_-path" fill="#FFFFFF" fill-rule="nonzero" points="3.14285714 18.4084317 56.2571429 18.4084317 56.2571429 13.143339 29.7 3.14333895 3.14285714 13.143339"></polygon>
                    <rect id="XMLID_2293_" fill="#FFA511" x="17.05" y="35.4610455" width="3.14285714" height="9.23355818"></rect>
                    <rect id="XMLID_2291_" fill="#000000" x="28.1285714" y="35.4610455" width="3.14285714" height="9.23355818"></rect>
                    <rect id="XMLID_2289_" fill="#FFA511" x="39.2071429" y="35.4610455" width="3.14285714" height="9.23355818"></rect>
                    <rect id="XMLID_2287_" fill="#000000" x="17.05" y="54.8711636" width="3.14285714" height="9.23355818"></rect>
                    <rect id="XMLID_2285_" fill="#FFA511" x="28.1285714" y="54.8711636" width="3.14285714" height="9.23355818"></rect>
                    <rect id="XMLID_2283_" fill="#000000" x="39.2071429" y="54.8711636" width="3.14285714" height="9.23355818"></rect>
                    <rect id="XMLID_2281_" fill="#000000" x="17.05" y="74.2419899" width="3.14285714" height="9.23355818"></rect>
                    <rect id="XMLID_2279_" fill="#000000" x="28.1285714" y="74.2419899" width="3.14285714" height="9.23355818"></rect>
                    <rect id="XMLID_2277_" fill="#FFA511" x="39.2071429" y="74.2419899" width="3.14285714" height="9.23355818"></rect>
                    <rect id="XMLID_2163_" fill="#000000" x="64.2321429" y="35.4610455" width="3.14285714" height="9.23355818"></rect>
                    <rect id="XMLID_2161_" fill="#FFA511" x="75.3107143" y="35.4610455" width="3.14285714" height="9.23355818"></rect>
                    <rect id="XMLID_2159_" fill="#FFA511" x="64.2321429" y="54.8711636" width="3.14285714" height="9.23355818"></rect>
                    <rect id="XMLID_2157_" fill="#000000" x="75.3107143" y="54.8711636" width="3.14285714" height="9.23355818"></rect>
                    <rect id="XMLID_2155_" fill="#000000" x="64.2321429" y="74.2419899" width="3.14285714" height="9.23355818"></rect>
                    <rect id="XMLID_2153_" fill="#FFA511" x="75.3107143" y="74.2419899" width="3.14285714" height="9.23355818"></rect>
                </g>
            </g>
        </g>
    </g>
</svg>