<?xml version="1.0" encoding="UTF-8"?>
<svg width="26px" height="18px" viewBox="0 0 26 18" version="1.1" xmlns="http://www.w3.org/2000/svg" xmlns:xlink="http://www.w3.org/1999/xlink">
    <!-- Generator: Sketch 52.5 (67469) - http://www.bohemiancoding.com/sketch -->
    <title>icon</title>
    <desc>Created with Sketch.</desc>
    <g id="website" stroke="none" stroke-width="1" fill="none" fill-rule="evenodd">
        <g id="final_version" transform="translate(-1586.000000, -230.000000)">
            <g id="Group-72" transform="translate(1574.000000, 221.000000)">
                <g id="Group-71">
                    <g id="Group-70" transform="translate(12.000000, 6.000000)">
                        <g id="icon" transform="translate(0.000000, 3.000000)">
                            <path d="M0,0 L0,1.6 L15.2,1.6 L15.2,13.6 L10.275,13.6 C9.9187504,12.225 8.6812504,11.2 7.2,11.2 C5.7187504,11.2 4.4812504,12.225 4.125,13.6 L3.2,13.6 L3.2,9.6 L1.6,9.6 L1.6,15.2 L4.125,15.2 C4.4812504,16.575 5.7187504,17.6 7.2,17.6 C8.6812504,17.6 9.9187504,16.575 10.275,15.2 L16.925,15.2 C17.2812504,16.575 18.5187504,17.6 20,17.6 C21.4812504,17.6 22.7187504,16.575 23.075,15.2 L25.6,15.2 L25.6,8.675 L25.55,8.55 L23.95,3.75 L23.775,3.2 L16.8,3.2 L16.8,0 L0,0 Z M0.8,3.2 L0.8,4.8 L8,4.8 L8,3.2 L0.8,3.2 Z M1.6,6.4 L1.6,8 L6.4,8 L6.4,6.4 L1.6,6.4 Z M7.2,12.8 C8.0937504,12.8 8.8,13.5062504 8.8,14.4 C8.8,15.2937504 8.0937504,16 7.2,16 C6.3062504,16 5.6,15.2937504 5.6,14.4 C5.6,13.5062504 6.3062504,12.8 7.2,12.8 Z M20,12.8 C20.8937504,12.8 21.6,13.5062504 21.6,14.4 C21.6,15.2937504 20.8937504,16 20,16 C19.1062504,16 18.4,15.2937504 18.4,14.4 C18.4,13.5062504 19.1062504,12.8 20,12.8 Z" id="Shape" fill="#1B1B1B"></path>
                            <path d="M16.8,4.8 L22.625,4.8 L24,8.9 L24,13.6 L23.075,13.6 C22.7187504,12.225 21.4812504,11.2 20,11.2 C18.5187504,11.2 17.2812504,12.225 16.925,13.6 L16.8,13.6 L16.8,4.8 Z" id="Path" fill="#FFA511"></path>
                        </g>
                    </g>
                </g>
            </g>
        </g>
    </g>
</svg>