<?xml version="1.0" encoding="UTF-8"?>
<svg width="24px" height="24px" viewBox="0 0 24 24" version="1.1" xmlns="http://www.w3.org/2000/svg" xmlns:xlink="http://www.w3.org/1999/xlink">
    <!-- Generator: Sketch 52.5 (67469) - http://www.bohemiancoding.com/sketch -->
    <title>icon_in</title>
    <desc>Created with Sketch.</desc>
    <g id="website" stroke="none" stroke-width="1" fill="none" fill-rule="evenodd">
        <g id="final_version" transform="translate(-2036.000000, -981.000000)">
            <g id="icon_in" transform="translate(2036.000000, 981.000000)">
                <rect id="Rectangle-Copy-14" fill="#F6F6F6" x="0" y="0" width="24" height="24"></rect>
                <path d="M8.88888889,5 C6.74144444,5 5,6.74144444 5,8.88888889 L5,15.1111111 C5,17.2585556 6.74144444,19 8.88888889,19 L15.1111111,19 C17.2585556,19 19,17.2585556 19,15.1111111 L19,8.88888889 C19,6.74144444 17.2585556,5 15.1111111,5 L8.88888889,5 Z M16.6666667,6.55555556 C17.096,6.55555556 17.4444444,6.904 17.4444444,7.33333333 C17.4444444,7.76266667 17.096,8.11111111 16.6666667,8.11111111 C16.2373333,8.11111111 15.8888889,7.76266667 15.8888889,7.33333333 C15.8888889,6.904 16.2373333,6.55555556 16.6666667,6.55555556 Z M12,8.11111111 C14.1474444,8.11111111 15.8888889,9.85255556 15.8888889,12 C15.8888889,14.1474444 14.1474444,15.8888889 12,15.8888889 C9.85255556,15.8888889 8.11111111,14.1474444 8.11111111,12 C8.11111111,9.85255556 9.85255556,8.11111111 12,8.11111111 Z M12,9.66666667 C10.7113356,9.66666667 9.66666667,10.7113356 9.66666667,12 C9.66666667,13.2886644 10.7113356,14.3333333 12,14.3333333 C13.2886644,14.3333333 14.3333333,13.2886644 14.3333333,12 C14.3333333,10.7113356 13.2886644,9.66666667 12,9.66666667 Z" id="Shape" fill="#1B1B1B" fill-rule="nonzero"></path>
            </g>
        </g>
    </g>
</svg>