<?xml version="1.0" encoding="UTF-8"?>
<svg width="26px" height="26px" viewBox="0 0 26 26" version="1.1" xmlns="http://www.w3.org/2000/svg" xmlns:xlink="http://www.w3.org/1999/xlink">
    <!-- Generator: Sketch 52.5 (67469) - http://www.bohemiancoding.com/sketch -->
    <title>Artboard</title>
    <desc>Created with Sketch.</desc>
    <g id="Artboard" stroke="none" stroke-width="1" fill="none" fill-rule="evenodd">
        <g id="Group-16" transform="translate(3.000000, 3.000000)" fill="#FFFFFF">
            <path d="M7.55,0.6 L10.4,3.45 L13.275,0.6 L14.4,1.725 L12.35,3.8 L20,3.8 L20,8.6 L19.2,8.6 L19.2,19.8 L1.6,19.8 L1.6,8.6 L0.8,8.6 L0.8,3.8 L8.45,3.8 L6.4,1.75 L7.55,0.6 Z M3.2,8.6 L3.2,18.2 L9.6,18.2 L9.6,8.6 L3.2,8.6 Z M11.2,8.6 L11.2,18.2 L17.6,18.2 L17.6,8.6 L11.2,8.6 Z M2.4,5.4 L2.4,7 L9.6,7 L9.6,5.4 L2.4,5.4 Z M11.2,5.4 L11.2,7 L18.4,7 L18.4,5.4 L11.2,5.4 Z" id="Combined-Shape"></path>
        </g>
    </g>
</svg>