<?xml version="1.0" encoding="UTF-8"?>
<svg width="26px" height="26px" viewBox="0 0 26 26" version="1.1" xmlns="http://www.w3.org/2000/svg" xmlns:xlink="http://www.w3.org/1999/xlink">
    <!-- Generator: Sketch 52.5 (67469) - http://www.bohemiancoding.com/sketch -->
    <title>Artboard</title>
    <desc>Created with Sketch.</desc>
    <g id="Artboard" stroke="none" stroke-width="1" fill="none" fill-rule="evenodd">
        <g id="Group-17" transform="translate(2.000000, 3.000000)">
            <polygon id="Rectangle" fill="#FFA511" points="3.2 2 17.6 2 17.6 10.8 16.0012248 6 4.84485109 6 3.2 10.8"></polygon>
            <path d="M1.6,0.4 L1.6,6 L3.2,6 L3.2,2 L17.6,2 L17.6,6 L19.2,6 L19.2,0.4 L1.6,0.4 Z M6.8,4.4 C5.7312504,4.4 4.7937504,5.1218752 4.5,6.15 L3.3,10.275 C2.3562504,10.6 1.6,11.3531248 1.6,12.4 L1.6,16.4 L3.2,16.4 L3.2,12.4 C3.2,11.9468752 3.5468752,11.6 4,11.6 L4.6,11.6 L4.775,11.025 L5.075,10 L15.725,10 L16.025,11.025 L16.2,11.6 L16.8,11.6 C17.2531248,11.6 17.6,11.9468752 17.6,12.4 L17.6,16.4 L19.2,16.4 L19.2,12.4 C19.2,11.3531248 18.4437504,10.6 17.5,10.275 L16.3,6.15 C16.0062504,5.1218752 15.0687504,4.4 14,4.4 L6.8,4.4 Z M6.8,6 L14,6 C14.3593752,6 14.65,6.2281248 14.75,6.575 L15.275,8.4 L5.5,8.4 L6.025,6.575 C6.125,6.2281248 6.4406248,6 6.8,6 Z M9.05941988e-14,6.8 L9.05941988e-14,10 L1.6,10 L1.6,6.8 L9.05941988e-14,6.8 Z M19.2,6.8 L19.2,10 L20.8,10 L20.8,6.8 L19.2,6.8 Z M8.8,11.6 C7.925,11.6 7.2,12.325 7.2,13.2 L7.2,15.6 L8.8,15.6 L8.8,13.2 L12,13.2 L12,15.6 L13.6,15.6 L13.6,13.2 C13.6,12.325 12.875,11.6 12,11.6 L8.8,11.6 Z M5.2,13.2 C4.5375,13.2 4,13.7375 4,14.4 C4,15.0625 4.5375,15.6 5.2,15.6 C5.8625,15.6 6.4,15.0625 6.4,14.4 C6.4,13.7375 5.8625,13.2 5.2,13.2 Z M15.6,13.2 C14.9375,13.2 14.4,13.7375 14.4,14.4 C14.4,15.0625 14.9375,15.6 15.6,15.6 C16.2625,15.6 16.8,15.0625 16.8,14.4 C16.8,13.7375 16.2625,13.2 15.6,13.2 Z M1.6,17.2 L1.6,18.8 C1.6,19.2406248 1.9593752,19.6 2.4,19.6 L4.8,19.6 L5.075,18.8 L15.725,18.8 L16,19.6 L18.4,19.6 C18.8406248,19.6 19.2,19.2406248 19.2,18.8 L19.2,17.2 L1.6,17.2 Z" id="Shape" fill="#000000" fill-rule="nonzero"></path>
        </g>
    </g>
</svg>