<?xml version="1.0" encoding="UTF-8"?>
<svg width="26px" height="26px" viewBox="0 0 26 26" version="1.1" xmlns="http://www.w3.org/2000/svg" xmlns:xlink="http://www.w3.org/1999/xlink">
    <!-- Generator: Sketch 52.5 (67469) - http://www.bohemiancoding.com/sketch -->
    <title>Artboard</title>
    <desc>Created with Sketch.</desc>
    <g id="Artboard" stroke="none" stroke-width="1" fill="none" fill-rule="evenodd">
        <g id="icon" transform="translate(0.000000, 4.000000)" fill="#FFFFFF">
            <path d="M-4.61852778e-14,1.81188398e-13 L16.8,1.81188398e-13 L16.8,3.2 L23.775,3.2 L23.95,3.75 L25.55,8.55 L25.6,8.675 L25.6,15.2 L23.075,15.2 C22.7187504,16.575 21.4812504,17.6 20,17.6 C18.5187504,17.6 17.2812504,16.575 16.925,15.2 L10.275,15.2 C9.9187504,16.575 8.6812504,17.6 7.2,17.6 C5.7187504,17.6 4.4812504,16.575 4.125,15.2 L1.6,15.2 L1.6,9.6 L3.2,9.6 L3.2,13.6 L4.125,13.6 C4.4812504,12.225 5.7187504,11.2 7.2,11.2 C8.6812504,11.2 9.9187504,12.225 10.275,13.6 L15.2,13.6 L15.2,1.6 L-4.61852778e-14,1.6 L-4.61852778e-14,1.81188398e-13 Z M0.8,3.2 L8,3.2 L8,4.8 L0.8,4.8 L0.8,3.2 Z M1.6,6.4 L6.4,6.4 L6.4,8 L1.6,8 L1.6,6.4 Z M7.2,12.8 C6.3062504,12.8 5.6,13.5062504 5.6,14.4 C5.6,15.2937504 6.3062504,16 7.2,16 C8.0937504,16 8.8,15.2937504 8.8,14.4 C8.8,13.5062504 8.0937504,12.8 7.2,12.8 Z M20,12.8 C19.1062504,12.8 18.4,13.5062504 18.4,14.4 C18.4,15.2937504 19.1062504,16 20,16 C20.8937504,16 21.6,15.2937504 21.6,14.4 C21.6,13.5062504 20.8937504,12.8 20,12.8 Z M16.8,4.8 L16.8,13.6 L16.925,13.6 C17.2812504,12.225 18.5187504,11.2 20,11.2 C21.4812504,11.2 22.7187504,12.225 23.075,13.6 L24,13.6 L24,8.9 L22.625,4.8 L16.8,4.8 Z" id="Combined-Shape"></path>
        </g>
    </g>
</svg>