<?xml version="1.0" encoding="UTF-8"?>
<svg width="26px" height="26px" viewBox="0 0 26 26" version="1.1" xmlns="http://www.w3.org/2000/svg" xmlns:xlink="http://www.w3.org/1999/xlink">
    <!-- Generator: Sketch 52.5 (67469) - http://www.bohemiancoding.com/sketch -->
    <title>Artboard</title>
    <desc>Created with Sketch.</desc>
    <g id="Artboard" stroke="none" stroke-width="1" fill="none" fill-rule="evenodd">
        <g id="Group-16" transform="translate(3.000000, 3.000000)">
            <path d="M7.55,0.6 L6.4,1.75 L8.45,3.8 L0.8,3.8 L0.8,8.6 L1.6,8.6 L1.6,19.8 L19.2,19.8 L19.2,8.6 L20,8.6 L20,3.8 L12.35,3.8 L14.4,1.725 L13.275,0.6 L10.4,3.45 L7.55,0.6 Z M3.2,8.6 L9.6,8.6 L9.6,18.2 L3.2,18.2 L3.2,8.6 Z M11.2,8.6 L17.6,8.6 L17.6,18.2 L11.2,18.2 L11.2,8.6 Z" id="Shape" fill="#1B1B1B"></path>
            <polygon id="Path" fill="#FFA511" points="2.4 5.4 9.6 5.4 9.6 7 2.4 7"></polygon>
            <polygon id="Path" fill="#FFA511" points="11.2 5.4 18.4 5.4 18.4 7 11.2 7"></polygon>
        </g>
    </g>
</svg>