<?xml version="1.0" encoding="UTF-8"?>
<svg width="27px" height="19px" viewBox="0 0 27 19" version="1.1" xmlns="http://www.w3.org/2000/svg" xmlns:xlink="http://www.w3.org/1999/xlink">
    <!-- Generator: Sketch 52.5 (67469) - http://www.bohemiancoding.com/sketch -->
    <title>Group 66</title>
    <desc>Created with Sketch.</desc>
    <g id="website" stroke="none" stroke-width="1" fill="none" fill-rule="evenodd">
        <g id="final_version" transform="translate(-1973.000000, -230.000000)">
            <g id="Group-72" transform="translate(1574.000000, 221.000000)">
                <g id="Group-71-Copy" transform="translate(387.000000, 0.000000)">
                    <g id="Group-70" transform="translate(12.000000, 6.000000)">
                        <g id="Group-66" transform="translate(0.000000, 3.000000)">
                            <g id="icon" transform="translate(20.500000, 9.500000) scale(-1, 1) translate(-20.500000, -9.500000) translate(14.000000, 0.000000)">
                                <path d="M3.09033691,0 C1.58514862,0 0.34814941,1.21943545 0.34814941,2.70325203 C0.34814941,4.18706862 1.58514862,5.40650407 3.09033691,5.40650407 C4.5955252,5.40650407 5.83252441,4.18706862 5.83252441,2.70325203 C5.83252441,1.21943545 4.5955252,0 3.09033691,0 Z M3.66783174,16.2436484 L3.66783174,18.5365854 L5.61313325,18.5365854 L3.66783174,16.2436484 Z" id="Shape" fill="#000000" fill-rule="nonzero"></path>
                                <path d="M3.09033691,1.54471545 C3.74867502,1.54471545 4.26556012,2.05426162 4.26556012,2.70325203 C4.26556012,3.35224245 3.74867502,3.86178862 3.09033691,3.86178862 C2.4319988,3.86178862 1.9151137,3.35224245 1.9151137,2.70325203 C1.9151137,2.05426162 2.4319988,1.54471545 3.09033691,1.54471545 Z" id="Path" fill="#FFFFFF" fill-rule="nonzero"></path>
                                <path d="M1.85714286,1.62195122 L6.8312588,1.62195122" id="Path-22" stroke="#000000" stroke-width="1.39285714" stroke-linejoin="round"></path>
                                <rect id="Rectangle" fill="#FFFFFF" x="6.03571429" y="7.87804878" width="5.57142857" height="5.56097561"></rect>
                                <polygon id="Path-Copy" fill="#FFA511" points="5.80350655 10.7843467 5.80350655 13.902439 12.0713637 13.902439 12.0713637 7.72357724 7.50207155 7.72357724 8.53345214 9.26829268 10.5043994 9.26829268 10.5043994 12.3577236 8.71861091 12.3577236 7.31391663 10.2535695"></polygon>
                                <path d="M2.98966837,18.5445548 L2.98966837,6.43658164 C4.86556049,7.64176452 6.0630252,8.9997143 6.5820625,10.510431" id="Path-21" stroke="#000000" stroke-width="1.39285714" stroke-linejoin="round"></path>
                            </g>
                            <g id="icon-copy-2">
                                <path d="M3.09033691,0 C1.58514862,0 0.34814941,1.21943545 0.34814941,2.70325203 C0.34814941,4.18706862 1.58514862,5.40650407 3.09033691,5.40650407 C4.5955252,5.40650407 5.83252441,4.18706862 5.83252441,2.70325203 C5.83252441,1.21943545 4.5955252,0 3.09033691,0 Z M3.66783174,16.2436484 L3.66783174,18.5365854 L5.61313325,18.5365854 L3.66783174,16.2436484 Z" id="Shape" fill="#000000" fill-rule="nonzero"></path>
                                <path d="M3.09033691,1.54471545 C3.74867502,1.54471545 4.26556012,2.05426162 4.26556012,2.70325203 C4.26556012,3.35224245 3.74867502,3.86178862 3.09033691,3.86178862 C2.4319988,3.86178862 1.9151137,3.35224245 1.9151137,2.70325203 C1.9151137,2.05426162 2.4319988,1.54471545 3.09033691,1.54471545 Z" id="Path" fill="#FFFFFF" fill-rule="nonzero"></path>
                                <path d="M1.85714286,1.62195122 L6.8312588,1.62195122" id="Path-22" stroke="#000000" stroke-width="1.39285714" stroke-linejoin="round"></path>
                                <rect id="Rectangle" fill="#FFFFFF" x="6.03571429" y="7.87804878" width="5.57142857" height="5.56097561"></rect>
                                <polygon id="Path-Copy" fill="#FFA511" points="5.80350655 10.7843467 5.80350655 13.902439 12.0713637 13.902439 12.0713637 7.72357724 7.50207155 7.72357724 8.53345214 9.26829268 10.5043994 9.26829268 10.5043994 12.3577236 8.71861091 12.3577236 7.31391663 10.2535695"></polygon>
                                <path d="M2.98966837,18.5445548 L2.98966837,6.43658164 C4.86556049,7.64176452 6.0630252,8.9997143 6.5820625,10.510431" id="Path-21" stroke="#000000" stroke-width="1.39285714" stroke-linejoin="round"></path>
                            </g>
                        </g>
                    </g>
                </g>
            </g>
        </g>
    </g>
</svg>