<?xml version="1.0" encoding="UTF-8"?>
<svg width="19px" height="20px" viewBox="0 0 19 20" version="1.1" xmlns="http://www.w3.org/2000/svg" xmlns:xlink="http://www.w3.org/1999/xlink">
    <!-- Generator: Sketch 52.5 (67469) - http://www.bohemiancoding.com/sketch -->
    <title>icon</title>
    <desc>Created with Sketch.</desc>
    <g id="website" stroke="none" stroke-width="1" fill="none" fill-rule="evenodd">
        <g id="final_version" transform="translate(-2377.000000, -230.000000)">
            <g id="Group-72" transform="translate(1574.000000, 221.000000)">
                <g id="icon" transform="translate(803.000000, 9.000000)">
                    <path d="M3.02272727,0.869565217 L0,4.91847826 L0,20 L19,20 L19,4.91847826 L15.9772727,0.869565217 L11.6590909,0.869565217 L13.8181818,2.60869565 L15.1136364,2.60869565 L16.4090909,4.34782609 L2.59090909,4.34782609 L3.88636364,2.60869565 L5.18181818,2.60869565 L7.34090909,0.869565217 L3.02272727,0.869565217 Z M1.72727273,6.08695652 L17.2727273,6.08695652 L17.2727273,18.2608696 L1.72727273,18.2608696 L1.72727273,6.08695652 Z" id="Shape" fill="#000000" fill-rule="nonzero"></path>
                    <polygon id="Path" fill="#FFA511" points="9.5 0 5.18181818 3.47826087 13.8181818 3.47826087"></polygon>
                    <path d="M6.74715909,7.82608696 C6.27148459,7.87024435 5.92063232,8.29823391 5.96448864,8.77717391 C6.00834495,9.25611391 6.43341641,9.60937478 6.90909091,9.56521739 L12.0909091,9.56521739 C12.4012784,9.56861391 12.6914067,9.40557043 12.8499643,9.1338313 C13.0051494,8.86209217 13.0051494,8.52921217 12.8499643,8.25747304 C12.6914067,7.98573391 12.4012784,7.82269043 12.0909091,7.82608696 L6.90909091,7.82608696 C6.88210227,7.82608696 6.85511364,7.82608696 6.828125,7.82608696 C6.80113636,7.82608696 6.77414773,7.82608696 6.74715909,7.82608696 Z" id="Path" fill="#FFA511"></path>
                </g>
            </g>
        </g>
    </g>
</svg>