<?xml version="1.0" encoding="UTF-8"?>
<svg width="110px" height="22px" viewBox="0 0 110 22" version="1.1" xmlns="http://www.w3.org/2000/svg" xmlns:xlink="http://www.w3.org/1999/xlink">
    <!-- Generator: Sketch 52.5 (67469) - http://www.bohemiancoding.com/sketch -->
    <title>Group 4</title>
    <desc>Created with Sketch.</desc>
    <g id="website" stroke="none" stroke-width="1" fill="none" fill-rule="evenodd">
        <g id="final_version" transform="translate(-130.000000, -33.000000)">
            <g id="Group-19" transform="translate(130.000000, 30.000000)">
                <g id="Group-4" transform="translate(0.000000, 3.000000)">
                    <g id="Group-13">
                        <g>
                            <path d="M37.2518085,1 C39.9741838,1 42.1215425,1.83771863 43.693949,3.51318102 C45.2663554,5.18864341 46.0525469,7.61978489 46.0525469,10.8066784 C46.0525469,13.9467058 45.2194186,16.4305708 43.5531372,18.258348 C41.8868557,20.0861251 39.5400156,21 36.5125464,21 C35.221765,21 34.0542121,20.8242548 33.0098525,20.4727592 C31.965493,20.1212636 30.9622189,19.5940281 30,18.8910369 L32.6050186,15.3760984 C33.2856124,15.7978931 33.8957908,16.0966599 34.4355722,16.2724077 C34.9753535,16.4481555 35.5737977,16.5360281 36.2309228,16.5360281 C37.1931417,16.5360281 37.9910673,16.225545 38.6247236,15.6045694 C39.25838,14.9835938 39.6338744,13.9701301 39.7512182,12.5641476 L33.3090776,12.5641476 L33.3090776,9.11950791 L39.7160152,9.11950791 C39.6221402,7.80725764 39.3229181,6.86995009 38.8183399,6.30755712 C38.3137617,5.74516415 37.6155768,5.46397188 36.7237642,5.46397188 C36.0666391,5.46397188 35.4505935,5.55770264 34.8756091,5.74516696 C34.3006246,5.93263128 33.6963133,6.23725624 33.062657,6.65905097 L30.4224354,3.24956063 C32.2999357,1.74984605 34.5763706,1 37.2518085,1 Z M63.8480692,1.63268893 L63.0384013,6.20210896 L58.2860025,6.20210896 L58.2860025,20.3673111 L52.0198768,20.3673111 L52.0198768,6.20210896 L46.7394337,6.20210896 L46.7394337,1.63268893 L63.8480692,1.63268893 Z M80.2354734,14.602812 C80.2354734,15.2823701 80.3234799,15.7861729 80.4994956,16.1142355 C80.6755112,16.4422981 80.9864675,16.6883413 81.4323738,16.8523726 L80.1650675,20.8945518 C78.9681611,20.8008197 77.9883553,20.5547764 77.2256209,20.1564148 C76.4628864,19.7580531 75.8468409,19.1253705 75.3774658,18.258348 C74.1805594,20.0861251 72.2913531,21 69.7097903,21 C67.8557588,21 66.3713824,20.45519 65.2566166,19.3655536 C64.1418509,18.2759172 63.5844763,16.8640977 63.5844763,15.1300527 C63.5844763,13.0679452 64.3471994,11.4862387 65.8726683,10.3848858 C67.3981373,9.28353286 69.604167,8.73286467 72.4908236,8.73286467 L74.1101595,8.73286467 L74.1101595,8.10017575 C74.1101595,7.09255501 73.8989439,6.40714886 73.4765063,6.04393673 C73.0540688,5.6807246 72.2913457,5.49912127 71.1883143,5.49912127 C70.6015955,5.49912127 69.868208,5.58699385 68.9881297,5.76274165 C68.1080515,5.93848946 67.2103851,6.17867452 66.2951038,6.48330404 L64.9221886,2.44112478 C66.0486887,1.97246397 67.2573114,1.61511547 68.5480928,1.36906854 C69.8388742,1.12302162 71.0357627,1 72.1387941,1 C74.9550444,1 77.0085295,1.55652636 78.299311,2.66959578 C79.5900924,3.7826652 80.2354734,5.48739332 80.2354734,7.78383128 L80.2354734,14.602812 Z M71.6107498,16.6063269 C72.1270623,16.6063269 72.6022975,16.4715889 73.0364694,16.202109 C73.4706413,15.932629 73.8285344,15.5635641 74.1101595,15.0949033 L74.1101595,12.0720562 L73.0540709,12.0720562 C71.9275707,12.0720562 71.0944425,12.2770923 70.5546612,12.6871705 C70.0148798,13.0972487 69.7449932,13.7123568 69.7449932,14.5325132 C69.7449932,15.1652053 69.909272,15.6690081 70.2378346,16.0439367 C70.5663971,16.4188654 71.0240309,16.6063269 71.6107498,16.6063269 Z M109.64797,1.63268893 L105.423616,10.3497364 L110,20.3673111 L103.698671,20.3673111 L100.565608,12.5289982 L99.1222873,12.5289982 L99.1222873,20.3673111 L93.7362354,20.3673111 L93.7362354,12.5289982 L92.2929143,12.5289982 L89.1598514,20.3673111 L82.8937257,20.3673111 L87.4349067,10.3497364 L83.2457552,1.63268893 L89.0894455,1.63268893 L92.1873054,8.9086116 L93.7362354,8.9086116 L93.7362354,1.63268893 L99.1222873,1.63268893 L99.1222873,8.9086116 L100.671217,8.9086116 L103.839483,1.63268893 L109.64797,1.63268893 Z" id="этаж" fill="#1B1B1B"></path>
                            <g id="Group">
                                <rect id="Rectangle" fill="#1B1B1B" x="0" y="0" width="22" height="22" rx="1.1"></rect>
                                <polygon id="Rectangle-Copy-3" fill="#FFA511" points="7.7 0 14.3 0 14.3 7.15 12.1 7.15 12.1 9.35 9.9 9.35 9.9 11.55 7.7 11.55"></polygon>
                            </g>
                        </g>
                    </g>
                </g>
            </g>
        </g>
    </g>
</svg>