<?xml version="1.0" encoding="UTF-8"?>
<svg width="68px" height="14px" viewBox="0 0 68 14" version="1.1" xmlns="http://www.w3.org/2000/svg" xmlns:xlink="http://www.w3.org/1999/xlink">
    <!-- Generator: Sketch 52.5 (67469) - http://www.bohemiancoding.com/sketch -->
    <title>weralls.</title>
    <desc>Created with Sketch.</desc>
    <g id="website" stroke="none" stroke-width="1" fill="none" fill-rule="evenodd">
        <g id="final_version" transform="translate(-1242.000000, -984.000000)" fill="#CFCFCF">
            <g id="Group-73" transform="translate(1146.000000, 984.000000)">
                <path d="M99.4460121,13.8028169 L96,4.08169014 L99.3676936,4.08169014 L100.699107,8.77464789 L102.382954,4.08169014 L104.810826,4.08169014 L106.553412,8.77464789 L107.865246,4.08169014 L111.23294,4.08169014 L107.767348,13.8028169 L105.339476,13.8028169 L103.61647,9.14929577 L101.854305,13.8028169 L99.4460121,13.8028169 Z M121.042327,8.53802817 C121.042327,8.91267606 121.003167,9.32676056 120.924849,9.76056338 L114.365678,9.76056338 C114.639793,10.8056338 115.383818,11.3183099 116.499856,11.3183099 C117.224302,11.3183099 118.027066,10.9633803 118.281601,10.4901408 L120.748632,12.0084507 C120.063346,13.2704225 118.438238,14 116.421538,14 C113.582494,14 111.330838,11.771831 111.330838,8.91267606 C111.330838,6.07323944 113.523755,3.88450704 116.362799,3.88450704 C118.986467,3.88450704 121.042327,5.93521127 121.042327,8.53802817 Z M114.365678,7.76901408 L117.890009,7.76901408 C117.752951,7 117.028506,6.44788732 116.186582,6.44788732 C115.207601,6.44788732 114.600633,6.92112676 114.365678,7.76901408 Z M127.777714,3.88450704 C128.286784,3.88450704 128.678376,3.96338028 128.97207,4.08169014 L128.795854,7.03943662 C128.423841,6.90140845 127.934351,6.82253521 127.503599,6.82253521 C126.916211,6.82253521 125.93723,7.27605634 125.526058,8.22253521 L125.526058,13.8028169 L122.39332,13.8028169 L122.39332,4.08169014 L125.526058,4.08169014 L125.526058,5.18591549 C125.95681,4.3971831 126.994529,3.88450704 127.777714,3.88450704 Z M136.216527,4.08169014 L139.368845,4.08169014 L139.368845,13.8028169 L136.216527,13.8028169 L136.216527,12.7183099 C135.805356,13.4676056 134.689318,14 133.514541,14 C131.047509,14 129.109128,11.7323944 129.109128,8.95211268 C129.109128,6.15211268 131.047509,3.88450704 133.514541,3.88450704 C134.689318,3.88450704 135.785776,4.41690141 136.216527,5.16619718 L136.216527,4.08169014 Z M136.216527,9.89859155 L136.216527,8.0056338 C135.864094,7.37464789 135.120069,6.90140845 134.219407,6.90140845 C133.083789,6.90140845 132.183127,7.76901408 132.183127,8.95211268 C132.183127,10.115493 133.083789,11.0028169 134.219407,11.0028169 C135.120069,11.0028169 135.844515,10.5098592 136.216527,9.89859155 Z M144.20501,0 L144.20501,13.8028169 L141.072272,13.8028169 L141.072272,0 L144.20501,0 Z M149.060754,0 L149.060754,13.8028169 L145.928016,13.8028169 L145.928016,0 L149.060754,0 Z M154.778002,14 C153.094155,14 151.547365,13.6450704 150.353009,12.7971831 L151.234092,10.6084507 C152.154333,11.2591549 153.34869,11.5943662 154.503887,11.5943662 C155.228333,11.5943662 155.678664,11.3577465 155.678664,11.0028169 C155.659084,9.85915493 150.666283,10.7859155 150.607544,7.21690141 C150.568385,5.36338028 152.252232,3.88450704 154.582206,3.88450704 C155.933199,3.88450704 157.323352,4.2 158.341492,4.96901408 L157.479988,7.25633803 C156.696804,6.70422535 155.463288,6.29014085 154.445148,6.29014085 C153.877339,6.29014085 153.524906,6.52676056 153.524906,6.84225352 C153.544486,7.94647887 158.596026,7.41408451 158.654765,10.7859155 C158.674345,12.6788732 157.068817,14 154.778002,14 Z M162.042039,14 C160.926001,14 160.064498,13.1323944 160.064498,12.0478873 C160.064498,10.9633803 160.926001,10.115493 162.042039,10.115493 C163.138497,10.115493 164,10.9633803 164,12.0478873 C164,13.1323944 163.138497,14 162.042039,14 Z" id="weralls."></path>
            </g>
        </g>
    </g>
</svg>