<svg xmlns="http://www.w3.org/2000/svg" xmlns:xlink="http://www.w3.org/1999/xlink" viewBox="0 0 320 147"><defs><path id="b" d="M21 0h-6c-3 0-8 8-8 8s-3 0-5 2c-3 1-2 6-2 6h4c0-2 1-4 4-4 2 0 4 2 4 4h9V0"/><path id="d" d="M11 6H0s4-6 6-6h5v6"/><path id="f" d="M5 0C2 0 0 2 0 5s2 5 5 5 5-2 5-5-2-5-5-5"/><linearGradient id="a" x1="50%" x2="50%" y1="0%" y2="100%"><stop offset="0%" stop-color="#010201"/><stop offset="100%"/></linearGradient><linearGradient id="h" x1="50%" x2="50%" y1="0%" y2="100%"><stop offset="0%" stop-color="#0A0B09"/><stop offset="100%"/></linearGradient></defs><g fill="none" fill-rule="evenodd"><g opacity=".8"><path fill="#B9E5FB" d="M134 66h18v28h-18z"/><path fill="#00AEEF" fill-rule="nonzero" d="M152 95h-18l-1-1V66l1-1h18l1 1v28l-1 1Zm-17-2h17V66h-17v27Z"/><path fill="#FFF" d="M134 65h18l-2-7h-14z"/><path fill="#C6C6C6" fill-rule="nonzero" d="M152 66h-19v-1l3-7v-1h14l1 1 2 7v1h-1Zm-17-1h16l-1-6h-13l-2 6Z"/><path fill="#FFF" d="M-13 57h27v37h-27z"/><path fill="#00AEEF" fill-rule="nonzero" d="M13 95h-27V56h27l1 1v37l-1 1Zm-26-2h26V57h-26v36Z"/><path fill="#FFF" d="M-13 57h27l-2-5h-24z"/><path fill="#C6C6C6" fill-rule="nonzero" d="M13 57h-27l2-5v-1h24v1l2 5h-1Zm-26-1h25l-1-3h-22l-2 3Z"/><path fill="#FFF" d="M14 60h25v34H14z"/><path fill="#C6C6C6" fill-rule="nonzero" d="M39 95H13V59h26v36Zm-25-2h24V60H14v33Z"/><path fill="#FFF" d="M14 57h25v3H14z"/><path fill="#C6C6C6" fill-rule="nonzero" d="M39 60H13v-4h26v4Zm-25-1h24v-2H14v2Z"/><path fill="#FFF" d="M39 65h20v29H39z"/><path fill="#C6C6C6" fill-rule="nonzero" d="M59 95H39l-1-1V65l1-1h20v31Zm-20-2h19V65H39v28Z"/><path fill="#FFF" d="M39 65h20l-2-3H40z"/><path fill="#C6C6C6" fill-rule="nonzero" d="M59 65H38v-1l2-3h18l1 3v1Zm-19-1h18l-1-2H41l-1 2Z"/><path fill="#FFF" d="M59 57h26v37H59z"/><path fill="#C6C6C6" fill-rule="nonzero" d="M84 95H59l-1-1V57l1-1h25l1 1v37l-1 1Zm-25-2h25V57H59v36Z"/><path fill="#FFF" d="M59 52h26v6H59z"/><path fill="#C6C6C6" fill-rule="nonzero" d="M84 57H58v-6h27v6h-1Zm-25-1h25v-4H59v4Z"/><path fill="#FFF" d="M59 49h26v2H59z"/><path fill="#C6C6C6" fill-rule="nonzero" d="M84 52H59l-1-1v-2l1-1h25l1 1v2l-1 1Zm-25-1h25v-1H59v1Z"/><path fill="#FFF" d="M70 42h5v15h-5z"/><path fill="#C6C6C6" fill-rule="nonzero" d="M74 57h-5V41h5v16Zm-4-1h3V43h-3v13Z"/><path fill="#FFF" d="M84 49H59l3-4h19z"/><path fill="#C6C6C6" fill-rule="nonzero" d="M84 50H59l-1-1 3-4 1-1h19l1 1 3 4-1 1Zm-24-2h23l-2-2H62l-2 2Z"/><path fill="#FFF" d="M85 63h13v32H85z"/><path fill="#C6C6C6" fill-rule="nonzero" d="M98 95H84V62h14v33Zm-13-2h12V63H85v30Z"/><path fill="#FFF" d="M98 63h20v32H98z"/><path fill="#C6C6C6" fill-rule="nonzero" d="M118 95H98l-1-1V62h21v33Zm-20-2h19V63H98v30Z"/><path fill="#FFF" d="M97 59h23v3H97z"/><path fill="#C6C6C6" fill-rule="nonzero" d="M119 63H96v-5h23l1 1v3l-1 1Zm-22-1h21v-2H97v2Z"/><path fill="#B9E5FB" d="M118 70h10v25h-10z"/><path fill="#00AEEF" fill-rule="nonzero" d="M128 95h-10l-1-1V69h12v25l-1 1Zm-10-2h9V70h-9v23Z"/><path fill="#B9E5FB" d="M128 74h12v20h-12z"/><path fill="#00AEEF" fill-rule="nonzero" d="M140 95h-12l-1-1V74l1-1h12v22Zm-11-2h10V74h-10v19Z"/><path fill="#B9E5FB" d="M140 74h-12l6-10z"/><path fill="#00AEEF" fill-rule="nonzero" d="M140 74h-13l6-11h1l6 11c1 0 1 0 0 0Zm-11-1h10l-5-8-5 8Z"/><path fill="#B9E5FB" d="M170 61h-17l8-10z"/><path fill="#00AEEF" fill-rule="nonzero" d="M169 62h-17v-1l8-10 1-1v1l9 10v1h-1Zm-15-1h14l-7-9-7 9Z"/><path fill="#B9E5FB" d="M140 72h13v23h-13z"/><path fill="#00AEEF" fill-rule="nonzero" d="M152 95h-12l-1-1V71h14v23l-1 1Zm-12-2h12V72h-12v21Z"/><path fill="#FFF" d="M153 62h17v32h-17z"/><path fill="#C6C6C6" fill-rule="nonzero" d="M169 95h-17V61h17l1 1v32l-1 1Zm-16-2h16V62h-16v31Z"/><path fill="#FFF" d="M153 50h17v12h-17z"/><path fill="#C6C6C6" fill-rule="nonzero" d="M169 62h-17V49h17l1 1v12h-1Zm-16-1h16V50h-16v11Z"/><path fill="#FFF" d="M152 48h19v2h-19z"/><path fill="#C6C6C6" fill-rule="nonzero" d="M170 50h-19v-3h19l1 1v2h-1Zm-18-1h18v-1h-18v1Z"/><path fill="#B9E5FB" d="M7 62v4"/><path fill="#C6C6C6" d="M6 62h1v4H6z"/><path fill="#B9E5FB" d="M2 62v4"/><path fill="#C6C6C6" d="M1 62h1v4H1z"/><path fill="#B9E5FB" d="M7 70v3"/><path fill="#00AEEF" d="M6 70h1v4H6z"/><path fill="#B9E5FB" d="M2 70v3"/><path fill="#C6C6C6" d="M1 70h1v4H1z"/><path fill="#B9E5FB" d="M7 77v4"/><path fill="#00AEEF" d="M6 77h1v4H6z"/><path fill="#B9E5FB" d="M2 77v4"/><path fill="#00AEEF" d="M1 77h1v4H1z"/><path fill="#B9E5FB" d="M7 85v4"/><path fill="#00AEEF" d="M6 85h1v4H6z"/><path fill="#B9E5FB" d="M2 85v4"/><path fill="#00AEEF" d="M1 85h1v4H1z"/><path fill="#B9E5FB" d="M78 62v4"/><path fill="#C6C6C6" d="M78 62h1v4h-1z"/><path fill="#B9E5FB" d="M74 62v4"/><path fill="#C6C6C6" d="M73 62h1v4h-1z"/><path fill="#B9E5FB" d="M69 62v4"/><path fill="#C6C6C6" d="M69 62h1v4h-1z"/><path fill="#B9E5FB" d="M65 62v4"/><path fill="#C6C6C6" d="M64 62h1v4h-1z"/><path fill="#B9E5FB" d="M78 70v3"/><path fill="#C6C6C6" d="M78 70h1v4h-1z"/><path fill="#B9E5FB" d="M74 70v3"/><path fill="#C6C6C6" d="M73 70h1v4h-1z"/><path fill="#B9E5FB" d="M69 70v3"/><path fill="#C6C6C6" d="M69 70h1v4h-1z"/><path fill="#B9E5FB" d="M65 70v3"/><path fill="#C6C6C6" d="M64 70h1v4h-1z"/><path fill="#B9E5FB" d="M78 77v4"/><path fill="#C6C6C6" d="M78 77h1v4h-1z"/><path fill="#B9E5FB" d="M74 77v4"/><path fill="#00AEEF" d="M73 77h1v4h-1z"/><path fill="#B9E5FB" d="M69 77v4"/><path fill="#00AEEF" d="M69 77h1v4h-1z"/><path fill="#B9E5FB" d="M65 77v4"/><path fill="#00AEEF" d="M64 77h1v4h-1z"/><path fill="#B9E5FB" d="M78 85v4"/><path fill="#00AEEF" d="M78 85h1v4h-1z"/><path fill="#B9E5FB" d="M74 85v4"/><path fill="#00AEEF" d="M73 85h1v4h-1z"/><path fill="#B9E5FB" d="M69 85v4"/><path fill="#00AEEF" d="M69 85h1v4h-1z"/><path fill="#B9E5FB" d="M65 85v4"/><path fill="#00AEEF" d="M64 85h1v4h-1z"/><path fill="#B9E5FB" d="M33 63v4"/><path fill="#C6C6C6" d="M32 63h1v4h-1z"/><path fill="#B9E5FB" d="M28 63v4"/><path fill="#00AEEF" d="M27 63h1v4h-1z"/><path fill="#B9E5FB" d="M24 63v4"/><path fill="#00AEEF" d="M23 63h1v4h-1z"/><path fill="#B9E5FB" d="M19 63v4"/><path fill="#00AEEF" d="M19 63h1v4h-1z"/><path fill="#B9E5FB" d="M33 71v4"/><path fill="#00AEEF" d="M32 71h1v4h-1z"/><path fill="#B9E5FB" d="M28 71v4"/><path fill="#00AEEF" d="M27 71h1v4h-1z"/><path fill="#B9E5FB" d="M24 71v4"/><path fill="#00AEEF" d="M23 71h1v4h-1z"/><path fill="#B9E5FB" d="M19 71v4"/><path fill="#00AEEF" d="M19 71h1v4h-1z"/><path fill="#B9E5FB" d="M33 79v3"/><path fill="#00AEEF" d="M32 79h1v4h-1z"/><path fill="#B9E5FB" d="M28 79v3"/><path fill="#00AEEF" d="M27 79h1v4h-1z"/><path fill="#B9E5FB" d="M24 79v3"/><path fill="#00AEEF" d="M23 79h1v4h-1z"/><path fill="#B9E5FB" d="M19 79v3"/><path fill="#00AEEF" d="M19 79h1v4h-1z"/><path fill="#B9E5FB" d="M33 87v3"/><path fill="#00AEEF" d="M32 86h1v4h-1z"/><path fill="#B9E5FB" d="M28 87v3"/><path fill="#00AEEF" d="M27 86h1v4h-1z"/><path fill="#B9E5FB" d="M24 87v3"/><path fill="#00AEEF" d="M23 86h1v4h-1z"/><path fill="#B9E5FB" d="M19 87v3"/><path fill="#00AEEF" d="M19 86h1v4h-1z"/><path fill="#B9E5FB" d="M112 68v4"/><path fill="#C6C6C6" d="M111 68h1v4h-1z"/><path fill="#B9E5FB" d="M108 68v4"/><path fill="#C6C6C6" d="M107 68h1v4h-1z"/><path fill="#B9E5FB" d="M103 68v4"/><path fill="#C6C6C6" d="M103 68h1v4h-1z"/><path fill="#B9E5FB" d="M112 76v4"/><path fill="#00AEEF" d="M111 76h1v4h-1z"/><path fill="#B9E5FB" d="M108 76v4"/><path fill="#00AEEF" d="M107 76h1v4h-1z"/><path fill="#B9E5FB" d="M103 76v4"/><path fill="#00AEEF" d="M103 76h1v4h-1z"/><path fill="#B9E5FB" d="M112 84v4"/><path fill="#00AEEF" d="M111 84h1v4h-1z"/><path fill="#B9E5FB" d="M108 84v4"/><path fill="#00AEEF" d="M107 84h1v4h-1z"/><path fill="#B9E5FB" d="M103 84v4"/><path fill="#00AEEF" d="M103 84h1v4h-1z"/><path fill="#B9E5FB" d="M165 68v4"/><path fill="#00AEEF" d="M165 68h1v4h-1z"/><path fill="#B9E5FB" d="M161 68v4"/><path fill="#00AEEF" d="M160 68h1v4h-1z"/><path fill="#B9E5FB" d="M156 68v4"/><path fill="#00AEEF" d="M156 68h1v4h-1z"/><path fill="#B9E5FB" d="M165 76v4"/><path fill="#00AEEF" d="M165 76h1v4h-1z"/><path fill="#B9E5FB" d="M161 76v4"/><path fill="#00AEEF" d="M160 76h1v4h-1z"/><path fill="#B9E5FB" d="M156 76v4"/><path fill="#00AEEF" d="M156 76h1v4h-1z"/><path fill="#B9E5FB" d="M165 84v3"/><path fill="#00AEEF" d="M165 84h1v4h-1z"/><path fill="#B9E5FB" d="M161 84v3"/><path fill="#00AEEF" d="M160 84h1v4h-1z"/><path fill="#B9E5FB" d="M156 84v3"/><path fill="#00AEEF" d="M156 84h1v4h-1z"/><path fill="#B9E5FB" d="M165 54v3"/><path fill="#C6C6C6" d="M165 54h1v4h-1z"/><path fill="#B9E5FB" d="M161 54v3"/><path fill="#C6C6C6" d="M160 54h1v4h-1z"/><path fill="#B9E5FB" d="M156 54v3"/><path fill="#C6C6C6" d="M156 54h1v4h-1z"/><path fill="#B9E5FB" d="M53 70v3"/><path fill="#C6C6C6" d="M52 70h1v4h-1z"/><path fill="#B9E5FB" d="M49 70v3"/><path fill="#00AEEF" d="M48 70h1v4h-1z"/><path fill="#B9E5FB" d="M44 70v3"/><path fill="#00AEEF" d="M44 70h1v4h-1z"/><path fill="#B9E5FB" d="M53 77v4"/><path fill="#00AEEF" d="M52 77h1v4h-1z"/><path fill="#B9E5FB" d="M49 77v4"/><path fill="#00AEEF" d="M48 77h1v4h-1z"/><path fill="#B9E5FB" d="M44 77v4"/><path fill="#00AEEF" d="M44 77h1v4h-1z"/><path fill="#B9E5FB" d="M53 85v4"/><path fill="#00AEEF" d="M52 85h1v4h-1z"/><path fill="#B9E5FB" d="M49 85v4"/><path fill="#00AEEF" d="M48 85h1v4h-1z"/><path fill="#B9E5FB" d="M44 85v4"/><path fill="#00AEEF" d="M44 85h1v4h-1z"/><path fill="#B9E5FB" d="M93 68v4"/><path fill="#C6C6C6" d="M93 68h1v4h-1z"/><path fill="#B9E5FB" d="M89 68v4"/><path fill="#C6C6C6" d="M88 68h1v4h-1z"/><path fill="#B9E5FB" d="M93 76v4"/><path fill="#00AEEF" d="M93 76h1v4h-1z"/><path fill="#B9E5FB" d="M89 76v4"/><path fill="#00AEEF" d="M88 76h1v4h-1z"/><path fill="#B9E5FB" d="M93 84v4"/><path fill="#00AEEF" d="M93 84h1v4h-1z"/><path fill="#B9E5FB" d="M89 84v4"/><path fill="#00AEEF" d="M88 84h1v4h-1z"/><path fill="#B9E5FB" d="M136 78v4"/><path fill="#00AEEF" d="M135 78h1v4h-1z"/><path fill="#B9E5FB" d="M132 78v4"/><path fill="#00AEEF" d="M131 78h1v4h-1z"/><path fill="#B9E5FB" d="M136 86v4"/><path fill="#00AEEF" d="M135 86h1v4h-1z"/><path fill="#B9E5FB" d="M132 86v4"/><path fill="#00AEEF" d="M131 86h1v4h-1z"/><path fill="#B9E5FB" d="M146 77v4"/><path fill="#00AEEF" d="M145 77h1v4h-1z"/><path fill="#B9E5FB" d="M146 85v3"/><path fill="#00AEEF" d="M145 85h1v4h-1z"/><path fill="#FFF" d="M170 66h18v28h-18z"/><path fill="#C6C6C6" fill-rule="nonzero" d="M188 95h-19V65h19v30Zm-18-2h17V66h-17v27Z"/><path fill="#FFF" d="M188 65h-18l2-7h14z"/><path fill="#C6C6C6" fill-rule="nonzero" d="M188 66h-19v-1l2-7 1-1h13l1 1 2 7v1Zm-18-1h17l-2-6h-13l-2 6Z"/><path fill="#B9E5FB" d="M182 74h12v20h-12z"/><path fill="#00AEEF" fill-rule="nonzero" d="M194 95h-12l-1-1V74l1-1h12v22Zm-12-2h11V74h-11v19Z"/><path fill="#FFF" d="M182 74h12l-6-10z"/><path fill="#C6C6C6" fill-rule="nonzero" d="M194 74h-13l6-11h1l6 11Zm-11-1h10l-5-8-5 8Z"/><path fill="#B9E5FB" d="M170 72h13v23h-13z"/><path fill="#00AEEF" fill-rule="nonzero" d="M182 95h-13V71h13v24Zm-12-2h11V72h-11v21Z"/><path fill="#B9E5FB" d="M186 78v4"/><path fill="#00AEEF" d="M185 78h1v4h-1z"/><path fill="#B9E5FB" d="M190 78v4"/><path fill="#00AEEF" d="M189 78h1v4h-1z"/><path fill="#B9E5FB" d="M186 86v4"/><path fill="#00AEEF" d="M185 86h1v4h-1z"/><path fill="#B9E5FB" d="M190 86v4"/><path fill="#00AEEF" d="M189 86h1v4h-1z"/><path fill="#B9E5FB" d="M176 77v4"/><path fill="#00AEEF" d="M175 77h1v4h-1z"/><path fill="#B9E5FB" d="M176 85v3"/><path fill="#00AEEF" d="M175 85h1v4h-1z"/><path fill="#B9E5FB" d="M123 72v4"/><path fill="#00AEEF" d="M122 72h1v4h-1z"/><path fill="#B9E5FB" d="M123 80v4"/><path fill="#00AEEF" d="M122 80h1v4h-1z"/><path fill="#B9E5FB" d="M123 88v3"/><path fill="#00AEEF" d="M122 88h1v4h-1z"/><path fill="#FFF" d="m188 66-3 1a6 6 0 0 0-12 1v1a6 6 0 0 0-5 0 6 6 0 0 0-7-2v-1a6 6 0 0 0-12-1h-2l-5 2a6 6 0 0 0-6-2 6 6 0 1 0-12 0h-1a6 6 0 0 0-6 8l-2-1-4 2a6 6 0 0 0-12 3l-4 1a6 6 0 0 0-11 1l-4 2a6 6 0 0 0-7-3 6 6 0 0 0-12-1v1l-2-1h-4a6 6 0 0 0-5-4 6 6 0 0 0-12-3l-2-1-5 2-1-2 2-3a6 6 0 0 0-11-5h-1c-3-1-6 1-7 4v1l-1-1a6 6 0 0 0-7 7H3c-2-1-3 0-5 1a6 6 0 0 0-9-4c0-2-2-4-5-4-2 0-5 1-6 3-4 0-7 2-7 5l-5 1-3-2c-3 0-6 1-7 4a6 6 0 0 0-4-2 6 6 0 0 0-11-4l-2-1a6 6 0 0 0-7 6l-3 1a6 6 0 0 0-9-5 6 6 0 1 0-11 1h-1a6 6 0 0 0-7 6l-4 2c0-2-2-3-4-3-3-1-6 2-6 5a6 6 0 0 0-4-1 6 6 0 0 0-11-2v-1l-5 2a6 6 0 1 0-12 1c-2 1-4 2-4 5v1h-1l-5 1a6 6 0 0 0-10-2l-3-3c-1-3-3-5-5-5a6 6 0 0 0-7 5l-3 1a6 6 0 0 0-12 2v44h389V72c0-3-3-6-6-6Z"/><path fill="#C6C6C6" fill-rule="nonzero" d="M194 131h-389V86a7 7 0 0 1 12-3h2v-1c1-3 4-6 8-5 2 0 5 3 5 5l3 3c2-1 4-2 6-1 2 0 3 1 4 3l5-1c0-3 2-5 5-6v-1c0-4 4-6 7-6 3 1 5 3 6 5h3a7 7 0 0 1 13 2l2 1a7 7 0 0 1 11-2l3-1v-2a7 7 0 0 1 8-5v-1c1-3 4-6 8-5 2 0 5 3 5 5a7 7 0 0 1 8 5l2-1a7 7 0 0 1 10-5c1-2 4-3 6-3a7 7 0 0 1 6 7v1l3 1a7 7 0 0 1 10-2l4-1a7 7 0 0 1 8-5c1-2 4-3 6-3 3 1 5 2 5 4h5c2 0 4 1 5 4a7 7 0 0 1 5-1v-1c1-4 4-6 8-5h1a7 7 0 0 1 8-5l6-2a7 7 0 0 1 4 11v1a7 7 0 0 1 7-1 7 7 0 0 1 12 4h1c2 0 4 1 5 3a7 7 0 0 1 4 1 7 7 0 0 1 13 0 7 7 0 0 1 7 3l3-1a7 7 0 0 1 13-2l3-1a7 7 0 0 1 12-3 7 7 0 0 1 5-1v-1a7 7 0 0 1 7-7 7 7 0 0 1 13 0h2l4 2a7 7 0 0 1 7-2c1-2 3-4 6-4 4 0 7 2 7 6h1l5 2a7 7 0 0 1 4 0 7 7 0 0 1 13-2h3c3 0 6 3 6 6v59Zm-388-2h387V72a5 5 0 0 0-8-4l-1-1a5 5 0 0 0-10 2h-1c0 1 0 1 0 0h-2l-3 1h-1a5 5 0 0 0-6-3v-1c0-2-3-5-6-5-2 0-4 2-5 4v1h-1l-2-1-4 3h-1a5 5 0 0 0-6-2l-1-1c0-3-2-6-5-6s-5 3-5 6h-1v1l-1-1a5 5 0 0 0-5 8h-3l-4 2a1 1 0 0 1-1 0 5 5 0 0 0-10 2h-1l-3 2h-1v-1a5 5 0 0 0-11 1v1l-4 1h-1a5 5 0 0 0-6-2h-1v-1a5 5 0 0 0-10-1l-1 1h-1l-2-1-2 1-1-1a5 5 0 0 0-5-3h-1v-1a5 5 0 0 0-4-6c-3 0-5 1-6 3l-1 1a5 5 0 0 0-7 0h-1l-1-1v-1l2-3a5 5 0 0 0-9-5h-2c-3 0-6 2-6 5h-2a5 5 0 0 0-6 6l-1 1-2-1-4 1h-1a5 5 0 0 0-8-3h-1v-1a5 5 0 0 0-10-1l-1 1a5 5 0 0 0-7 4v1c-2-1-3 0-4 1h-1l-3-2c-3 0-5 1-6 3h-1a5 5 0 0 0-4-1v-1h-1a5 5 0 0 0-4-6c-2-1-4 0-5 2h-3a5 5 0 0 0-6 4v1h-1v1h-3a1 1 0 0 1-1 0 5 5 0 0 0-7-4h-1v-1c0-2-2-4-5-5a5 5 0 0 0-6 6h-1a5 5 0 0 0-6 4v2a1 1 0 0 1-1 1l-3 1h-1l-4-2c-3-1-5 1-6 4h-1a5 5 0 0 0-3 0v-1a5 5 0 0 0-11-2l-4 1h-1a5 5 0 1 0-11 1v1a5 5 0 0 0-5 5v1h-5l-1 1v-1a5 5 0 0 0-9-1h-1v-1l-4-2v-1a5 5 0 0 0-11 0v1l-3 1a1 1 0 0 1-1-1l-4-2a5 5 0 0 0-6 6v41Z"/><path fill="#FFF" d="m188 80-3 1a6 6 0 0 0-12 1v1a6 6 0 0 0-5 0 6 6 0 0 0-7-3 6 6 0 0 0-12-1h-2c-2 0-3 0-5 2a6 6 0 0 0-6-2 6 6 0 1 0-12 0h-1a6 6 0 0 0-6 7h-2l-4 2a6 6 0 0 0-12 2l-4 2a6 6 0 0 0-11 1l-4 1a6 6 0 0 0-7-2 6 6 0 0 0-12-1h-6a6 6 0 0 0-5-4 6 6 0 0 0-12-3l-2-1c-2 0-4 0-5 2l-1-2 2-3a6 6 0 0 0-11-5l-1-1c-3 0-6 2-7 5h-1a6 6 0 0 0-7 7l-2-1-5 1a6 6 0 0 0-9-3c0-2-2-4-5-4-2-1-5 1-6 3-4-1-7 2-7 5l-5 1-3-2c-3 0-6 1-7 4a6 6 0 0 0-4-2 6 6 0 0 0-11-4l-2-1a6 6 0 0 0-7 6h-3a6 6 0 0 0-9-4 6 6 0 1 0-11 0h-1a6 6 0 0 0-7 7l-4 1-4-2c-3-1-6 1-6 4a6 6 0 0 0-4 0 6 6 0 0 0-11-3l-5 1a6 6 0 1 0-12 2 6 6 0 0 0-4 6h-1c-2-1-4 0-5 1a6 6 0 0 0-10-2c0-2-2-3-3-3-1-3-3-5-5-6a6 6 0 0 0-7 6l-3 1a6 6 0 0 0-12 2v30h389V86c0-3-3-6-6-6Z"/><path fill="#C6C6C6" fill-rule="nonzero" d="M194 131h-389V99a7 7 0 0 1 12-2l2-1c1-4 4-6 8-6 2 1 5 3 5 6l3 3 6-2 4 4 5-1v-1c0-2 2-4 5-5v-1c0-4 4-6 7-6 3 1 5 3 6 5l3-1a7 7 0 0 1 13 3h2a7 7 0 0 1 11-2l3-1v-1a7 7 0 0 1 8-6c1-4 4-6 8-6 2 1 5 3 5 6a7 7 0 0 1 8 4h2v-1a7 7 0 0 1 10-4c1-2 4-3 6-3a7 7 0 0 1 6 7l3 1c1-2 2 2 5 2l5-3 4-1a7 7 0 0 1 8-5c1-2 4-4 6-3 3 0 5 2 5 4l5-1 5 4a7 7 0 0 1 5 0v-1c1-4 4-6 8-6h1a7 7 0 0 1 8-4c1-2 4-2 6-2a7 7 0 0 1 4 11 7 7 0 0 1 7 0 7 7 0 0 1 12 3l1 1c2 0 4 1 5 3a7 7 0 0 1 4 0 7 7 0 0 1 13 1 7 7 0 0 1 7 2l3-1a7 7 0 0 1 13-1l3-1a7 7 0 0 1 12-3 7 7 0 0 1 5-2v-1a7 7 0 0 1 7-6 7 7 0 0 1 13 0h2c1 0 3 0 4 2a7 7 0 0 1 7-2c1-3 3-5 6-5 4 0 7 3 7 6h1c2 0 4 1 5 3a7 7 0 0 1 4 0 7 7 0 0 1 13-2l3-1c3 0 6 3 6 7v45Zm-388-2h387V86a5 5 0 0 0-8-5c0 1 0 1 0 0h-1a5 5 0 0 0-10 2h-7a5 5 0 0 0-6-2v-1c0-3-3-5-6-5-2 0-4 2-5 4v1h-1l-2-1-4 2h-1a5 5 0 0 0-6-2h-1v-1c0-2-2-5-5-5s-5 3-5 5v1h-2a5 5 0 0 0-5 7l-1 1h-2l-4 1a1 1 0 0 1-1 0 5 5 0 0 0-10 2l-1 1-3 1-1 1v-1a5 5 0 0 0-11 1v1l-4 1h-1a5 5 0 0 0-6-3h-1a5 5 0 0 0-10-1h-1v1h-1l-2-1h-3a5 5 0 0 0-5-3h-1v-1a5 5 0 0 0-4-6c-3-1-5 1-6 3h-1a5 5 0 0 0-7 1h-1l-1-2v-1c1 0 2-1 2-3a5 5 0 0 0-9-4h-2c-3-1-6 1-6 4l-1 1h-1a5 5 0 0 0-6 6H3l-4 1h-1v-1a5 5 0 0 0-8-3l-1 1v-1a5 5 0 0 0-10-1l-1 1v-1a5 5 0 0 0-7 5l-4 1-7 3c-2 0-2-3-3-1h-1a5 5 0 0 0-4-2h-1a5 5 0 0 0-4-7c-2 0-4 1-5 3h-1l-2-1a5 5 0 0 0-6 5v1h-1l-3 1a1 1 0 0 1-1 0 5 5 0 0 0-7-4h-1v-1c0-3-2-5-5-5a5 5 0 0 0-6 5v1h-1a5 5 0 0 0-6 4v2a1 1 0 0 1-1 1l-3 1h-1c-1-2-2-3-4-3-3 0-5 2-6 5h-1a5 5 0 0 0-3-1 5 5 0 0 0-11-3v1c-2-1-3 0-4 1h-1v-1a5 5 0 1 0-11 2 5 5 0 0 0-5 6h-1l-4 1h-1a5 5 0 0 0-9-2h-1l-4-3a5 5 0 0 0-11 0v1h-3a1 1 0 0 1-1 0l-4-3a5 5 0 0 0-6 6v28Z"/><path fill="#FFF" d="M-8 95H9v40H-8z"/><path fill="#C6C6C6" fill-rule="nonzero" d="M8 136H-8l-1-1V95l1-1H8l1 1v40l-1 1Zm-16-1H8V96H-8v39Z"/><path fill="#FFF" d="M9 91h19v45H9z"/><path fill="#C6C6C6" fill-rule="nonzero" d="M27 136H8V90h19l1 1v44l-1 1Zm-18-1h18V91H9v44Z"/><path fill="#FFF" d="M9 88h19v3H9z"/><path fill="#C6C6C6" fill-rule="nonzero" d="M27 91H8v-4h19l1 1v3h-1ZM9 90h18v-1H9v1Z"/><path fill="#FFF" d="M28 108h37v28H28z"/><path fill="#C6C6C6" fill-rule="nonzero" d="M64 136H27v-29h38v28l-1 1Zm-36-1h35v-27H28v27Z"/><path fill="#FFF" d="M28 105h37v2H28z"/><path fill="#C6C6C6" fill-rule="nonzero" d="M64 108H27v-4h37l1 1v2l-1 1Zm-36-1h35v-2H28v2Z"/><path fill="#FFF" d="M34 101h5v4h-5z"/><path fill="#C6C6C6" fill-rule="nonzero" d="M39 105h-6v-4l1-1h5v5Zm-5-1h4v-3h-4v3Z"/><path fill="#FFF" d="M44 101h5v4h-5z"/><path fill="#C6C6C6" fill-rule="nonzero" d="M48 105h-5v-5h5l1 1v4h-1Zm-4-1h4v-3h-4v3Z"/><path fill="#FFF" d="M53 101h5v4h-5z"/><path fill="#C6C6C6" fill-rule="nonzero" d="M58 105h-6v-4l1-1h5v5Zm-5-1h4v-3h-4v3Z"/><path fill="#FFF" d="M64 100h44v36H64z"/><path fill="#C6C6C6" fill-rule="nonzero" d="M108 136H64l-1-1V99h45v37Zm-43-1h42v-35H65v35Z"/><path fill="#FFF" d="M107 100H64v-3l21-2 22 2z"/><path fill="#C6C6C6" fill-rule="nonzero" d="M108 100H64l-1-1v-3h1l22-2 22 2v4Zm-43-1h42v-2l-21-2-21 2v2Z"/><path fill="#FFF" d="M108 93h27v42h-27z"/><path fill="#C6C6C6" fill-rule="nonzero" d="M135 136h-27l-1-1V93l1-1h27v44Zm-27-1h26V94h-26v41Z"/><path fill="#FFF" d="M181 85h13v51h-13z"/><path fill="#C6C6C6" fill-rule="nonzero" d="M194 136h-13l-1-1V84h14v52Zm-13-1h12V85h-12v50Z"/><path fill="#FFF" d="M135 85h13v51h-13z"/><path fill="#C6C6C6" fill-rule="nonzero" d="M148 136h-13l-1-1V84h14v52Zm-13-1h12V85h-12v50Z"/><path fill="#FFF" d="M181 79h13v6h-13z"/><path fill="#C6C6C6" fill-rule="nonzero" d="M194 85h-13l-1-1v-5l1-1h13v7Zm-13-1h12v-5h-12v5Z"/><path fill="#FFF" d="M135 79h13v6h-13z"/><path fill="#C6C6C6" fill-rule="nonzero" d="M148 85h-13l-1-1v-5l1-1h13v7Zm-13-1h12v-5h-12v5Z"/><path fill="#FFF" d="m141 73 7 6h-13z"/><path fill="#C6C6C6" fill-rule="nonzero" d="M148 79h-13a1 1 0 0 1-1-1l7-6h1l6 6v1Zm-12-1h10l-5-5-5 5Z"/><path fill="#FFF" d="m187 73 7 6h-13z"/><path fill="#C6C6C6" fill-rule="nonzero" d="M194 79h-13a1 1 0 0 1-1-1l7-6h1l6 6v1Zm-12-1h10l-5-5-5 5Z"/><path fill="#FFF" d="M148 85h33v51h-33z"/><path fill="#C6C6C6" fill-rule="nonzero" d="M181 136h-33l-1-1V84h34v52Zm-33-1h32V85h-32v50Z"/><path fill="#FFF" d="M148 79h33v6h-33z"/><path fill="#C6C6C6" fill-rule="nonzero" d="M181 85h-33l-1-1v-5l1-1h33v7Zm-33-1h32v-5h-32v5Z"/><path fill="#FFF" d="M168 84h-7v-4a3 3 0 0 1 7 0v4Z"/><path fill="#C6C6C6" fill-rule="nonzero" d="M168 85h-7v-5a4 4 0 0 1 7 0v5Zm-6-1h5v-4a3 3 0 0 0-5 0v4Z"/><path fill="#FFF" d="M177 84h-6v-4a3 3 0 0 1 6 0v4Z"/><path fill="#C6C6C6" fill-rule="nonzero" d="M177 85h-6l-1-1v-4a4 4 0 0 1 8 0v4l-1 1Zm-6-1h6v-4a3 3 0 0 0-6 0v4Z"/><path fill="#FFF" d="M158 84h-6v-4a3 3 0 0 1 6 0v4Z"/><path fill="#C6C6C6" fill-rule="nonzero" d="M158 85h-6l-1-1v-4a4 4 0 0 1 8 0v4l-1 1Zm-6-1h6v-4a3 3 0 0 0-6 0v4Z"/><path fill="#FFF" d="M70 104v4"/><path fill="#C6C6C6" d="M70 104h1v4h-1z"/><path fill="#FFF" d="M75 104v4"/><path fill="#C6C6C6" d="M74 104h1v4h-1z"/><path fill="#FFF" d="M79 104v4"/><path fill="#C6C6C6" d="M78 104h1v4h-1z"/><path fill="#FFF" d="M84 104v4"/><path fill="#C6C6C6" d="M83 104h1v4h-1z"/><path fill="#FFF" d="M88 104v4"/><path fill="#C6C6C6" d="M87 104h1v4h-1z"/><path fill="#FFF" d="M92 104v4"/><path fill="#C6C6C6" d="M92 104h1v4h-1z"/><path fill="#FFF" d="M97 104v4"/><path fill="#C6C6C6" d="M96 104h1v4h-1z"/><path fill="#FFF" d="M101 104v4"/><path fill="#C6C6C6" d="M101 104h1v4h-1z"/><path fill="#FFF" d="M70 112v3"/><path fill="#C6C6C6" d="M70 112h1v4h-1z"/><path fill="#FFF" d="M75 112v3"/><path fill="#C6C6C6" d="M74 112h1v4h-1z"/><path fill="#FFF" d="M79 112v3"/><path fill="#C6C6C6" d="M78 112h1v4h-1z"/><path fill="#FFF" d="M84 112v3"/><path fill="#C6C6C6" d="M83 112h1v4h-1z"/><path fill="#FFF" d="M88 112v3"/><path fill="#C6C6C6" d="M87 112h1v4h-1z"/><path fill="#FFF" d="M92 112v3"/><path fill="#C6C6C6" d="M92 112h1v4h-1z"/><path fill="#FFF" d="M97 112v3"/><path fill="#C6C6C6" d="M96 112h1v4h-1z"/><path fill="#FFF" d="M101 112v3"/><path fill="#C6C6C6" d="M101 112h1v4h-1z"/><path fill="#FFF" d="M70 119v4"/><path fill="#C6C6C6" d="M70 119h1v4h-1z"/><path fill="#FFF" d="M75 119v4"/><path fill="#C6C6C6" d="M74 119h1v4h-1z"/><path fill="#FFF" d="M79 119v4"/><path fill="#C6C6C6" d="M78 119h1v4h-1z"/><path fill="#FFF" d="M84 119v4"/><path fill="#C6C6C6" d="M83 119h1v4h-1z"/><path fill="#FFF" d="M88 119v4"/><path fill="#C6C6C6" d="M87 119h1v4h-1z"/><path fill="#FFF" d="M92 119v4"/><path fill="#C6C6C6" d="M92 119h1v4h-1z"/><path fill="#FFF" d="M97 119v4"/><path fill="#C6C6C6" d="M96 119h1v4h-1z"/><path fill="#FFF" d="M101 119v4"/><path fill="#C6C6C6" d="M101 119h1v4h-1z"/><path fill="#FFF" d="M70 127v4"/><path fill="#C6C6C6" d="M70 127h1v4h-1z"/><path fill="#FFF" d="M75 127v4"/><path fill="#C6C6C6" d="M74 127h1v4h-1z"/><path fill="#FFF" d="M79 127v4"/><path fill="#C6C6C6" d="M78 127h1v4h-1z"/><path fill="#FFF" d="M84 127v4"/><path fill="#C6C6C6" d="M83 127h1v4h-1z"/><path fill="#FFF" d="M88 127v4"/><path fill="#C6C6C6" d="M87 127h1v4h-1z"/><path fill="#FFF" d="M92 127v4"/><path fill="#C6C6C6" d="M92 127h1v4h-1z"/><path fill="#FFF" d="M97 127v4"/><path fill="#C6C6C6" d="M96 127h1v4h-1z"/><path fill="#FFF" d="M101 127v4"/><path fill="#C6C6C6" d="M101 127h1v4h-1z"/><path fill="#FFF" d="M35 112v3"/><path fill="#C6C6C6" d="M34 113h1v4h-1z"/><path fill="#FFF" d="M39 112v3"/><path fill="#C6C6C6" d="M38 113h1v4h-1z"/><path fill="#FFF" d="M43 112v3"/><path fill="#C6C6C6" d="M43 113h1v4h-1z"/><path fill="#FFF" d="M48 112v3"/><path fill="#C6C6C6" d="M47 113h1v4h-1z"/><path fill="#FFF" d="M52 112v3"/><path fill="#C6C6C6" d="M52 113h1v4h-1z"/><path fill="#FFF" d="M57 112v3"/><path fill="#C6C6C6" d="M56 113h1v4h-1z"/><path fill="#FFF" d="M35 119v4"/><path fill="#C6C6C6" d="M34 119h1v4h-1z"/><path fill="#FFF" d="M39 119v4"/><path fill="#C6C6C6" d="M38 119h1v4h-1z"/><path fill="#FFF" d="M43 119v4"/><path fill="#C6C6C6" d="M43 119h1v4h-1z"/><path fill="#FFF" d="M48 119v4"/><path fill="#C6C6C6" d="M47 119h1v4h-1z"/><path fill="#FFF" d="M52 119v4"/><path fill="#C6C6C6" d="M52 119h1v4h-1z"/><path fill="#FFF" d="M57 119v4"/><path fill="#C6C6C6" d="M56 119h1v4h-1z"/><path fill="#FFF" d="M35 127v4"/><path fill="#C6C6C6" d="M34 127h1v4h-1z"/><path fill="#FFF" d="M39 127v4"/><path fill="#C6C6C6" d="M38 127h1v4h-1z"/><path fill="#FFF" d="M43 127v4"/><path fill="#C6C6C6" d="M43 127h1v4h-1z"/><path fill="#FFF" d="M48 127v4"/><path fill="#C6C6C6" d="M47 127h1v4h-1z"/><path fill="#FFF" d="M52 127v4"/><path fill="#C6C6C6" d="M52 127h1v4h-1z"/><path fill="#FFF" d="M57 127v4"/><path fill="#C6C6C6" d="M56 127h1v4h-1z"/><path fill="#FFF" d="M112 97v4"/><path fill="#C6C6C6" d="M112 97h1v4h-1z"/><path fill="#FFF" d="M117 97v4"/><path fill="#C6C6C6" d="M116 97h1v4h-1z"/><path fill="#FFF" d="M121 97v4"/><path fill="#C6C6C6" d="M120 97h1v4h-1z"/><path fill="#FFF" d="M125 97v4"/><path fill="#C6C6C6" d="M125 97h1v4h-1z"/><path fill="#FFF" d="M130 97v4"/><path fill="#C6C6C6" d="M129 97h1v4h-1z"/><path fill="#FFF" d="M112 105v3"/><path fill="#C6C6C6" d="M112 104h1v4h-1z"/><path fill="#FFF" d="M117 105v3"/><path fill="#C6C6C6" d="M116 104h1v4h-1z"/><path fill="#FFF" d="M121 105v3"/><path fill="#C6C6C6" d="M120 104h1v4h-1z"/><path fill="#FFF" d="M125 105v3"/><path fill="#C6C6C6" d="M125 104h1v4h-1z"/><path fill="#FFF" d="M130 105v3"/><path fill="#C6C6C6" d="M129 104h1v4h-1z"/><path fill="#FFF" d="M112 112v4"/><path fill="#C6C6C6" d="M112 112h1v4h-1z"/><path fill="#FFF" d="M117 112v4"/><path fill="#C6C6C6" d="M116 112h1v4h-1z"/><path fill="#FFF" d="M121 112v4"/><path fill="#C6C6C6" d="M120 112h1v4h-1z"/><path fill="#FFF" d="M125 112v4"/><path fill="#C6C6C6" d="M125 112h1v4h-1z"/><path fill="#FFF" d="M130 112v4"/><path fill="#C6C6C6" d="M129 112h1v4h-1z"/><path fill="#FFF" d="M112 120v4"/><path fill="#C6C6C6" d="M112 120h1v4h-1z"/><path fill="#FFF" d="M117 120v4"/><path fill="#C6C6C6" d="M116 120h1v4h-1z"/><path fill="#FFF" d="M121 120v4"/><path fill="#C6C6C6" d="M120 120h1v4h-1z"/><path fill="#FFF" d="M125 120v4"/><path fill="#C6C6C6" d="M125 120h1v4h-1z"/><path fill="#FFF" d="M130 120v4"/><path fill="#C6C6C6" d="M129 120h1v4h-1z"/><path fill="#FFF" d="M112 128v4"/><path fill="#C6C6C6" d="M112 128h1v4h-1z"/><path fill="#FFF" d="M117 128v4"/><path fill="#C6C6C6" d="M116 128h1v4h-1z"/><path fill="#FFF" d="M121 128v4"/><path fill="#C6C6C6" d="M120 128h1v4h-1z"/><path fill="#FFF" d="M125 128v4"/><path fill="#C6C6C6" d="M125 128h1v4h-1z"/><path fill="#FFF" d="M130 128v4"/><path fill="#C6C6C6" d="M129 128h1v4h-1z"/><path fill="#FFF" d="M155 93v3"/><path fill="#C6C6C6" d="M155 93h1v4h-1z"/><path fill="#FFF" d="M160 93v3"/><path fill="#C6C6C6" d="M159 93h1v4h-1z"/><path fill="#FFF" d="M164 93v3"/><path fill="#C6C6C6" d="M164 93h1v4h-1z"/><path fill="#FFF" d="M169 93v3"/><path fill="#C6C6C6" d="M168 93h1v4h-1z"/><path fill="#FFF" d="M173 93v3"/><path fill="#C6C6C6" d="M172 93h1v4h-1z"/><g fill="#C6C6C6"><path d="M155 100v4M155 100h1v4h-1z"/></g><path fill="#FFF" d="M160 100v4"/><path fill="#C6C6C6" d="M159 100h1v4h-1z"/><path fill="#FFF" d="M164 100v4"/><path fill="#C6C6C6" d="M164 100h1v4h-1z"/><path fill="#FFF" d="M169 100v4"/><path fill="#C6C6C6" d="M168 100h1v4h-1z"/><path fill="#FFF" d="M173 100v4"/><path fill="#C6C6C6" d="M172 100h1v4h-1z"/><path fill="#FFF" d="M155 108v4"/><path fill="#C6C6C6" d="M155 108h1v4h-1z"/><path fill="#FFF" d="M160 108v4"/><path fill="#C6C6C6" d="M159 108h1v4h-1z"/><path fill="#FFF" d="M164 108v4"/><path fill="#C6C6C6" d="M164 108h1v4h-1z"/><path fill="#FFF" d="M169 108v4"/><path fill="#C6C6C6" d="M168 108h1v4h-1z"/><path fill="#FFF" d="M173 108v4"/><path fill="#C6C6C6" d="M172 108h1v4h-1z"/><path fill="#FFF" d="M155 116v4"/><path fill="#C6C6C6" d="M155 116h1v4h-1z"/><path fill="#FFF" d="M160 116v4"/><path fill="#C6C6C6" d="M159 116h1v4h-1z"/><path fill="#FFF" d="M164 116v4"/><path fill="#C6C6C6" d="M164 116h1v4h-1z"/><path fill="#FFF" d="M169 116v4"/><path fill="#C6C6C6" d="M168 116h1v4h-1z"/><path fill="#FFF" d="M173 116v4"/><path fill="#C6C6C6" d="M172 116h1v4h-1z"/><path fill="#FFF" d="M155 124v3"/><path fill="#C6C6C6" d="M155 123h1v4h-1z"/><path fill="#FFF" d="M160 124v3"/><path fill="#C6C6C6" d="M159 123h1v4h-1z"/><path fill="#FFF" d="M164 124v3"/><path fill="#C6C6C6" d="M164 123h1v4h-1z"/><path fill="#FFF" d="M169 124v3"/><path fill="#C6C6C6" d="M168 123h1v4h-1z"/><path fill="#FFF" d="M173 124v3"/><path fill="#C6C6C6" d="M172 123h1v4h-1z"/><path fill="#FFF" d="M13 96v3"/><path fill="#C6C6C6" d="M13 96h1v4h-1z"/><path fill="#FFF" d="M18 96v3"/><path fill="#C6C6C6" d="M17 96h1v4h-1z"/><path fill="#FFF" d="M22 96v3"/><path fill="#C6C6C6" d="M21 96h1v4h-1z"/><path fill="#FFF" d="M13 103v4"/><path fill="#C6C6C6" d="M13 103h1v4h-1z"/><path fill="#FFF" d="M18 103v4"/><path fill="#C6C6C6" d="M17 103h1v4h-1z"/><path fill="#FFF" d="M22 103v4"/><path fill="#C6C6C6" d="M21 103h1v4h-1z"/><path fill="#FFF" d="M13 111v4"/><path fill="#C6C6C6" d="M13 111h1v4h-1z"/><path fill="#FFF" d="M18 111v4"/><path fill="#C6C6C6" d="M17 111h1v4h-1z"/><path fill="#FFF" d="M22 111v4"/><path fill="#C6C6C6" d="M21 111h1v4h-1z"/><path fill="#FFF" d="M13 119v4"/><path fill="#C6C6C6" d="M13 119h1v4h-1z"/><path fill="#FFF" d="M18 119v4"/><path fill="#C6C6C6" d="M17 119h1v4h-1z"/><path fill="#FFF" d="M22 119v4"/><path fill="#C6C6C6" d="M21 119h1v4h-1z"/><path fill="#FFF" d="M13 127v3"/><path fill="#C6C6C6" d="M13 127h1v4h-1z"/><path fill="#FFF" d="M18 127v3"/><path fill="#C6C6C6" d="M17 127h1v4h-1z"/><path fill="#FFF" d="M22 127v3"/><path fill="#C6C6C6" d="M21 127h1v4h-1z"/><path fill="#FFF" d="M141 93v3"/><path fill="#C6C6C6" d="M140 93h1v4h-1z"/><path fill="#FFF" d="M141 100v4"/><path fill="#C6C6C6" d="M140 100h1v4h-1z"/><path fill="#FFF" d="M141 108v4"/><path fill="#C6C6C6" d="M140 108h1v4h-1z"/><path fill="#FFF" d="M141 116v4"/><path fill="#C6C6C6" d="M140 116h1v4h-1z"/><path fill="#FFF" d="M141 124v3"/><path fill="#C6C6C6" d="M140 123h1v4h-1z"/><path fill="#FFF" d="M187 93v3"/><path fill="#C6C6C6" d="M187 93h1v4h-1z"/><path fill="#FFF" d="M187 100v4"/><path fill="#C6C6C6" d="M187 100h1v4h-1z"/><path fill="#FFF" d="M187 108v4"/><path fill="#C6C6C6" d="M187 108h1v4h-1z"/><path fill="#FFF" d="M187 116v4"/><path fill="#C6C6C6" d="M187 116h1v4h-1z"/><path fill="#FFF" d="M187 124v3"/><path fill="#C6C6C6" d="M187 123h1v4h-1z"/><path fill="#FFF" d="M2 102v3"/><path fill="#C6C6C6" d="M1 102h1v4H1z"/><path fill="#FFF" d="M2 110v3"/><path fill="#C6C6C6" d="M1 110h1v4H1z"/><path fill="#FFF" d="M2 117v4"/><path fill="#C6C6C6" d="M1 117h1v4H1z"/><path fill="#FFF" d="M2 125v4"/><path fill="#C6C6C6" d="M1 125h1v4H1z"/><g stroke="#C6C6C6" stroke-width="1.2"><path d="M230 76h15l-3 20-4 10h-4z"/><path stroke-linejoin="bevel" d="m230 76-2 2-7-2v1l5 4 5 2z"/><path d="m232 87 5-3 5-8M232 90l5-3 6-9M233 92l3-2"/><path stroke-linejoin="bevel" d="m245 77 1 7 2 5h-1l-1-1-2-3z"/><path d="m245 90 5 1M243 96v10h-2l-1-4zM230 107h17v23h-17zM228 108h22M234 111v16M244 111v16M229 130h19v2h4v3h-27v-3h4zM243 132h5M235 68c0 4 1 6 3 6l3-6M235 70v-3M241 70v-3M235 67c2-2 4-2 6 0"/><path d="M235 68c1-2 4-2 6 0"/></g><path fill="#B9E5FB" d="M306 61h17l-8-10z"/><path fill="#00AEEF" fill-rule="nonzero" d="M306 62h18l-1-1-8-10-1-1v1l-9 10v1h1Zm16-1h-15l7-9 8 9Z"/><path fill="#FFF" d="M323 62h-17v32h17z"/><path fill="#C6C6C6" fill-rule="nonzero" d="M306 95h17l1-1V62l-1-1h-17l-1 1v32l1 1Zm16-2h-15V62h15v31Z"/><path fill="#FFF" d="M323 50h-17v12h17z"/><path fill="#C6C6C6" fill-rule="nonzero" d="M306 62h18V50l-1-1h-17l-1 1v12h1Zm16-1h-15V50h15v11Z"/><path fill="#FFF" d="M324 48h-19v2h19z"/><path fill="#C6C6C6" fill-rule="nonzero" d="M305 50h20v-2l-1-1h-19l-1 1v2h1Zm18-1h-18v-1h18v1Z"/><path fill="#B9E5FB" d="M310 68v4"/><path fill="#00AEEF" d="M311 68h-1v4h1z"/><path fill="#B9E5FB" d="M314 68v4"/><path fill="#00AEEF" d="M315 68h-1v4h1z"/><path fill="#B9E5FB" d="M319 68v4"/><path fill="#00AEEF" d="M320 68h-1v4h1z"/><path fill="#B9E5FB" d="M310 76v4"/><path fill="#00AEEF" d="M311 76h-1v4h1z"/><path fill="#B9E5FB" d="M314 76v4"/><path fill="#00AEEF" d="M315 76h-1v4h1z"/><path fill="#B9E5FB" d="M319 76v4"/><path fill="#00AEEF" d="M320 76h-1v4h1z"/><path fill="#B9E5FB" d="M310 84v3"/><path fill="#00AEEF" d="M311 84h-1v4h1z"/><path fill="#B9E5FB" d="M314 84v3"/><path fill="#00AEEF" d="M315 84h-1v4h1z"/><path fill="#B9E5FB" d="M319 84v3"/><path fill="#00AEEF" d="M320 84h-1v4h1z"/><path fill="#B9E5FB" d="M310 54v3"/><path fill="#C6C6C6" d="M311 54h-1v4h1z"/><path fill="#B9E5FB" d="M314 54v3"/><path fill="#C6C6C6" d="M315 54h-1v4h1z"/><path fill="#B9E5FB" d="M319 54v3"/><path fill="#C6C6C6" d="M320 54h-1v4h1z"/><path fill="#FFF" d="M306 66h-18v28h18z"/><path fill="#C6C6C6" fill-rule="nonzero" d="M287 95h19l1-1V66l-1-1h-19v30Zm18-2h-17V66h17v27Z"/><path fill="#FFF" d="M288 65h18l-2-7h-14z"/><path fill="#C6C6C6" fill-rule="nonzero" d="M287 66h19v-1l-2-7v-1h-14l-1 1-2 7v1Zm18-1h-17l2-6h13l2 6Z"/><path fill="#B9E5FB" d="M293 74h-12v20h12z"/><path fill="#00AEEF" fill-rule="nonzero" d="M282 95h11l1-1V74l-1-1h-11l-1 1v20l1 1Zm11-2h-11V74h11v19Z"/><path fill="#FFF" d="M293 74h-12l6-10z"/><path fill="#C6C6C6" fill-rule="nonzero" d="M282 74h12l-6-11h-1l-6 11h1Zm10-1h-9l4-8 5 8Z"/><path fill="#B9E5FB" d="M306 72h-13v23h13z"/><path fill="#00AEEF" fill-rule="nonzero" d="M293 95h13l1-1V71h-14v24Zm12-2h-11V72h11v21Z"/><path fill="#B9E5FB" d="M290 78v4"/><path fill="#00AEEF" d="M290 78h-1v4h1z"/><path fill="#B9E5FB" d="M285 78v4"/><path fill="#00AEEF" d="M286 78h-1v4h1z"/><path fill="#B9E5FB" d="M290 86v4"/><path fill="#00AEEF" d="M290 86h-1v4h1z"/><path fill="#B9E5FB" d="M285 86v4"/><path fill="#00AEEF" d="M286 86h-1v4h1z"/><path fill="#B9E5FB" d="M300 77v4"/><path fill="#00AEEF" d="M300 77h-1v4h1z"/><path fill="#B9E5FB" d="M300 85v3"/><path fill="#00AEEF" d="M300 85h-1v4h1z"/><path fill="#FFF" d="m288 66 2 1a6 6 0 0 1 12 1v1a6 6 0 0 1 6 0 6 6 0 0 1 6-2v-1a6 6 0 0 1 12-1h2l5 2a6 6 0 0 1 6-2 6 6 0 1 1 12 0h2a6 6 0 0 1 5 8l2-1 5 2a6 6 0 0 1 11 3l4 1a6 6 0 0 1 12 1l3 2a6 6 0 0 1 8-3 6 6 0 0 1 11-1v1l3-1h3a6 6 0 0 1 6-4 6 6 0 0 1 11-3l2-1 5 2 2-2-2-3a6 6 0 0 1 10-5h1a6 6 0 0 1 7 5l2-1a6 6 0 0 1 6 7h2c2-1 4 0 5 1a6 6 0 0 1 9-4c1-2 2-4 5-4s5 1 6 3h1c3 0 6 2 6 5l5 1 4-2c2 0 5 1 6 4a6 6 0 0 1 4-2 6 6 0 0 1 11-4l2-1a6 6 0 0 1 7 6l3 1a6 6 0 0 1 9-5 6 6 0 1 1 12 1 6 6 0 0 1 7 6l4 2c1-2 2-3 4-3 3-1 6 2 7 5a6 6 0 0 1 3-1 6 6 0 0 1 11-2l1-1 4 2a6 6 0 1 1 12 1 6 6 0 0 1 5 6h1l4 1a6 6 0 0 1 10-2c1-1 2-3 4-3 0-3 2-5 5-5a6 6 0 0 1 7 5l3 1a6 6 0 0 1 11 2v44H282V72c0-3 2-6 6-6Z"/><path fill="#C6C6C6" fill-rule="nonzero" d="M282 131h388l1-1V86a7 7 0 0 0-12-3h-3v-1c0-3-4-6-7-5-3 0-5 3-6 5l-3 3c-2-1-4-2-5-1-2 0-4 1-5 3l-4-1h-1c0-3-2-5-4-6v-1c-1-4-4-6-8-6-3 1-5 3-5 5h-4a7 7 0 0 0-13 2l-2 1a7 7 0 0 0-11-2l-3-1v-2a7 7 0 0 0-8-5v-1c0-3-4-6-7-5-3 0-5 3-6 5a7 7 0 0 0-8 5l-2-1a7 7 0 0 0-9-5c-2-2-4-3-7-3a7 7 0 0 0-5 7l-1 1-3 1a7 7 0 0 0-10-2l-4-1a7 7 0 0 0-7-5c-2-2-4-3-7-3l-5 4h-4c-3 0-5 1-5 4a7 7 0 0 0-6-1v-1c-1-4-4-6-8-5a7 7 0 0 0-9-5l-5-2a7 7 0 0 0-4 11l-1 1a7 7 0 0 0-7-1 7 7 0 0 0-12 4h-1c-2 0-4 1-4 3a7 7 0 0 0-5 1 7 7 0 0 0-13 0 7 7 0 0 0-7 3l-3-1a7 7 0 0 0-12-2l-3-1a7 7 0 0 0-13-3 7 7 0 0 0-5-1v-1a7 7 0 0 0-7-7 7 7 0 0 0-13 0h-1l-5 2a7 7 0 0 0-7-2c-1-2-3-4-6-4s-6 2-7 6l-6 2a7 7 0 0 0-4 0 7 7 0 0 0-13-2h-2c-4 0-7 3-7 6v58l1 1Zm387-2H282V72a5 5 0 0 1 8-4h1v-1a5 5 0 0 1 11 1v1c0 1 0 1 0 0h3l2 1h1a5 5 0 0 1 6-3h1v-1c0-2 2-5 5-5 2 0 5 2 5 4v1h1l2-1c2 0 3 1 4 3h1a5 5 0 0 1 6-2h1v-1c0-3 2-6 5-6s6 3 6 6v1l2-1a5 5 0 0 1 5 8h2l4 2a1 1 0 0 0 1 0 5 5 0 0 1 10 2h1l3 2h1l1-1a5 5 0 0 1 10 1l1 1 3 1h1a5 5 0 0 1 6-2h1v-1a5 5 0 0 1 11-1v1h1l2-1 3 1v-1l4-3h2v-1a5 5 0 0 1 5-6c2 0 5 1 5 3l1 1a5 5 0 0 1 7 0h1l1-1v-1l-2-3a5 5 0 0 1 10-5s0 1 0 0h1c3 0 6 2 7 5h2a5 5 0 0 1 6 6v1h1l1-1 4 1h1a5 5 0 0 1 9-3l1-1a5 5 0 0 1 10-1v1h1a5 5 0 0 1 6 4l1 1c1-1 3 0 4 1h1c0-1 1-2 3-2s4 1 5 3h1a5 5 0 0 1 4-1l1-1a5 5 0 0 1 4-6c2-1 4 0 6 2h2a5 5 0 0 1 7 4v2h3a1 1 0 0 0 1 0 5 5 0 0 1 8-4v-1c0-2 2-4 5-5a5 5 0 0 1 6 6h1a5 5 0 0 1 7 4v2a1 1 0 0 0 0 1l3 1h1l4-2c3-1 6 1 6 4h1a5 5 0 0 1 3 0v-1h1a5 5 0 0 1 10-2h1l4 1h1a5 5 0 1 1 10 1l1 1a5 5 0 0 1 4 5v1h6v1l1-1a5 5 0 0 1 8-1h1v-1l4-2v-1a5 5 0 0 1 11 0v1h1l2 1a1 1 0 0 0 1-1l4-2a5 5 0 0 1 6 6v41Z"/><path fill="#FFF" d="m288 80 2 1a6 6 0 0 1 12 1v1a6 6 0 0 1 6 0 6 6 0 0 1 6-3 6 6 0 0 1 12-1h2c2 0 4 0 5 2a6 6 0 0 1 6-2 6 6 0 1 1 12 0h2a6 6 0 0 1 5 7h2l5 2a6 6 0 0 1 11 2l4 2a6 6 0 0 1 12 1l3 1a6 6 0 0 1 8-2 6 6 0 0 1 11-1h6a6 6 0 0 1 6-4 6 6 0 0 1 11-3l2-1c2 0 4 0 5 2l2-2-2-3a6 6 0 0 1 10-5l1-1a6 6 0 0 1 7 5h2a6 6 0 0 1 6 7l2-1 5 1a6 6 0 0 1 9-3c1-2 2-4 5-4 3-1 5 1 6 3h1c3-1 6 2 6 5l5 1 4-2c2 0 5 1 6 4a6 6 0 0 1 4-2 6 6 0 0 1 11-4l2-1a6 6 0 0 1 7 6h3a6 6 0 0 1 9-4 6 6 0 1 1 12 0 6 6 0 0 1 7 7l4 1 4-2c3-1 6 1 7 4a6 6 0 0 1 3 0 6 6 0 0 1 11-3h1l4 1a6 6 0 1 1 12 2 6 6 0 0 1 5 6h1c1-1 3 0 4 1a6 6 0 0 1 10-2c1-2 2-3 4-3 0-3 2-5 5-6a6 6 0 0 1 7 6l3 1a6 6 0 0 1 11 2v30H282V86c0-3 2-6 6-6Z"/><path fill="#C6C6C6" fill-rule="nonzero" d="M282 131h388l1-1V99a7 7 0 0 0-12-2l-3-1c0-4-4-6-7-6-3 1-5 3-6 6l-3 3-5-2-5 4-4-1h-1v-1c0-2-2-4-4-5v-1c-1-4-4-6-8-6-3 1-5 3-5 5l-4-1a7 7 0 0 0-13 3h-2a7 7 0 0 0-11-2l-3-1v-1a7 7 0 0 0-8-6c0-4-4-6-7-6-3 1-5 3-6 6a7 7 0 0 0-8 4h-2v-1a7 7 0 0 0-9-4c-2-2-4-3-7-3a7 7 0 0 0-5 7h-1l-3 1a7 7 0 0 0-10-1l-4-1a7 7 0 0 0-7-5c-2-2-4-4-7-3-2 0-4 2-5 4l-4-1c-3 1-5 2-5 4a7 7 0 0 0-6 0v-1c-1-4-4-6-8-6a7 7 0 0 0-9-4c-1-2-3-2-5-2a7 7 0 0 0-4 11h-1a7 7 0 0 0-7 0 7 7 0 0 0-12 3l-1 1c-2 0-4 1-4 3a7 7 0 0 0-5 0 7 7 0 0 0-13 1 7 7 0 0 0-7 2l-3-1a7 7 0 0 0-12-1l-3-1a7 7 0 0 0-13-3 7 7 0 0 0-5-2v-1a7 7 0 0 0-7-6 7 7 0 0 0-13 0h-1c-2 0-4 0-5 2a7 7 0 0 0-7-2c-1-3-3-5-6-5s-6 3-7 6l-6 3a7 7 0 0 0-4 0 7 7 0 0 0-13-2l-2-1c-4 0-7 3-7 7v44l1 1Zm387-2H282V86a5 5 0 0 1 8-5h1a5 5 0 0 1 11 1v1h6a5 5 0 0 1 6-2l1-1c0-3 2-5 5-5 2 0 5 2 5 4v1h1l2-1 4 2h1a5 5 0 0 1 6-2h1v-1c0-2 2-5 5-5s6 3 6 5v1h2a5 5 0 0 1 5 7v1h2l4 1a1 1 0 0 0 1 0 5 5 0 0 1 10 2l1 1 3 1 1 1 1-1a5 5 0 0 1 10 1l1 1 3 1h1a5 5 0 0 1 6-3h1a5 5 0 0 1 11-1v1h1l2-1h3a5 5 0 0 1 6-3v-1a5 5 0 0 1 5-6c2-1 5 1 5 3h1a5 5 0 0 1 7 1h1l1-2v-1l-2-3a5 5 0 0 1 10-4h1c3-1 6 1 7 4v1h2a5 5 0 0 1 6 6h2l4 1h1v-1a5 5 0 0 1 9-3v1l1-1a5 5 0 0 1 10-1v1l1-1a5 5 0 0 1 6 5h1l4 1h1l3-1c2-1 4 1 5 3h1a5 5 0 0 1 4-2h1a5 5 0 0 1 4-7l6 3h1l1-1a5 5 0 0 1 7 5v1l3 1a1 1 0 0 0 1 0 5 5 0 0 1 8-4v-1c0-3 2-5 5-5a5 5 0 0 1 6 5v1h1a5 5 0 0 1 7 4v2a1 1 0 0 0 0 1l3 1h1l4-3c3 0 6 2 6 5h1a5 5 0 0 1 3-1h1a5 5 0 0 1 10-3l1 1c1-1 3 0 4 1l1-1a5 5 0 1 1 10 2h1c2 1 4 2 4 5v1h2l4 1h1a5 5 0 0 1 8-2h1l4-3a5 5 0 0 1 11 0l1 1h2a1 1 0 0 0 1 0l4-3a5 5 0 0 1 6 6v28Z"/><path fill="#FFF" d="M294 85h-13v51h13z"/><path fill="#C6C6C6" fill-rule="nonzero" d="M282 136h13V84h-14v51l1 1Zm12-1h-12V85h12v50Z"/><path fill="#FFF" d="M294 79h-13v6h13z"/><path fill="#C6C6C6" fill-rule="nonzero" d="M282 85h13v-7h-13l-1 1v5l1 1Zm12-1h-12v-5h12v5Z"/><path fill="#FFF" d="m288 73-7 6h13z"/><path fill="#C6C6C6" fill-rule="nonzero" d="M282 79h13a1 1 0 0 0 0-1l-7-6-7 6v1h1Zm11-1h-10l5-5 5 5Z"/><path fill="#FFF" d="M327 85h-33v51h33z"/><path fill="#C6C6C6" fill-rule="nonzero" d="M295 136h33V84h-34v51l1 1Zm32-1h-32V85h32v50Z"/><path fill="#FFF" d="M327 79h-33v6h33z"/><path fill="#C6C6C6" fill-rule="nonzero" d="M295 85h33v-7h-33l-1 1v5l1 1Zm32-1h-32v-5h32v5Z"/><path fill="#FFF" d="M308 84h6v-4a3 3 0 0 0-7 0v4h1Z"/><path fill="#C6C6C6" fill-rule="nonzero" d="M308 85h6l1-1v-4a4 4 0 0 0-8 0v4l1 1Zm5-1h-5v-4a3 3 0 0 1 5 0v4Z"/><path fill="#FFF" d="M298 84h7v-4a3 3 0 0 0-7 0v4Z"/><path fill="#C6C6C6" fill-rule="nonzero" d="M298 85h7v-5a4 4 0 0 0-8 0v4l1 1Zm6-1h-5v-4a3 3 0 0 1 5 0v4Z"/><path fill="#FFF" d="M317 84h6v-4a3 3 0 0 0-6 0v4Z"/><path fill="#C6C6C6" fill-rule="nonzero" d="M317 85h6l1-1v-4a4 4 0 0 0-8 0v4l1 1Zm6-1h-5v-4a3 3 0 0 1 5 0v4Z"/><path fill="#FFF" d="M320 93v3"/><path fill="#FFF" d="M316 93v3"/><path fill="#C6C6C6" d="M316 93h-1v4h1z"/><path fill="#FFF" d="M311 93v3"/><path fill="#C6C6C6" d="M312 93h-1v4h1z"/><path fill="#FFF" d="M307 93v3"/><path fill="#C6C6C6" d="M307 93h-1v4h1z"/><path fill="#FFF" d="M302 93v3"/><path fill="#C6C6C6" d="M303 93h-1v4h1z"/><g fill="#C6C6C6"><path d="M320 100v4M321 100h-1v4h1z"/></g><path fill="#FFF" d="M316 100v4"/><path fill="#C6C6C6" d="M316 100h-1v4h1z"/><path fill="#FFF" d="M311 100v4"/><path fill="#C6C6C6" d="M312 100h-1v4h1z"/><path fill="#FFF" d="M307 100v4"/><path fill="#C6C6C6" d="M307 100h-1v4h1z"/><path fill="#FFF" d="M302 100v4"/><path fill="#C6C6C6" d="M303 100h-1v4h1z"/><path fill="#FFF" d="M320 108v4"/><path fill="#FFF" d="M316 108v4"/><path fill="#C6C6C6" d="M316 108h-1v4h1z"/><path fill="#FFF" d="M311 108v4"/><path fill="#C6C6C6" d="M312 108h-1v4h1z"/><path fill="#FFF" d="M307 108v4"/><path fill="#C6C6C6" d="M307 108h-1v4h1z"/><path fill="#FFF" d="M302 108v4"/><path fill="#C6C6C6" d="M303 108h-1v4h1z"/><path fill="#FFF" d="M320 116v4"/><path fill="#FFF" d="M316 116v4"/><path fill="#C6C6C6" d="M316 116h-1v4h1z"/><path fill="#FFF" d="M311 116v4"/><path fill="#C6C6C6" d="M312 116h-1v4h1z"/><path fill="#FFF" d="M307 116v4"/><path fill="#C6C6C6" d="M307 116h-1v4h1z"/><path fill="#FFF" d="M302 116v4"/><path fill="#C6C6C6" d="M303 116h-1v4h1z"/><path fill="#FFF" d="M320 124v3"/><path fill="#FFF" d="M316 124v3"/><path fill="#C6C6C6" d="M316 123h-1v4h1z"/><path fill="#FFF" d="M311 124v3"/><path fill="#C6C6C6" d="M312 123h-1v4h1z"/><path fill="#FFF" d="M307 124v3"/><path fill="#C6C6C6" d="M307 123h-1v4h1z"/><path fill="#FFF" d="M302 124v3"/><path fill="#C6C6C6" d="M303 123h-1v4h1z"/><path fill="#FFF" d="M288 93v3"/><path fill="#C6C6C6" d="M289 93h-1v4h1z"/><path fill="#FFF" d="M288 100v4"/><path fill="#C6C6C6" d="M289 100h-1v4h1z"/><path fill="#FFF" d="M288 108v4"/><path fill="#C6C6C6" d="M289 108h-1v4h1z"/><path fill="#FFF" d="M288 116v4"/><path fill="#C6C6C6" d="M289 116h-1v4h1z"/><path fill="#FFF" d="M288 124v3"/><path fill="#C6C6C6" d="M289 123h-1v4h1z"/><path fill="#FFF" d="M212 32h-1c-1-2-3-3-6-3-2 0-4 1-5 4l-3-1c-2 0-4 2-4 5h23c0-3-2-5-4-5Z"/><path fill="#C6C6C6" fill-rule="nonzero" d="M216 37h-23c0-3 2-6 4-6l3 1c1-3 3-4 5-4 3 0 5 1 6 3h1c3 0 5 3 5 6h-1Zm-22-1h22c-1-2-2-4-4-4l-1 1-1-1c-1-2-3-3-5-3s-4 2-5 4h-1l-2-1c-1 0-3 2-3 4Z"/><path fill="#FFF" d="m125 20-1 1c-1-2-3-4-5-4-3 0-5 2-6 4l-3-1c-2 0-4 3-4 5h23c0-2-2-5-4-5Z"/><path fill="#C6C6C6" fill-rule="nonzero" d="M129 26h-23v-1c0-3 2-5 4-5h3c1-2 3-3 6-3 2 0 4 1 5 3h1c3 0 5 2 5 5l-1 1Zm-22-1h22c-1-2-2-4-4-4h-2l-4-3c-3 0-5 1-6 4h-1l-2-1c-1 0-3 2-3 4Z"/><path fill="#FFF" d="M241 4h-1c-1-2-3-3-5-3-3 0-5 2-6 4l-2-1c-3 0-5 2-5 5h23c0-3-1-5-4-5Z"/><path fill="#C6C6C6" fill-rule="nonzero" d="M245 10h-23V9c0-3 2-6 5-6l2 1c1-2 3-4 6-4 2 0 4 1 5 3h1c3 0 5 3 5 6l-1 1Zm-22-2h22c0-2-2-3-4-3h-2c-1-2-2-3-4-3l-6 3v1-1h-2c-2 0-4 1-4 3ZM327 22h-23l-1-1c0-3 3-6 5-6l2 1c2-2 4-4 6-4s5 1 6 3h1c3 0 5 3 5 6l-1 1Zm-22-2h21c0-2-1-3-3-3h-2c-1-2-3-3-5-3s-4 1-5 3v1l-1-1h-2c-2 0-3 1-3 3Z"/><path fill="#FFF" d="M33 28h-1c-2-2-3-3-6-3-2 0-4 1-5 4l-3-1c-2 0-4 2-4 5h23c0-3-2-5-4-5Z"/><path fill="#C6C6C6" fill-rule="nonzero" d="M37 33H13c0-3 3-6 5-6l2 1c2-3 4-4 6-4 3 0 5 1 6 3h1c3 0 5 3 5 6h-1Zm-22-1h21c0-2-1-4-3-4h-2c-1-2-3-3-5-3s-4 2-5 4h-1l-2-1c-2 0-3 2-3 4Z"/><g transform="translate(70 1)"><circle cx="11.8" cy="11.8" r="11.2" fill="#FFF"/><path fill="#C6C6C6" fill-rule="nonzero" d="M12 24a12 12 0 1 1 0-24 12 12 0 0 1 0 24Zm0-23a11 11 0 0 0 0 21 11 11 0 0 0 0-21Z"/></g><path fill="#C6C6C6" d="M-185 135h623v1h-623z"/><path fill="#C6C6C6" d="M-185 138h2582v1H-185z"/></g><path fill="#FFF" stroke="#1B1B1B" stroke-width="1.2" d="M28 135h44v-33H40v-7H28v40Z"/><path fill="#1B1B1B" d="M43 121h1v3h-1z"/><path fill="#FFF" d="M46 121h4v3h-4z"/><path fill="#1B1B1B" d="M50 121h1v3h-1zM53 121h1v3h-1zM56 121h1v3h-1zM60 121h1v3h-1zM43 127h1v3h-1zM46 127h1v3h-1z"/><g fill="#FFA511"><path d="M32 115h1v3h-1zM36 115h1v3h-1zM32 121h1v3h-1zM36 121h1v3h-1zM32 103h4v3h-4zM36 103h1v3h-1zM32 109h1v3h-1zM36 109h1v3h-1zM32 127h1v3h-1zM36 127h1v3h-1z"/></g><path fill="#1B1B1B" d="M50 127h1v3h-1zM53 127h1v3h-1zM43 109h1v3h-1zM46 109h1v3h-1zM50 109h1v3h-1zM53 109h1v3h-1zM43 115h1v3h-1zM46 115h1v3h-1zM50 115h1v3h-1z"/><path fill="#FFF" d="M53 115h4v3h-4z"/><path fill="#1B1B1B" d="M56 127h1v3h-1z"/><path fill="#FFF" d="M60 127h4v3h-4z"/><path fill="#1B1B1B" d="M63 121h1v3h-1zM66 121h1v3h-1zM63 127h1v3h-1zM66 127h1v3h-1zM56 109h1v3h-1zM60 109h1v3h-1zM56 115h1v3h-1zM60 115h1v3h-1zM63 109h1v3h-1zM66 109h1v3h-1zM63 115h1v3h-1zM66 115h1v3h-1z"/><path fill="#FFF" stroke="#000" stroke-width=".9" d="M93 127v-12l-1-1H77v13h16Z"/><path fill="#0A0B09" d="m80 132-1-1h-2v4h3v-3ZM93 132l-1-1h-1l-1 1v3h3v-3Z"/><path fill="#FFA511" stroke="#000" stroke-width=".9" d="m94 127-2-1H77l-1 1v5l1 1h15l2-1v-5Z"/><path fill="#E9EBFF" d="M79 131h-2v-3h2zM92 128v3h-1v-3z"/><path fill="#0A0B09" d="M94 123v1h-1l-1-1v-3l1-1h1v4ZM75 123l1 1h1l1-1v-3l-1-1h-1l-1 1v3Z"/><path fill="#0A0B09" d="M77 121h2v1h-2zM90 121h2v1h-2z"/><path fill="#FFA511" d="M91 127H78v-9l2-1h10l1 1v9Z"/><path fill="#E9EBFF" d="M90 119v-1H80v6h10v-5Z"/><path fill="#FFA511" d="M80 126h9v6h-9z"/><path fill="#000" d="M80 127h9v1h-9zM80 129h9v1h-9z"/><path fill="#FFF" stroke="#000" stroke-width=".9" d="M113 127v-11H98v11h15Z"/><path fill="#0A0B09" d="m101 132-1-1h-2v4h3v-3ZM114 132l-1-1h-1l-1 1v3h3v-3Z"/><path fill="#FFA511" stroke="#000" stroke-width=".9" d="m115 127-2-1H98l-1 1v5l1 1h15l2-1v-5Z"/><path fill="#0A0B09" d="M115 124h-3v-3h2l1 1v2ZM97 124h3v-2l-1-1h-1l-1 1v2Z"/><path fill="#FFA511" d="M114 127H98l2-8 1-1h10l1 1 2 8Z"/><path fill="#E9EBFF" d="M100 130h-1v-3h1zM113 127v3h-2v-3zM111 120l-1-1h-8l-1 1-1 3 1 1h10v-4Z"/><path fill="#FFA511" d="M101 126h10v6h-10z"/><path fill="#000" d="M101 128h10v2h-10z"/><path fill="#1B1B1B" d="m52 95 2 1v4h-2a3 3 0 0 1-2 0l1-1h1l1-1h-2v-1h2-2l-1-1 2-1Zm7 1-1 1h-1v3h-1v-3h-2v-1h5Zm4 3v1h-4l-1-1 1-1 2-1h-2v-1a4 4 0 0 1 2-1l1 1 1 1v2Zm-3 0h1v-1h-1v1Zm10-3-1 2 1 2h-2v-2h-1v2h-1v-2l-1 2h-2l1-2-1-2h2l1 1v-1h1v1h1v-1h2Z"/><g transform="translate(43 95)"><rect width="5.4" height="5.4" fill="#1B1B1B" rx=".3"/><path fill="#FFA511" d="M2 0h2v2H2v1z"/></g><path fill="#FFF" stroke="#000" stroke-width=".9" d="M182 124v16h-41v-4h-2v-17h43v5Z"/><path fill="#1B1B1B" d="m155 125 2 1 1 2-1 2h-2a3 3 0 0 1-1 0v-1h2v-1h-1v-1h1-2v-1l1-1Zm7 1v1h-1v3h-2v-3h-1v-1h4Zm4 3v1h-4v-2l2-1h1-2l-1-1a4 4 0 0 1 2-1l2 1v3Zm-2 0h1v-1h-1l-1 1h1Zm9-3-1 2 1 2h-1l-1-2v2h-2v-2l-1 2h-1l1-2-1-2h1l1 1v-1h2v1l1-1h1Z"/><g transform="translate(146 125)"><rect width="5.4" height="5.4" fill="#1B1B1B" rx=".3"/><path fill="#FFA511" d="M2 0h2v2H2v1z"/></g><path fill="url(#a)" d="M6 0v6H0s2-4 6-6Z" transform="matrix(-1 0 0 1 188 119)"/><g transform="matrix(-1 0 0 1 203 124)"><mask id="c" fill="#fff"><use xlink:href="#b"/></mask><path fill="#FFA511" d="M21 0h-6c-3 0-8 8-8 8s-3 0-5 2c-3 1-2 6-2 6h4c0-2 1-4 4-4 2 0 4 2 4 4h9V0" mask="url(#c)"/><path fill="#E9EBFF" d="M0 13h2v-3H0z" mask="url(#c)"/></g><path fill="#FF3939" d="M143 137h-2v2h2z"/><g transform="matrix(-1 0 0 1 194 125)"><mask id="e" fill="#fff"><use xlink:href="#d"/></mask><path fill="#E9EBFF" d="M11 6H0s4-6 6-6h5v6" mask="url(#e)"/></g><path fill="#0A0B09" d="M191 141h-10v-1h10z"/><path fill="#0A0B09" d="M182 141h-41v-1h41zM182 136h-43 43z"/><g transform="matrix(-1 0 0 1 156 137)"><mask id="g" fill="#fff"><use xlink:href="#f"/></mask><path fill="#0A0B09" d="M5 0C2 0 0 2 0 5s2 5 5 5 5-2 5-5-2-5-5-5" mask="url(#g)"/></g><path fill="#FFF" d="M151 145c2 0 3-1 3-3s-1-3-3-3-3 1-3 3 1 3 3 3"/><path fill="#010101" d="m151 143 1-1-1-1-1 1 1 1"/><path fill="url(#h)" d="M5 0C2 0 0 2 0 5s2 5 5 5 5-2 5-5-2-5-5-5" transform="matrix(-1 0 0 1 200 136)"/><path fill="#FFF" d="M195 144c2 0 3-1 3-3 0-1-1-2-3-2s-3 1-3 2c0 2 1 3 3 3"/><path fill="#010101" d="m195 142 1-1-1-1-1 1 1 1"/><path fill="#000" fill-rule="nonzero" d="M125 124a3 3 0 0 0 0 6 3 3 0 0 0 0-6Zm0 2 2 1-2 1-1-1 1-1Zm1 16v2h2l-2-2Z"/><path stroke="#000" stroke-linejoin="round" stroke-width="1.5" d="M124 126h5"/><path fill="#FFA511" d="M128 136v3h7v-6h-5l1 1h2v4h-2l-1-3z"/><path stroke="#000" stroke-linejoin="round" stroke-width="1.5" d="M125 144v-13c2 1 4 3 4 5"/></g></svg>