<?xml version="1.0" encoding="UTF-8"?>
<svg width="12px" height="12px" viewBox="0 0 12 12" version="1.1" xmlns="http://www.w3.org/2000/svg" xmlns:xlink="http://www.w3.org/1999/xlink">
    <!-- Generator: Sketch 52.5 (67469) - http://www.bohemiancoding.com/sketch -->
    <title>Group 9</title>
    <desc>Created with Sketch.</desc>
    <defs>
        <polygon id="path-1" points="0 0.0539661972 11.9451086 0.0539661972 11.9451086 11.8309859 0 11.8309859"></polygon>
        <path d="M5.97291429,0.053915493 C2.67394286,0.053915493 0,2.69053521 0,5.94253521 C0,9.19453521 2.67394286,11.8309859 5.97291429,11.8309859 C9.27137143,11.8309859 11.9451429,9.19453521 11.9451429,5.94253521 C11.9451429,2.69053521 9.27137143,0.053915493 5.97291429,0.053915493 Z" id="path-3"></path>
    </defs>
    <g id="website" stroke="none" stroke-width="1" fill="none" fill-rule="evenodd">
        <g id="final_version" transform="translate(-1188.000000, -21.000000)">
            <g id="Group-43" transform="translate(1187.000000, 18.000000)">
                <g id="Group-9" transform="translate(1.000000, 3.000000)">
                    <g id="Group-3" transform="translate(0.000000, 0.115065)">
                        <mask id="mask-2" fill="white">
                            <use xlink:href="#path-1"></use>
                        </mask>
                        <g id="Clip-2"></g>
                        <path d="M-3.42857143e-05,5.94258592 C-3.42857143e-05,9.19458592 2.67390857,11.8310366 5.97288,11.8310366 C9.27133714,11.8310366 11.9451086,9.19458592 11.9451086,5.94258592 C11.9451086,2.6904169 9.27133714,0.0539661972 5.97288,0.0539661972 C2.67390857,0.0539661972 -3.42857143e-05,2.6904169 -3.42857143e-05,5.94258592" id="Fill-1" fill="#044DA1" mask="url(#mask-2)"></path>
                    </g>
                    <g id="Group-6" transform="translate(0.000000, 0.115065)">
                        <mask id="mask-4" fill="white">
                            <use xlink:href="#path-3"></use>
                        </mask>
                        <g id="Clip-5"></g>
                        <polygon id="Fill-4" fill="#044DA1" mask="url(#mask-4)" points="0 11.8309859 11.9451429 11.8309859 11.9451429 0.054084507 0 0.054084507"></polygon>
                    </g>
                    <path d="M1.02301714,6.05484507 C1.02301714,3.35890141 3.23976,1.17405634 5.97421714,1.17405634 C8.70953143,1.17405634 10.9264457,3.35890141 10.9264457,6.05484507 C10.9264457,8.7516338 8.70953143,10.9363099 5.97421714,10.9363099 C5.43421714,10.9363099 4.91496,10.8507887 4.42810286,10.6942817 C4.78073143,8.68014085 6.07090286,7.03647887 7.77644571,6.33997183 C7.97890286,6.57 8.27684571,6.71484507 8.60941714,6.71484507 C9.21781714,6.71484507 9.70930286,6.23028169 9.70930286,5.6304507 C9.70930286,5.03078873 9.21781714,4.54504225 8.60941714,4.54504225 C8.00170286,4.54504225 7.51107429,5.02926761 7.50850286,5.62825352 C5.33238857,6.27338028 3.57010286,7.77016901 2.67490286,9.69507042 C2.39050286,9.44509859 2.13730286,9.16284507 1.91787429,8.85473239 C1.96964571,6.98104225 2.91010286,5.34261972 4.31856,4.37653521 C4.51998857,4.60132394 4.81381714,4.74143662 5.14124571,4.74143662 C5.74878857,4.74143662 6.24164571,4.25569014 6.24164571,3.65602817 C6.24164571,3.05585915 5.74878857,2.57061972 5.14124571,2.57061972 C4.53301714,2.57061972 4.04016,3.05585915 4.04016,3.65602817 C4.04016,3.68814085 4.04221714,3.71974648 4.04376,3.74983099 C2.73284571,4.20346479 1.65730286,5.10092958 1.02678857,6.2448169 C1.02456,6.18211268 1.02301714,6.11856338 1.02301714,6.05484507" id="Fill-7" fill="#FFCA05"></path>
                </g>
            </g>
        </g>
    </g>
</svg>