<?xml version="1.0" encoding="UTF-8"?>
<svg width="13px" height="12px" viewBox="0 0 13 12" version="1.1" xmlns="http://www.w3.org/2000/svg" xmlns:xlink="http://www.w3.org/1999/xlink">
    <!-- Generator: Sketch 52.5 (67469) - http://www.bohemiancoding.com/sketch -->
    <title>Combined Shape</title>
    <desc>Created with Sketch.</desc>
    <g id="website" stroke="none" stroke-width="1" fill="none" fill-rule="evenodd">
        <g id="final_version" transform="translate(-1187.000000, -39.000000)" fill="#00A0FF" fill-rule="nonzero">
            <g id="Group-43" transform="translate(1187.000000, 18.000000)">
                <path d="M5.65117735,21.8183758 C5.65117735,21.3663993 6.0312082,21 6.5,21 C6.9687918,21 7.34882265,21.3663993 7.34882265,21.8183758 L7.34882265,24.7849881 C7.34882265,25.2369646 6.9687918,25.603364 6.5,25.603364 C6.0312082,25.603364 5.65117735,25.2369646 5.65117735,24.7849881 L5.65117735,21.8183758 Z M11.8361636,24.969484 C12.2660188,24.8298156 12.7319212,25.0780227 12.8767859,25.5238702 C13.0216505,25.9697177 12.79062,26.4443722 12.3607649,26.5840406 L9.53934886,27.5007742 C9.10949368,27.6404426 8.64359122,27.3922354 8.49872659,26.9463879 C8.35386195,26.5005404 8.58489244,26.025886 9.01474762,25.8862176 L11.8361636,24.969484 Z M10.6467531,31.6826407 C10.9124182,32.0482974 10.8203309,32.5680972 10.4410704,32.8436461 C10.0618099,33.119195 9.53899434,33.0461482 9.27332923,32.6804916 L7.52959825,30.2804518 C7.26393314,29.9147951 7.35602043,29.3949953 7.73528096,29.1194464 C8.1145415,28.8438975 8.63735704,28.9169442 8.90302215,29.2826009 L10.6467531,31.6826407 Z M3.72667077,32.6804916 C3.46100566,33.0461482 2.93819012,33.119195 2.55892959,32.8436461 C2.17966905,32.5680972 2.08758176,32.0482974 2.35324687,31.6826407 L4.09697785,29.2826009 C4.36264296,28.9169442 4.8854585,28.8438975 5.26471904,29.1194464 C5.64397957,29.3949953 5.73606686,29.9147951 5.47040175,30.2804518 L3.72667077,32.6804916 Z M0.639235147,26.5840406 C0.209379968,26.4443722 -0.021650516,25.9697177 0.123214118,25.5238702 C0.268078752,25.0780227 0.733981215,24.8298156 1.16383639,24.969484 L3.98525238,25.8862176 C4.41510756,26.025886 4.64613805,26.5005404 4.50127341,26.9463879 C4.35640878,27.3922354 3.89050632,27.6404426 3.46065114,27.5007742 L0.639235147,26.5840406 Z" id="Combined-Shape"></path>
            </g>
        </g>
    </g>
</svg>