<?xml version="1.0" encoding="UTF-8"?>
<svg width="50px" height="50px" viewBox="0 0 50 50" version="1.1" xmlns="http://www.w3.org/2000/svg" xmlns:xlink="http://www.w3.org/1999/xlink">
    <!-- Generator: Sketch 52.5 (67469) - http://www.bohemiancoding.com/sketch -->
    <title>Artboard</title>
    <desc>Created with Sketch.</desc>
    <g id="Artboard" stroke="none" stroke-width="1" fill="none" fill-rule="evenodd">
        <g id="icon" transform="translate(7.000000, 7.000000)">
            <path d="M19.5,0 C16.2011715,0 13.5,2.7011715 13.5,6 C13.5,8.2207035 14.7421875,10.166016 16.546875,11.203125 C16.5175785,11.4667965 16.5,11.724609 16.5,12 C16.5,16.125 19.875,19.5 24,19.5 C28.125,19.5 31.5,16.125 31.5,12 C31.5,8.3261715 28.8105465,5.2207035 25.3125,4.59375 C24.6796875,1.962891 22.318359,0 19.5,0 Z M19.5,3 C20.71875,3 21.744141,3.708984 22.21875,4.734375 C20.255859,5.2207035 18.5917965,6.503907 17.578125,8.203125 C16.9335945,7.6640625 16.5,6.9140625 16.5,6 C16.5,4.3242195 17.8242195,3 19.5,3 Z M24,7.5 C26.5019535,7.5 28.5,9.4980465 28.5,12 C28.5,14.5019535 26.5019535,16.5 24,16.5 C21.4980465,16.5 19.5,14.5019535 19.5,12 C19.5,9.4980465 21.4980465,7.5 24,7.5 Z" id="Shape" fill="#FFA511"></path>
            <path d="M11.203125,18 C6.410157,18 0.046875,20.625 0.046875,20.625 L1.171875,23.4375 C1.171875,23.4375 7.6171875,21 11.203125,21 C12.65625,21 15.134766,21.890625 17.15625,22.921875 C18.1640625,23.4375 19.066407,23.9765625 19.734375,24.421875 C20.068359,24.644532 20.349609,24.84375 20.53125,24.984375 C20.619141,25.0546875 20.6835945,25.1367195 20.71875,25.171875 L20.953125,25.5 C21.0703125,25.833984 21.035157,26.208984 20.8125,26.53125 C20.525391,26.9355465 20.015625,27.09375 19.546875,26.953125 L19.5,26.953125 L12.984375,23.8125 L11.71875,26.53125 L18.375,29.71875 L18.421875,29.71875 L18.515625,29.765625 C20.25,30.375 22.1894535,29.771484 23.25,28.265625 C23.847657,27.416016 24.0234375,26.4199215 23.90625,25.453125 L31.125,24.234375 C31.921875,24.099609 32.6542965,24.597657 32.90625,25.359375 C33.175782,26.1679695 32.7949215,26.988282 32.015625,27.328125 C29.818359,28.2949215 26.285157,29.7421875 23.109375,30.9375 C21.521484,31.535157 20.003907,32.0625 18.84375,32.4375 C18.2636715,32.625 17.759766,32.765625 17.390625,32.859375 C17.021484,32.953125 16.722657,33 16.875,33 C16.96875,33 16.365234,32.865234 15.65625,32.484375 C14.947266,32.103516 14.056641,31.546875 13.171875,30.984375 C12.287109,30.421875 11.3730465,29.853516 10.5,29.390625 C9.6269535,28.927734 8.8417965,28.5 7.78125,28.5 C5.3261715,28.5 3.140625,29.4375 3.140625,29.4375 L4.3125,32.203125 C4.3125,32.203125 6.146484,31.5 7.78125,31.5 C7.740234,31.5 8.378907,31.634766 9.09375,32.015625 C9.8085945,32.396484 10.693359,32.953125 11.578125,33.515625 C12.462891,34.078125 13.347657,34.646484 14.203125,35.109375 C15.0585945,35.572266 15.8085945,36 16.875,36 C17.384766,36 17.677734,35.8886715 18.140625,35.765625 C18.603516,35.6425785 19.166016,35.4960945 19.78125,35.296875 C21.0117195,34.8984375 22.5234375,34.359375 24.140625,33.75 C27.369141,32.537109 30.9492195,31.1015625 33.234375,30.09375 C35.4023445,29.1386715 36.515625,26.619141 35.765625,24.375 C35.050782,22.2304695 32.8417965,20.912109 30.609375,21.28125 L22.40625,22.640625 C22.400391,22.634766 22.3710945,22.646484 22.359375,22.640625 C22.3125,22.6054695 22.265625,22.535157 22.21875,22.5 L21.796875,22.171875 L21.796875,22.21875 C21.6679695,22.125 21.5742195,22.037109 21.421875,21.9375 C20.6425785,21.421875 19.628907,20.818359 18.515625,20.25 C16.2832035,19.113282 13.6640625,18 11.203125,18 Z" id="Path" fill="#000000" fill-rule="nonzero"></path>
        </g>
    </g>
</svg>