<?xml version="1.0" encoding="UTF-8"?>
<svg width="50px" height="50px" viewBox="0 0 50 50" version="1.1" xmlns="http://www.w3.org/2000/svg" xmlns:xlink="http://www.w3.org/1999/xlink">
    <!-- Generator: Sketch 52.5 (67469) - http://www.bohemiancoding.com/sketch -->
    <title>Artboard</title>
    <desc>Created with Sketch.</desc>
    <g id="Artboard" stroke="none" stroke-width="1" fill="none" fill-rule="evenodd">
        <g id="icon" transform="translate(12.000000, 5.000000)">
            <path d="M6.65611027,0 C3.41416627,0 0.749860267,2.63141333 0.749860267,5.83333333 C0.749860267,9.03525333 3.41416627,11.6666667 6.65611027,11.6666667 C9.89805427,11.6666667 12.5623603,9.03525333 12.5623603,5.83333333 C12.5623603,2.63141333 9.89805427,0 6.65611027,0 Z M6.65611027,3.33333333 C8.07406927,3.33333333 9.18736027,4.43288033 9.18736027,5.83333333 C9.18736027,7.23378633 8.07406927,8.33333333 6.65611027,8.33333333 C5.23815127,8.33333333 4.12486027,7.23378633 4.12486027,5.83333333 C4.12486027,4.43288033 5.23815127,3.33333333 6.65611027,3.33333333 Z M7.89994529,35.0520833 L7.89994529,40 L12.0898255,40 L7.89994529,35.0520833 Z" id="Shape" fill="#000000" fill-rule="nonzero"></path>
            <path d="M4,3.5 L14.7134805,3.5" id="Path-22" stroke="#000000" stroke-width="3" stroke-linejoin="round"></path>
            <polygon id="Path-Copy" fill="#FFA511" points="12.4998603 23.271485 12.4998603 30 25.9998603 30 25.9998603 16.6666667 16.158308 16.6666667 18.3797431 20 22.6248603 20 22.6248603 26.6666667 18.7785466 26.6666667 15.7530512 22.1261236"></polygon>
            <path d="M6.43928571,40.0171973 L6.43928571,13.8894656 C10.4796687,16.4901234 13.0588235,19.4204361 14.17675,22.6804037" id="Path-21" stroke="#000000" stroke-width="3" stroke-linejoin="round"></path>
        </g>
    </g>
</svg>