<?xml version="1.0" encoding="UTF-8"?>
<svg width="50px" height="50px" viewBox="0 0 50 50" version="1.1" xmlns="http://www.w3.org/2000/svg" xmlns:xlink="http://www.w3.org/1999/xlink">
    <!-- Generator: Sketch 52.5 (67469) - http://www.bohemiancoding.com/sketch -->
    <title>Artboard</title>
    <desc>Created with Sketch.</desc>
    <g id="Artboard" stroke="none" stroke-width="1" fill="none" fill-rule="evenodd">
        <g id="Group-17" transform="translate(5.000000, 6.000000)">
            <polygon id="Rectangle" fill="#FFA511" points="6.0952381 3.8 33.5238095 3.8 33.5238095 20.52 30.4785234 11.4 9.22828778 11.4 6.0952381 20.52"></polygon>
            <path d="M3.04761905,0.76 L3.04761905,11.4 L6.0952381,11.4 L6.0952381,3.8 L33.5238095,3.8 L33.5238095,11.4 L36.5714286,11.4 L36.5714286,0.76 L3.04761905,0.76 Z M12.952381,8.36 C10.9166674,8.36 9.13095314,9.73156288 8.57142857,11.685 L6.28571429,19.5225 C4.488096,20.14 3.04761905,21.5709371 3.04761905,23.56 L3.04761905,31.16 L6.0952381,31.16 L6.0952381,23.56 C6.0952381,22.6990629 6.75595276,22.04 7.61904762,22.04 L8.76190476,22.04 L9.0952381,20.9475 L9.66666667,19 L29.952381,19 L30.5238095,20.9475 L30.8571429,22.04 L32,22.04 C32.8630949,22.04 33.5238095,22.6990629 33.5238095,23.56 L33.5238095,31.16 L36.5714286,31.16 L36.5714286,23.56 C36.5714286,21.5709371 35.1309531,20.14 33.3333333,19.5225 L31.047619,11.685 C30.488096,9.73156288 28.7023817,8.36 26.6666667,8.36 L12.952381,8.36 Z M12.952381,11.4 L26.6666667,11.4 C27.3511909,11.4 27.9047619,11.8334371 28.0952381,12.4925 L29.0952381,15.96 L10.4761905,15.96 L11.4761905,12.4925 C11.6666667,11.8334371 12.2678568,11.4 12.952381,11.4 Z M9.05941988e-14,12.92 L9.05941988e-14,19 L3.04761905,19 L3.04761905,12.92 L9.05941988e-14,12.92 Z M36.5714286,12.92 L36.5714286,19 L39.6190476,19 L39.6190476,12.92 L36.5714286,12.92 Z M16.7619048,22.04 C15.0952381,22.04 13.7142857,23.4175 13.7142857,25.08 L13.7142857,29.64 L16.7619048,29.64 L16.7619048,25.08 L22.8571429,25.08 L22.8571429,29.64 L25.9047619,29.64 L25.9047619,25.08 C25.9047619,23.4175 24.5238095,22.04 22.8571429,22.04 L16.7619048,22.04 Z M9.9047619,25.08 C8.64285714,25.08 7.61904762,26.10125 7.61904762,27.36 C7.61904762,28.61875 8.64285714,29.64 9.9047619,29.64 C11.1666667,29.64 12.1904762,28.61875 12.1904762,27.36 C12.1904762,26.10125 11.1666667,25.08 9.9047619,25.08 Z M29.7142857,25.08 C28.452381,25.08 27.4285714,26.10125 27.4285714,27.36 C27.4285714,28.61875 28.452381,29.64 29.7142857,29.64 C30.9761905,29.64 32,28.61875 32,27.36 C32,26.10125 30.9761905,25.08 29.7142857,25.08 Z M3.04761905,32.68 L3.04761905,35.72 C3.04761905,36.5571871 3.73214324,37.24 4.57142857,37.24 L9.14285714,37.24 L9.66666667,35.72 L29.952381,35.72 L30.4761905,37.24 L35.047619,37.24 C35.8869044,37.24 36.5714286,36.5571871 36.5714286,35.72 L36.5714286,32.68 L3.04761905,32.68 Z" id="Shape" fill="#000000" fill-rule="nonzero"></path>
        </g>
    </g>
</svg>