<?xml version="1.0" encoding="UTF-8"?>
<svg width="87px" height="16px" viewBox="0 0 87 16" version="1.1" xmlns="http://www.w3.org/2000/svg" xmlns:xlink="http://www.w3.org/1999/xlink">
    <!-- Generator: Sketch 52.5 (67469) - http://www.bohemiancoding.com/sketch -->
    <title>logotype</title>
    <desc>Created with Sketch.</desc>
    <g id="website" stroke="none" stroke-width="1" fill="none" fill-rule="evenodd">
        <g id="final_version" transform="translate(-1223.000000, -980.000000)">
            <g id="Group-22" transform="translate(130.000000, 980.000000)">
                <g id="Group-4" transform="translate(1014.000000, 0.000000)">
                    <g id="logotype" transform="translate(79.000000, 0.000000)">
                        <polygon id="Path" fill="#FFDE00" points="6.21724894e-15 4.92307692 3.67605634 4.92307692 6.73943662 16 3.06338028 16"></polygon>
                        <polygon id="Rectangle-Copy" fill="#FFDE00" points="6.12676056 4.92307692 9.8028169 4.92307692 12.8661972 16 9.19014085 16"></polygon>
                        <path d="M41.0492958,9.23076923 L41.0492958,11.6923077 L33.6631455,11.6923077 L33.1525822,13.5384615 L41.0492958,13.5384615 L41.0492958,16 L28.7957746,16 L30.3274648,10.4615385 L31.8591549,4.92307692 L41.0492958,4.92307692 L41.0492958,7.38461538 L34.8544601,7.38461538 L34.3438967,9.23076923 L41.0492958,9.23076923 Z M22.771331,16 L20.7084507,9.92061538 L18.6909085,16 L15.3585634,16 L12.2535211,4.92307692 L15.9485704,4.92307692 L17.1494155,11.264 L18.9175986,4.92307692 L22.5899789,4.92307692 L24.471507,11.264 L25.7323944,4.92307692 L29.4084507,4.92307692 L26.1036761,16 L22.771331,16 Z M87,12.6153846 C87,14.4846561 85.4913257,16 83.6302817,16 L77.1971831,16 L77.1971831,13.5384615 L83.0176056,13.5384615 C83.5251631,13.5384615 83.9366197,13.1251859 83.9366197,12.6153846 C83.9366197,12.1055833 83.5251631,11.6923077 83.0176056,11.6923077 L80.5669014,11.6923077 C78.7058574,11.6923077 77.1971831,10.1769638 77.1971831,8.30769231 C77.1971831,6.43842085 78.7058574,4.92307692 80.5669014,4.92307692 L85.7746479,4.92307692 L85.7746479,7.38461538 L81.1795775,7.38461538 C80.67202,7.38461538 80.2605634,7.797891 80.2605634,8.30769231 C80.2605634,8.81749362 80.67202,9.23076923 81.1795775,9.23076923 L83.6302817,9.23076923 C85.4913257,9.23076923 87,10.7461132 87,12.6153846 Z M47.1760563,6.65384615 C47.9929577,5.5 48.9449338,4.92307692 50.0319844,4.92307692 L52.6901408,4.92307692 L51.4647887,8.61538462 C50.2797286,8.51218288 49.3808605,8.56197458 48.7681845,8.76475971 C48.1555084,8.96754485 47.6247991,9.4899901 47.1760563,10.3320954 L47.1760563,16 L43.5,16 L43.5,4.92307692 L47.1760563,4.92307692 L47.1760563,6.65384615 Z M59.3140443,4.92307692 L62.9901006,16 L59.3140443,16 L57.4760161,10.4615385 L55.6379879,16 L51.9619316,16 L55.6379879,4.92307692 L59.3140443,4.92307692 Z M64.943662,1.13686838e-13 L68.6197183,1.13686838e-13 L68.6197183,16 L64.943662,16 L64.943662,1.13686838e-13 Z M71.0704225,1.13686838e-13 L74.7464789,1.13686838e-13 L74.7464789,16 L71.0704225,16 L71.0704225,1.13686838e-13 Z" id="Shape" fill="#343649" fill-rule="nonzero"></path>
                    </g>
                </g>
            </g>
        </g>
    </g>
</svg>